{"glyphs":{"0":{"ha":740,"x_min":82,"x_max":660,"o":"m 369 -8 q 224 21 289 -8 q 120 115 158 50 q 82 289 82 181 l 82 719 q 120 892 82 826 q 223 986 158 957 q 369 1015 288 1015 q 517 986 451 1015 q 621 892 582 957 q 660 719 660 826 l 660 289 q 621 115 660 181 q 517 21 582 50 q 369 -8 451 -8 m 369 76 q 515 128 463 76 q 568 289 568 179 l 568 719 q 515 879 568 828 q 369 931 463 931 q 225 879 276 931 q 174 719 174 828 l 174 289 q 225 128 174 179 q 369 76 276 76 m 371 451 q 334 467 349 451 q 319 503 319 482 q 334 539 319 525 q 371 553 349 553 q 407 539 393 553 q 421 503 421 525 q 407 467 421 482 q 371 451 393 451 z "},"1":{"ha":325,"x_min":19,"x_max":229,"o":"m 183 0 q 151 9 165 0 q 138 36 138 18 l 138 860 l 82 769 q 69 757 76 761 q 56 753 63 753 q 30 765 40 753 q 19 793 19 778 q 26 816 19 803 q 40 835 33 829 l 154 996 q 168 1010 161 1004 q 189 1017 175 1017 q 217 1008 204 1017 q 229 982 229 999 l 229 36 q 215 9 229 18 q 183 0 200 0 z "},"2":{"ha":660,"x_min":47,"x_max":618,"o":"m 90 0 q 62 10 76 0 q 47 36 47 19 l 47 171 q 81 276 47 228 q 169 368 115 325 q 283 453 222 411 q 396 540 343 494 q 483 635 449 585 q 517 746 517 685 q 497 832 517 790 q 435 901 476 874 q 329 929 393 929 q 210 888 258 929 q 161 765 161 847 q 149 740 161 751 q 113 728 136 728 q 81 740 92 728 q 71 785 71 753 q 106 904 71 853 q 199 985 140 956 q 332 1015 258 1015 q 474 980 413 1015 q 572 884 536 944 q 608 749 608 824 q 574 615 608 675 q 488 507 540 556 q 375 417 435 458 q 263 336 315 375 q 176 257 210 297 q 142 171 142 217 l 142 85 l 585 85 q 608 73 599 85 q 618 43 618 61 q 608 13 618 26 q 585 0 599 0 l 90 0 z "},"3":{"ha":678,"x_min":40,"x_max":618,"o":"m 328 -8 q 200 13 254 -8 q 110 68 146 35 q 57 142 74 101 q 40 221 40 182 q 51 260 40 250 q 82 269 61 269 q 121 259 111 269 q 131 231 131 249 q 140 181 131 208 q 171 131 149 154 q 231 92 193 107 q 325 76 268 76 q 475 127 424 76 q 526 285 526 178 l 526 311 q 472 451 526 407 q 328 496 418 496 q 301 508 310 496 q 293 535 293 519 q 301 563 293 550 q 328 575 310 575 q 422 591 383 575 q 481 646 461 607 q 501 753 501 685 q 461 888 501 843 q 333 932 421 932 q 244 917 279 932 q 189 880 208 903 q 163 832 169 857 q 156 783 156 807 q 145 751 156 764 q 111 739 135 739 q 82 743 92 739 q 68 760 72 747 q 64 792 64 772 q 76 859 64 821 q 117 933 88 897 q 200 992 147 968 q 336 1015 253 1015 q 468 992 411 1015 q 558 915 525 968 q 590 771 590 861 q 558 618 590 676 q 476 536 525 560 q 578 457 538 511 q 618 311 618 403 l 618 285 q 579 114 618 178 q 474 21 540 50 q 328 -8 408 -8 z "},"4":{"ha":617,"x_min":10,"x_max":603,"o":"m 444 0 q 413 9 428 0 q 399 36 399 18 l 399 239 l 46 239 q 19 249 29 239 q 10 276 10 260 q 12 289 10 283 q 15 300 14 294 l 364 988 q 384 1009 372 1003 q 407 1015 396 1015 q 427 1011 417 1015 q 444 999 438 1007 q 451 978 451 990 q 447 960 451 971 l 128 326 l 399 326 l 399 594 q 413 621 399 613 q 444 629 428 629 q 476 621 463 629 q 490 594 490 613 l 490 326 l 567 326 q 594 313 585 326 q 603 283 603 300 q 592 253 603 267 q 567 239 582 239 l 490 239 l 490 36 q 476 9 490 18 q 444 0 463 0 z "},"5":{"ha":660,"x_min":38,"x_max":615,"o":"m 326 -8 q 171 24 236 -8 q 72 110 106 57 q 38 228 38 164 q 50 264 38 254 q 83 274 63 274 q 119 263 108 274 q 129 235 129 251 q 156 149 129 185 q 226 95 182 114 q 325 76 271 76 q 471 128 418 76 q 524 286 524 179 l 524 313 q 471 467 524 417 q 328 518 418 518 l 133 518 q 97 528 106 518 q 88 553 88 539 q 88 567 88 561 q 89 581 89 574 l 117 981 q 125 1006 118 996 q 146 1015 132 1015 l 535 1015 q 558 1002 550 1015 q 565 974 565 989 q 558 944 565 957 q 535 931 550 931 l 199 931 l 175 597 l 328 597 q 474 569 408 597 q 577 479 539 542 q 615 313 615 417 l 615 286 q 577 115 615 179 q 473 21 539 50 q 326 -8 407 -8 z "},"6":{"ha":721,"x_min":82,"x_max":660,"o":"m 371 -8 q 224 21 290 -8 q 120 115 158 50 q 82 289 82 181 l 82 719 q 121 892 82 826 q 225 986 160 957 q 374 1015 290 1015 q 497 996 443 1015 q 586 942 550 976 q 641 866 622 908 q 660 778 660 824 q 648 746 660 756 q 617 736 636 736 q 583 744 597 736 q 568 774 568 753 q 542 857 568 822 q 470 911 515 892 q 371 931 425 931 q 226 879 278 931 q 174 719 174 828 l 174 507 q 263 577 208 556 q 383 599 318 599 q 522 574 460 599 q 622 488 585 549 q 660 322 660 428 l 660 289 q 621 115 660 181 q 517 21 582 50 q 371 -8 453 -8 m 371 74 q 516 125 464 74 q 568 285 568 176 l 568 318 q 516 474 568 428 q 371 519 464 519 q 227 477 281 519 q 174 331 174 435 l 174 285 q 226 125 174 176 q 371 74 278 74 z "},"7":{"ha":639,"x_min":39,"x_max":617,"o":"m 160 -1 q 133 3 146 -1 q 112 18 119 8 q 104 42 104 28 q 110 61 104 51 l 525 856 l 525 931 l 131 931 l 131 771 q 117 747 131 757 q 85 736 103 736 q 53 747 67 736 q 39 771 39 757 l 39 981 q 52 1004 39 993 q 81 1015 65 1015 l 574 1015 q 603 1004 589 1015 q 617 981 617 993 l 617 861 q 613 842 617 853 q 603 821 610 831 l 190 15 q 160 -1 182 -1 z "},"8":{"ha":699,"x_min":61,"x_max":639,"o":"m 350 -8 q 203 20 269 -8 q 99 112 138 49 q 61 278 61 175 l 61 294 q 103 465 61 401 q 213 554 144 528 q 123 630 157 576 q 89 772 89 683 q 124 917 89 864 q 217 993 158 971 q 350 1015 276 1015 q 484 993 425 1015 q 577 917 543 971 q 611 772 611 864 q 577 630 611 683 q 489 554 543 576 q 598 465 557 528 q 639 294 639 401 l 639 278 q 600 112 639 175 q 497 20 561 49 q 350 -8 432 -8 m 351 72 q 495 125 443 72 q 547 285 547 178 l 547 304 q 494 461 547 411 q 350 511 442 511 q 206 461 258 511 q 153 304 153 411 l 153 285 q 206 124 153 176 q 351 72 258 72 m 350 593 q 476 633 431 593 q 522 765 522 674 q 476 895 522 856 q 350 935 431 935 q 224 895 269 935 q 179 765 179 856 q 224 633 179 674 q 350 593 269 593 z "},"9":{"ha":721,"x_min":61,"x_max":639,"o":"m 347 -8 q 224 11 278 -8 q 135 65 171 31 q 80 142 99 100 q 61 229 61 183 q 73 263 61 253 q 104 272 85 272 q 138 263 124 272 q 153 233 153 254 q 179 150 153 185 q 251 96 206 115 q 350 76 296 76 q 495 128 443 76 q 547 289 547 179 l 547 501 q 458 431 513 453 q 338 408 403 408 q 199 434 261 408 q 99 519 136 460 q 61 686 61 579 l 61 719 q 100 892 61 826 q 203 986 139 957 q 350 1015 268 1015 q 497 986 431 1015 q 601 892 563 957 q 639 719 639 826 l 639 289 q 600 115 639 181 q 496 21 561 50 q 347 -8 431 -8 m 350 488 q 494 531 440 488 q 547 676 547 575 l 547 722 q 495 883 547 832 q 350 935 443 935 q 205 883 257 935 q 153 722 153 832 l 153 689 q 205 533 153 579 q 350 488 257 488 z "},"A":{"ha":747,"x_min":28,"x_max":719,"o":"m 81 0 q 57 5 69 0 q 36 19 44 10 q 28 39 28 28 q 29 49 28 44 l 319 992 q 340 1016 325 1008 q 374 1024 356 1024 q 409 1015 393 1024 q 429 992 425 1007 l 718 49 q 719 40 719 44 q 711 20 719 29 q 690 6 703 11 q 664 0 678 0 q 643 6 653 0 q 631 24 633 11 l 565 238 l 182 238 l 118 24 q 104 6 114 11 q 81 0 94 0 m 204 317 l 542 317 l 374 876 l 204 317 z "},"Á":{"ha":747,"x_min":28,"x_max":719,"o":"m 81 0 q 57 5 69 0 q 36 19 44 10 q 28 39 28 28 q 29 49 28 44 l 319 992 q 340 1016 325 1008 q 374 1024 356 1024 q 409 1015 393 1024 q 429 992 425 1007 l 718 49 q 719 40 719 44 q 711 20 719 29 q 690 6 703 11 q 664 0 678 0 q 643 6 653 0 q 631 24 633 11 l 565 238 l 182 238 l 118 24 q 104 6 114 11 q 81 0 94 0 m 204 317 l 542 317 l 374 876 l 204 317 m 314 1174 q 289 1186 300 1174 q 278 1213 278 1199 q 293 1238 278 1231 l 449 1322 q 460 1326 456 1326 q 484 1314 475 1326 q 493 1288 493 1301 q 476 1257 493 1267 l 328 1178 q 321 1175 325 1176 q 314 1174 317 1174 z "},"Ă":{"ha":747,"x_min":28,"x_max":719,"o":"m 81 0 q 57 5 69 0 q 36 19 44 10 q 28 39 28 28 q 29 49 28 44 l 319 992 q 340 1016 325 1008 q 374 1024 356 1024 q 409 1015 393 1024 q 429 992 425 1007 l 718 49 q 719 40 719 44 q 711 20 719 29 q 690 6 703 11 q 664 0 678 0 q 643 6 653 0 q 631 24 633 11 l 565 238 l 182 238 l 118 24 q 104 6 114 11 q 81 0 94 0 m 204 317 l 542 317 l 374 876 l 204 317 m 375 1182 q 272 1221 318 1182 q 215 1315 226 1260 q 220 1337 213 1329 q 240 1344 228 1344 l 250 1344 q 267 1338 261 1344 q 276 1319 274 1331 q 313 1257 285 1282 q 375 1232 340 1232 q 438 1257 410 1232 q 472 1319 465 1282 q 481 1338 475 1331 q 499 1344 488 1344 l 508 1344 q 528 1336 521 1344 q 535 1315 536 1328 q 476 1221 522 1260 q 375 1182 431 1182 z "},"Â":{"ha":747,"x_min":28,"x_max":719,"o":"m 81 0 q 57 5 69 0 q 36 19 44 10 q 28 39 28 28 q 29 49 28 44 l 319 992 q 340 1016 325 1008 q 374 1024 356 1024 q 409 1015 393 1024 q 429 992 425 1007 l 718 49 q 719 40 719 44 q 711 20 719 29 q 690 6 703 11 q 664 0 678 0 q 643 6 653 0 q 631 24 633 11 l 565 238 l 182 238 l 118 24 q 104 6 114 11 q 81 0 94 0 m 204 317 l 542 317 l 374 876 l 204 317 m 218 1175 q 198 1186 207 1175 q 189 1211 189 1197 q 194 1228 189 1219 q 207 1242 199 1236 l 351 1319 q 375 1326 364 1326 q 399 1319 388 1326 l 543 1242 q 557 1228 553 1238 q 561 1210 561 1219 q 553 1186 561 1196 q 533 1176 544 1176 q 526 1178 531 1176 q 519 1181 522 1179 l 375 1257 l 231 1179 q 224 1176 228 1178 q 218 1175 221 1175 z "},"Ä":{"ha":747,"x_min":28,"x_max":719,"o":"m 81 0 q 57 5 69 0 q 36 19 44 10 q 28 39 28 28 q 29 49 28 44 l 319 992 q 340 1016 325 1008 q 374 1024 356 1024 q 409 1015 393 1024 q 429 992 425 1007 l 718 49 q 719 40 719 44 q 711 20 719 29 q 690 6 703 11 q 664 0 678 0 q 643 6 653 0 q 631 24 633 11 l 565 238 l 182 238 l 118 24 q 104 6 114 11 q 81 0 94 0 m 204 317 l 542 317 l 374 876 l 204 317 m 460 1176 q 424 1192 439 1176 q 408 1228 408 1207 q 424 1264 408 1250 q 460 1278 439 1278 q 496 1264 482 1278 q 510 1228 510 1250 q 496 1192 510 1207 q 460 1176 482 1176 m 289 1176 q 252 1192 267 1176 q 238 1228 238 1207 q 252 1264 238 1250 q 289 1278 267 1278 q 324 1264 310 1278 q 339 1228 339 1250 q 324 1192 339 1207 q 289 1176 310 1176 z "},"À":{"ha":747,"x_min":28,"x_max":719,"o":"m 81 0 q 57 5 69 0 q 36 19 44 10 q 28 39 28 28 q 29 49 28 44 l 319 992 q 340 1016 325 1008 q 374 1024 356 1024 q 409 1015 393 1024 q 429 992 425 1007 l 718 49 q 719 40 719 44 q 711 20 719 29 q 690 6 703 11 q 664 0 678 0 q 643 6 653 0 q 631 24 633 11 l 565 238 l 182 238 l 118 24 q 104 6 114 11 q 81 0 94 0 m 204 317 l 542 317 l 374 876 l 204 317 m 436 1174 q 429 1175 433 1174 q 422 1178 425 1176 l 275 1257 q 257 1288 257 1267 q 267 1314 257 1301 q 290 1326 276 1326 q 303 1322 296 1326 l 457 1238 q 472 1213 472 1231 q 462 1186 472 1199 q 436 1174 451 1174 z "},"Ā":{"ha":747,"x_min":28,"x_max":719,"o":"m 81 0 q 57 5 69 0 q 36 19 44 10 q 28 39 28 28 q 29 49 28 44 l 319 992 q 340 1016 325 1008 q 374 1024 356 1024 q 409 1015 393 1024 q 429 992 425 1007 l 718 49 q 719 40 719 44 q 711 20 719 29 q 690 6 703 11 q 664 0 678 0 q 643 6 653 0 q 631 24 633 11 l 565 238 l 182 238 l 118 24 q 104 6 114 11 q 81 0 94 0 m 204 317 l 542 317 l 374 876 l 204 317 z "},"Ą":{"ha":747,"x_min":28,"x_max":719,"o":"m 81 0 q 57 5 69 0 q 36 19 44 10 q 28 39 28 28 q 29 49 28 44 l 319 992 q 340 1016 325 1008 q 374 1024 356 1024 q 409 1015 393 1024 q 429 992 425 1007 l 718 49 q 719 40 719 44 q 711 20 719 29 q 690 6 703 11 q 664 0 678 0 q 643 6 653 0 q 631 24 633 11 l 565 238 l 182 238 l 118 24 q 104 6 114 11 q 81 0 94 0 m 204 317 l 542 317 l 374 876 l 204 317 m 671 -278 q 606 -267 636 -278 q 556 -234 575 -257 q 536 -174 536 -211 q 567 -62 536 -114 q 649 31 599 -11 l 694 7 q 622 -74 651 -31 q 592 -167 592 -117 q 615 -214 592 -200 q 678 -228 638 -228 q 698 -235 690 -228 q 706 -254 706 -242 q 698 -272 706 -265 q 671 -278 690 -278 z "},"Å":{"ha":747,"x_min":28,"x_max":719,"o":"m 81 0 q 57 5 69 0 q 36 19 44 10 q 28 39 28 28 q 29 49 28 44 l 319 992 q 340 1016 325 1008 q 374 1024 356 1024 q 409 1015 393 1024 q 429 992 425 1007 l 718 49 q 719 40 719 44 q 711 20 719 29 q 690 6 703 11 q 664 0 678 0 q 643 6 653 0 q 631 24 633 11 l 565 238 l 182 238 l 118 24 q 104 6 114 11 q 81 0 94 0 m 204 317 l 542 317 l 374 876 l 204 317 z "},"Ã":{"ha":747,"x_min":28,"x_max":719,"o":"m 81 0 q 57 5 69 0 q 36 19 44 10 q 28 39 28 28 q 29 49 28 44 l 319 992 q 340 1016 325 1008 q 374 1024 356 1024 q 409 1015 393 1024 q 429 992 425 1007 l 718 49 q 719 40 719 44 q 711 20 719 29 q 690 6 703 11 q 664 0 678 0 q 643 6 653 0 q 631 24 633 11 l 565 238 l 182 238 l 118 24 q 104 6 114 11 q 81 0 94 0 m 204 317 l 542 317 l 374 876 l 204 317 m 472 1199 q 407 1211 435 1199 q 352 1235 379 1224 q 288 1247 325 1247 q 240 1236 258 1247 q 209 1214 221 1225 q 185 1203 197 1203 q 171 1208 176 1203 q 162 1222 165 1214 q 158 1238 158 1231 q 171 1272 158 1257 q 203 1297 183 1286 q 244 1312 222 1307 q 281 1317 265 1317 q 345 1306 318 1317 q 400 1282 372 1294 q 464 1269 428 1269 q 511 1280 494 1269 q 538 1300 528 1290 q 561 1310 549 1310 q 577 1304 571 1310 q 586 1292 583 1299 q 589 1278 589 1285 q 576 1241 589 1256 q 545 1217 564 1226 q 507 1203 526 1207 q 472 1199 488 1199 z "},"Æ":{"ha":992,"x_min":100,"x_max":958,"o":"m 143 0 q 110 13 119 0 q 100 43 100 25 l 100 719 q 138 892 100 826 q 241 986 176 957 q 386 1015 306 1015 l 924 1015 q 950 1002 942 1015 q 958 975 958 989 q 949 944 958 957 q 924 931 940 931 l 599 931 l 599 549 l 803 549 q 828 536 819 549 q 838 507 838 524 q 829 482 838 494 q 803 469 821 469 l 599 469 l 599 85 l 924 85 q 949 72 940 85 q 958 42 958 60 q 950 13 958 26 q 924 0 942 0 l 550 0 q 520 9 533 0 q 507 36 507 18 l 507 469 l 189 469 l 189 43 q 181 13 189 25 q 143 0 174 0 m 189 549 l 507 549 l 507 931 l 386 931 q 241 879 293 931 q 189 719 189 828 l 189 549 z "},"Ǽ":{"ha":992,"x_min":100,"x_max":958,"o":"m 143 0 q 110 13 119 0 q 100 43 100 25 l 100 719 q 138 892 100 826 q 241 986 176 957 q 386 1015 306 1015 l 924 1015 q 950 1002 942 1015 q 958 975 958 989 q 949 944 958 957 q 924 931 940 931 l 599 931 l 599 549 l 803 549 q 828 536 819 549 q 838 507 838 524 q 829 482 838 494 q 803 469 821 469 l 599 469 l 599 85 l 924 85 q 949 72 940 85 q 958 42 958 60 q 950 13 958 26 q 924 0 942 0 l 550 0 q 520 9 533 0 q 507 36 507 18 l 507 469 l 189 469 l 189 43 q 181 13 189 25 q 143 0 174 0 m 189 549 l 507 549 l 507 931 l 386 931 q 241 879 293 931 q 189 719 189 828 l 189 549 m 460 1174 q 435 1186 446 1174 q 424 1213 424 1199 q 439 1238 424 1231 l 594 1322 q 606 1326 601 1326 q 630 1314 621 1326 q 639 1288 639 1301 q 622 1257 639 1267 l 474 1178 q 467 1175 471 1176 q 460 1174 463 1174 z "},"B":{"ha":747,"x_min":106,"x_max":683,"o":"m 147 0 q 117 10 129 0 q 106 35 106 21 l 106 981 q 119 1006 106 997 q 147 1015 132 1015 l 375 1015 q 517 997 453 1015 q 620 928 582 979 q 658 779 658 878 q 626 633 658 692 q 540 550 593 574 q 615 504 583 533 q 665 429 647 475 q 683 311 683 383 l 683 286 q 647 118 683 181 q 549 28 611 56 q 410 0 486 0 l 147 0 m 197 85 l 397 85 q 540 134 489 85 q 592 290 592 183 l 592 314 q 540 467 592 422 q 397 511 489 511 l 197 511 l 197 85 m 197 590 l 378 590 q 521 631 475 590 q 567 769 567 671 q 542 869 567 835 q 474 917 517 904 q 372 931 431 931 l 197 931 l 197 590 z "},"C":{"ha":729,"x_min":96,"x_max":674,"o":"m 383 -8 q 240 21 306 -8 q 135 115 174 50 q 96 289 96 181 l 96 719 q 135 892 96 826 q 241 986 175 957 q 386 1015 307 1015 q 542 983 478 1015 q 640 899 606 951 q 674 783 674 846 q 662 739 674 750 q 628 728 650 728 q 592 738 603 728 q 582 763 582 749 q 573 814 581 785 q 545 869 565 843 q 487 913 525 896 q 388 931 449 931 q 239 879 290 931 q 188 719 188 828 l 188 289 q 240 128 188 179 q 392 76 292 76 q 490 94 454 76 q 545 137 526 111 q 571 192 564 163 q 582 247 578 222 q 594 274 583 265 q 626 283 606 283 q 662 272 650 283 q 674 226 674 260 q 639 110 674 164 q 540 24 604 57 q 383 -8 475 -8 z "},"Ć":{"ha":729,"x_min":96,"x_max":674,"o":"m 383 -8 q 240 21 306 -8 q 135 115 174 50 q 96 289 96 181 l 96 719 q 135 892 96 826 q 241 986 175 957 q 386 1015 307 1015 q 542 983 478 1015 q 640 899 606 951 q 674 783 674 846 q 662 739 674 750 q 628 728 650 728 q 592 738 603 728 q 582 763 582 749 q 573 814 581 785 q 545 869 565 843 q 487 913 525 896 q 388 931 449 931 q 239 879 290 931 q 188 719 188 828 l 188 289 q 240 128 188 179 q 392 76 292 76 q 490 94 454 76 q 545 137 526 111 q 571 192 564 163 q 582 247 578 222 q 594 274 583 265 q 626 283 606 283 q 662 272 650 283 q 674 226 674 260 q 639 110 674 164 q 540 24 604 57 q 383 -8 475 -8 m 319 1174 q 294 1186 306 1174 q 283 1213 283 1199 q 299 1238 283 1231 l 454 1322 q 465 1326 461 1326 q 490 1314 481 1326 q 499 1288 499 1301 q 482 1257 499 1267 l 333 1178 q 326 1175 331 1176 q 319 1174 322 1174 z "},"Č":{"ha":729,"x_min":96,"x_max":674,"o":"m 383 -8 q 240 21 306 -8 q 135 115 174 50 q 96 289 96 181 l 96 719 q 135 892 96 826 q 241 986 175 957 q 386 1015 307 1015 q 542 983 478 1015 q 640 899 606 951 q 674 783 674 846 q 662 739 674 750 q 628 728 650 728 q 592 738 603 728 q 582 763 582 749 q 573 814 581 785 q 545 869 565 843 q 487 913 525 896 q 388 931 449 931 q 239 879 290 931 q 188 719 188 828 l 188 289 q 240 128 188 179 q 392 76 292 76 q 490 94 454 76 q 545 137 526 111 q 571 192 564 163 q 582 247 578 222 q 594 274 583 265 q 626 283 606 283 q 662 272 650 283 q 674 226 674 260 q 639 110 674 164 q 540 24 604 57 q 383 -8 475 -8 m 381 1167 q 353 1181 365 1167 l 213 1306 q 199 1320 203 1313 q 194 1338 194 1328 q 202 1358 194 1349 q 221 1368 210 1368 q 242 1360 232 1368 l 381 1232 l 518 1360 q 539 1368 528 1368 q 558 1358 551 1368 q 565 1338 565 1349 q 561 1320 565 1328 q 549 1306 557 1313 l 408 1181 q 381 1167 393 1167 z "},"Ç":{"ha":729,"x_min":96,"x_max":674,"o":"m 383 -8 q 240 21 306 -8 q 135 115 174 50 q 96 289 96 181 l 96 719 q 135 892 96 826 q 241 986 175 957 q 386 1015 307 1015 q 542 983 478 1015 q 640 899 606 951 q 674 783 674 846 q 662 739 674 750 q 628 728 650 728 q 592 738 603 728 q 582 763 582 749 q 573 814 581 785 q 545 869 565 843 q 487 913 525 896 q 388 931 449 931 q 239 879 290 931 q 188 719 188 828 l 188 289 q 240 128 188 179 q 392 76 292 76 q 490 94 454 76 q 545 137 526 111 q 571 192 564 163 q 582 247 578 222 q 594 274 583 265 q 626 283 606 283 q 662 272 650 283 q 674 226 674 260 q 639 110 674 164 q 540 24 604 57 q 383 -8 475 -8 m 419 -292 q 375 -287 400 -292 q 331 -276 350 -283 q 311 -256 311 -268 q 314 -243 311 -251 q 322 -228 317 -235 q 333 -222 326 -222 q 359 -231 342 -222 q 411 -240 376 -240 q 468 -225 451 -240 q 485 -187 485 -210 q 461 -145 485 -158 q 397 -129 438 -132 l 344 -125 l 381 13 l 436 13 l 410 -83 q 512 -116 481 -86 q 543 -185 543 -146 q 530 -233 543 -208 q 489 -275 517 -258 q 419 -292 461 -292 z "},"Ĉ":{"ha":729,"x_min":96,"x_max":674,"o":"m 383 -8 q 240 21 306 -8 q 135 115 174 50 q 96 289 96 181 l 96 719 q 135 892 96 826 q 241 986 175 957 q 386 1015 307 1015 q 542 983 478 1015 q 640 899 606 951 q 674 783 674 846 q 662 739 674 750 q 628 728 650 728 q 592 738 603 728 q 582 763 582 749 q 573 814 581 785 q 545 869 565 843 q 487 913 525 896 q 388 931 449 931 q 239 879 290 931 q 188 719 188 828 l 188 289 q 240 128 188 179 q 392 76 292 76 q 490 94 454 76 q 545 137 526 111 q 571 192 564 163 q 582 247 578 222 q 594 274 583 265 q 626 283 606 283 q 662 272 650 283 q 674 226 674 260 q 639 110 674 164 q 540 24 604 57 q 383 -8 475 -8 m 224 1175 q 203 1186 213 1175 q 194 1211 194 1197 q 199 1228 194 1219 q 213 1242 204 1236 l 357 1319 q 381 1326 369 1326 q 404 1319 393 1326 l 549 1242 q 563 1228 558 1238 q 567 1210 567 1219 q 558 1186 567 1196 q 539 1176 550 1176 q 532 1178 536 1176 q 525 1181 528 1179 l 381 1257 l 236 1179 q 230 1176 233 1178 q 224 1175 226 1175 z "},"Ċ":{"ha":729,"x_min":96,"x_max":674,"o":"m 383 -8 q 240 21 306 -8 q 135 115 174 50 q 96 289 96 181 l 96 719 q 135 892 96 826 q 241 986 175 957 q 386 1015 307 1015 q 542 983 478 1015 q 640 899 606 951 q 674 783 674 846 q 662 739 674 750 q 628 728 650 728 q 592 738 603 728 q 582 763 582 749 q 573 814 581 785 q 545 869 565 843 q 487 913 525 896 q 388 931 449 931 q 239 879 290 931 q 188 719 188 828 l 188 289 q 240 128 188 179 q 392 76 292 76 q 490 94 454 76 q 545 137 526 111 q 571 192 564 163 q 582 247 578 222 q 594 274 583 265 q 626 283 606 283 q 662 272 650 283 q 674 226 674 260 q 639 110 674 164 q 540 24 604 57 q 383 -8 475 -8 m 385 1178 q 345 1194 361 1178 q 329 1233 329 1211 q 345 1272 329 1256 q 385 1288 361 1288 q 423 1272 407 1288 q 439 1233 439 1256 q 423 1194 439 1211 q 385 1178 407 1178 z "},"D":{"ha":778,"x_min":106,"x_max":683,"o":"m 147 0 q 117 10 129 0 q 106 35 106 19 l 106 982 q 117 1006 106 996 q 147 1015 129 1015 l 393 1015 q 541 986 475 1015 q 645 892 607 957 q 683 719 683 826 l 683 297 q 645 124 683 189 q 541 29 607 58 q 393 0 475 0 l 147 0 m 197 85 l 393 85 q 539 136 486 85 q 592 297 592 188 l 592 719 q 539 879 592 828 q 393 931 486 931 l 197 931 l 197 85 z "},"Ð":{"ha":790,"x_min":0,"x_max":696,"o":"m 160 0 q 130 10 142 0 q 118 35 118 19 l 118 496 l 31 496 q 8 507 17 496 q 0 533 0 518 q 8 560 0 549 q 31 571 17 571 l 118 571 l 118 982 q 130 1006 118 996 q 160 1015 142 1015 l 406 1015 q 553 986 488 1015 q 658 892 619 957 q 696 719 696 826 l 696 297 q 658 124 696 189 q 553 29 619 58 q 406 0 488 0 l 160 0 m 210 85 l 406 85 q 551 136 499 85 q 604 297 604 188 l 604 719 q 551 879 604 828 q 406 931 499 931 l 210 931 l 210 571 l 368 571 q 391 560 382 571 q 400 533 400 549 q 391 507 400 518 q 368 496 382 496 l 210 496 l 210 85 z "},"Ď":{"ha":778,"x_min":106,"x_max":683,"o":"m 147 0 q 117 10 129 0 q 106 35 106 19 l 106 982 q 117 1006 106 996 q 147 1015 129 1015 l 393 1015 q 541 986 475 1015 q 645 892 607 957 q 683 719 683 826 l 683 297 q 645 124 683 189 q 541 29 607 58 q 393 0 475 0 l 147 0 m 197 85 l 393 85 q 539 136 486 85 q 592 297 592 188 l 592 719 q 539 879 592 828 q 393 931 486 931 l 197 931 l 197 85 m 390 1167 q 363 1181 375 1167 l 222 1306 q 208 1320 213 1313 q 204 1338 204 1328 q 212 1358 204 1349 q 231 1368 219 1368 q 251 1360 242 1368 l 390 1232 l 528 1360 q 549 1368 538 1368 q 568 1358 561 1368 q 575 1338 575 1349 q 571 1320 575 1328 q 558 1306 567 1313 l 418 1181 q 390 1167 403 1167 z "},"Đ":{"ha":790,"x_min":0,"x_max":696,"o":"m 160 0 q 130 10 142 0 q 118 35 118 19 l 118 496 l 31 496 q 8 507 17 496 q 0 533 0 518 q 8 560 0 549 q 31 571 17 571 l 118 571 l 118 982 q 130 1006 118 996 q 160 1015 142 1015 l 406 1015 q 553 986 488 1015 q 658 892 619 957 q 696 719 696 826 l 696 297 q 658 124 696 189 q 553 29 619 58 q 406 0 488 0 l 160 0 m 210 85 l 406 85 q 551 136 499 85 q 604 297 604 188 l 604 719 q 551 879 604 828 q 406 931 499 931 l 210 931 l 210 571 l 368 571 q 391 560 382 571 q 400 533 400 549 q 391 507 400 518 q 368 496 382 496 l 210 496 l 210 85 z "},"E":{"ha":706,"x_min":106,"x_max":676,"o":"m 147 0 q 119 9 132 0 q 106 36 106 18 l 106 981 q 119 1006 106 997 q 147 1015 132 1015 l 642 1015 q 668 1002 660 1015 q 676 975 676 989 q 667 944 676 957 q 642 931 658 931 l 197 931 l 197 549 l 415 549 q 441 536 432 549 q 450 507 450 524 q 442 482 450 494 q 415 469 433 469 l 197 469 l 197 85 l 642 85 q 667 72 658 85 q 676 42 676 60 q 668 13 676 26 q 642 0 660 0 l 147 0 z "},"É":{"ha":706,"x_min":106,"x_max":676,"o":"m 147 0 q 119 9 132 0 q 106 36 106 18 l 106 981 q 119 1006 106 997 q 147 1015 132 1015 l 642 1015 q 668 1002 660 1015 q 676 975 676 989 q 667 944 676 957 q 642 931 658 931 l 197 931 l 197 549 l 415 549 q 441 536 432 549 q 450 507 450 524 q 442 482 450 494 q 415 469 433 469 l 197 469 l 197 85 l 642 85 q 667 72 658 85 q 676 42 676 60 q 668 13 676 26 q 642 0 660 0 l 147 0 m 329 1174 q 304 1186 315 1174 q 293 1213 293 1199 q 308 1238 293 1231 l 464 1322 q 475 1326 471 1326 q 499 1314 490 1326 q 508 1288 508 1301 q 492 1257 508 1267 l 343 1178 q 336 1175 340 1176 q 329 1174 332 1174 z "},"Ĕ":{"ha":706,"x_min":106,"x_max":676,"o":"m 147 0 q 119 9 132 0 q 106 36 106 18 l 106 981 q 119 1006 106 997 q 147 1015 132 1015 l 642 1015 q 668 1002 660 1015 q 676 975 676 989 q 667 944 676 957 q 642 931 658 931 l 197 931 l 197 549 l 415 549 q 441 536 432 549 q 450 507 450 524 q 442 482 450 494 q 415 469 433 469 l 197 469 l 197 85 l 642 85 q 667 72 658 85 q 676 42 676 60 q 668 13 676 26 q 642 0 660 0 l 147 0 m 390 1182 q 288 1221 333 1182 q 231 1315 242 1260 q 235 1337 228 1329 q 256 1344 243 1344 l 265 1344 q 283 1338 276 1344 q 292 1319 289 1331 q 328 1257 300 1282 q 390 1232 356 1232 q 453 1257 425 1232 q 488 1319 481 1282 q 497 1338 490 1331 q 514 1344 503 1344 l 524 1344 q 544 1336 536 1344 q 550 1315 551 1328 q 492 1221 538 1260 q 390 1182 446 1182 z "},"Ě":{"ha":706,"x_min":106,"x_max":676,"o":"m 147 0 q 119 9 132 0 q 106 36 106 18 l 106 981 q 119 1006 106 997 q 147 1015 132 1015 l 642 1015 q 668 1002 660 1015 q 676 975 676 989 q 667 944 676 957 q 642 931 658 931 l 197 931 l 197 549 l 415 549 q 441 536 432 549 q 450 507 450 524 q 442 482 450 494 q 415 469 433 469 l 197 469 l 197 85 l 642 85 q 667 72 658 85 q 676 42 676 60 q 668 13 676 26 q 642 0 660 0 l 147 0 m 390 1167 q 363 1181 375 1167 l 222 1306 q 208 1320 213 1313 q 204 1338 204 1328 q 212 1358 204 1349 q 231 1368 219 1368 q 251 1360 242 1368 l 390 1232 l 528 1360 q 549 1368 538 1368 q 568 1358 561 1368 q 575 1338 575 1349 q 571 1320 575 1328 q 558 1306 567 1313 l 418 1181 q 390 1167 403 1167 z "},"Ê":{"ha":706,"x_min":106,"x_max":676,"o":"m 147 0 q 119 9 132 0 q 106 36 106 18 l 106 981 q 119 1006 106 997 q 147 1015 132 1015 l 642 1015 q 668 1002 660 1015 q 676 975 676 989 q 667 944 676 957 q 642 931 658 931 l 197 931 l 197 549 l 415 549 q 441 536 432 549 q 450 507 450 524 q 442 482 450 494 q 415 469 433 469 l 197 469 l 197 85 l 642 85 q 667 72 658 85 q 676 42 676 60 q 668 13 676 26 q 642 0 660 0 l 147 0 m 233 1175 q 213 1186 222 1175 q 204 1211 204 1197 q 209 1228 204 1219 q 222 1242 214 1236 l 367 1319 q 390 1326 379 1326 q 414 1319 403 1326 l 558 1242 q 572 1228 568 1238 q 576 1210 576 1219 q 568 1186 576 1196 q 549 1176 560 1176 q 542 1178 546 1176 q 535 1181 538 1179 l 390 1257 l 246 1179 q 240 1176 243 1178 q 233 1175 236 1175 z "},"Ë":{"ha":706,"x_min":106,"x_max":676,"o":"m 147 0 q 119 9 132 0 q 106 36 106 18 l 106 981 q 119 1006 106 997 q 147 1015 132 1015 l 642 1015 q 668 1002 660 1015 q 676 975 676 989 q 667 944 676 957 q 642 931 658 931 l 197 931 l 197 549 l 415 549 q 441 536 432 549 q 450 507 450 524 q 442 482 450 494 q 415 469 433 469 l 197 469 l 197 85 l 642 85 q 667 72 658 85 q 676 42 676 60 q 668 13 676 26 q 642 0 660 0 l 147 0 m 475 1176 q 439 1192 454 1176 q 424 1228 424 1207 q 439 1264 424 1250 q 475 1278 454 1278 q 511 1264 497 1278 q 525 1228 525 1250 q 511 1192 525 1207 q 475 1176 497 1176 m 304 1176 q 267 1192 282 1176 q 253 1228 253 1207 q 267 1264 253 1250 q 304 1278 282 1278 q 340 1264 325 1278 q 354 1228 354 1250 q 340 1192 354 1207 q 304 1176 325 1176 z "},"Ė":{"ha":706,"x_min":106,"x_max":676,"o":"m 147 0 q 119 9 132 0 q 106 36 106 18 l 106 981 q 119 1006 106 997 q 147 1015 132 1015 l 642 1015 q 668 1002 660 1015 q 676 975 676 989 q 667 944 676 957 q 642 931 658 931 l 197 931 l 197 549 l 415 549 q 441 536 432 549 q 450 507 450 524 q 442 482 450 494 q 415 469 433 469 l 197 469 l 197 85 l 642 85 q 667 72 658 85 q 676 42 676 60 q 668 13 676 26 q 642 0 660 0 l 147 0 m 394 1178 q 355 1194 371 1178 q 339 1233 339 1211 q 355 1272 339 1256 q 394 1288 371 1288 q 433 1272 417 1288 q 449 1233 449 1256 q 433 1194 449 1211 q 394 1178 417 1178 z "},"È":{"ha":706,"x_min":106,"x_max":676,"o":"m 147 0 q 119 9 132 0 q 106 36 106 18 l 106 981 q 119 1006 106 997 q 147 1015 132 1015 l 642 1015 q 668 1002 660 1015 q 676 975 676 989 q 667 944 676 957 q 642 931 658 931 l 197 931 l 197 549 l 415 549 q 441 536 432 549 q 450 507 450 524 q 442 482 450 494 q 415 469 433 469 l 197 469 l 197 85 l 642 85 q 667 72 658 85 q 676 42 676 60 q 668 13 676 26 q 642 0 660 0 l 147 0 m 451 1174 q 444 1175 449 1174 q 438 1178 440 1176 l 290 1257 q 272 1288 272 1267 q 282 1314 272 1301 q 306 1326 292 1326 q 318 1322 311 1326 l 472 1238 q 488 1213 488 1231 q 477 1186 488 1199 q 451 1174 467 1174 z "},"Ē":{"ha":706,"x_min":106,"x_max":676,"o":"m 147 0 q 119 9 132 0 q 106 36 106 18 l 106 981 q 119 1006 106 997 q 147 1015 132 1015 l 642 1015 q 668 1002 660 1015 q 676 975 676 989 q 667 944 676 957 q 642 931 658 931 l 197 931 l 197 549 l 415 549 q 441 536 432 549 q 450 507 450 524 q 442 482 450 494 q 415 469 433 469 l 197 469 l 197 85 l 642 85 q 667 72 658 85 q 676 42 676 60 q 668 13 676 26 q 642 0 660 0 l 147 0 z "},"Ę":{"ha":706,"x_min":106,"x_max":676,"o":"m 147 0 q 119 9 132 0 q 106 36 106 18 l 106 981 q 119 1006 106 997 q 147 1015 132 1015 l 642 1015 q 668 1002 660 1015 q 676 975 676 989 q 667 944 676 957 q 642 931 658 931 l 197 931 l 197 549 l 415 549 q 441 536 432 549 q 450 507 450 524 q 442 482 450 494 q 415 469 433 469 l 197 469 l 197 85 l 642 85 q 667 72 658 85 q 676 42 676 60 q 668 13 676 26 q 642 0 660 0 l 147 0 m 635 -279 q 569 -269 600 -279 q 519 -235 539 -258 q 500 -175 500 -212 q 531 -64 500 -115 q 613 29 563 -12 l 658 6 q 585 -75 615 -32 q 556 -168 556 -118 q 578 -215 556 -201 q 642 -229 601 -229 q 662 -236 654 -229 q 669 -256 669 -243 q 662 -273 669 -267 q 635 -279 654 -279 z "},"F":{"ha":689,"x_min":106,"x_max":674,"o":"m 151 0 q 119 8 133 0 q 106 35 106 17 l 106 981 q 119 1006 106 997 q 147 1015 132 1015 l 639 1015 q 665 1002 657 1015 q 674 975 674 989 q 665 944 674 957 q 639 931 656 931 l 197 931 l 197 549 l 417 549 q 441 536 432 549 q 450 507 450 524 q 442 482 450 494 q 417 469 435 469 l 197 469 l 197 35 q 183 8 197 17 q 151 0 168 0 z "},"G":{"ha":753,"x_min":96,"x_max":674,"o":"m 383 -8 q 238 21 303 -8 q 134 115 172 50 q 96 289 96 181 l 96 719 q 134 892 96 826 q 237 986 172 957 q 382 1015 301 1015 q 536 984 471 1015 q 638 899 601 953 q 674 775 674 844 q 661 738 674 749 q 628 728 649 728 q 597 736 610 728 q 582 763 583 744 q 551 854 575 817 q 486 911 528 892 q 383 931 444 931 q 239 879 290 931 q 188 719 188 828 l 188 289 q 239 128 188 181 q 383 76 290 76 q 529 128 476 76 q 582 289 582 181 l 582 454 l 396 454 q 370 467 379 454 q 361 494 361 479 q 370 521 361 508 q 396 533 379 533 l 639 533 q 665 523 656 533 q 674 497 674 513 l 674 289 q 635 115 674 181 q 531 21 596 50 q 383 -8 465 -8 z "},"Ğ":{"ha":753,"x_min":96,"x_max":674,"o":"m 383 -8 q 238 21 303 -8 q 134 115 172 50 q 96 289 96 181 l 96 719 q 134 892 96 826 q 237 986 172 957 q 382 1015 301 1015 q 536 984 471 1015 q 638 899 601 953 q 674 775 674 844 q 661 738 674 749 q 628 728 649 728 q 597 736 610 728 q 582 763 583 744 q 551 854 575 817 q 486 911 528 892 q 383 931 444 931 q 239 879 290 931 q 188 719 188 828 l 188 289 q 239 128 188 181 q 383 76 290 76 q 529 128 476 76 q 582 289 582 181 l 582 454 l 396 454 q 370 467 379 454 q 361 494 361 479 q 370 521 361 508 q 396 533 379 533 l 639 533 q 665 523 656 533 q 674 497 674 513 l 674 289 q 635 115 674 181 q 531 21 596 50 q 383 -8 465 -8 m 386 1182 q 283 1221 329 1182 q 226 1315 238 1260 q 231 1337 224 1329 q 251 1344 239 1344 l 261 1344 q 278 1338 272 1344 q 288 1319 285 1331 q 324 1257 296 1282 q 386 1232 351 1232 q 449 1257 421 1232 q 483 1319 476 1282 q 492 1338 486 1331 q 510 1344 499 1344 l 519 1344 q 540 1336 532 1344 q 546 1315 547 1328 q 488 1221 533 1260 q 386 1182 442 1182 z "},"Ĝ":{"ha":753,"x_min":96,"x_max":674,"o":"m 383 -8 q 238 21 303 -8 q 134 115 172 50 q 96 289 96 181 l 96 719 q 134 892 96 826 q 237 986 172 957 q 382 1015 301 1015 q 536 984 471 1015 q 638 899 601 953 q 674 775 674 844 q 661 738 674 749 q 628 728 649 728 q 597 736 610 728 q 582 763 583 744 q 551 854 575 817 q 486 911 528 892 q 383 931 444 931 q 239 879 290 931 q 188 719 188 828 l 188 289 q 239 128 188 181 q 383 76 290 76 q 529 128 476 76 q 582 289 582 181 l 582 454 l 396 454 q 370 467 379 454 q 361 494 361 479 q 370 521 361 508 q 396 533 379 533 l 639 533 q 665 523 656 533 q 674 497 674 513 l 674 289 q 635 115 674 181 q 531 21 596 50 q 383 -8 465 -8 m 228 1175 q 208 1186 217 1175 q 199 1211 199 1197 q 203 1228 199 1219 q 217 1242 208 1236 l 361 1319 q 385 1326 374 1326 q 408 1319 397 1326 l 553 1242 q 567 1228 563 1238 q 571 1210 571 1219 q 563 1186 571 1196 q 543 1176 554 1176 q 536 1178 540 1176 q 529 1181 532 1179 l 385 1257 l 240 1179 q 234 1176 238 1178 q 228 1175 231 1175 z "},"Ģ":{"ha":753,"x_min":96,"x_max":674,"o":"m 383 -8 q 238 21 303 -8 q 134 115 172 50 q 96 289 96 181 l 96 719 q 134 892 96 826 q 237 986 172 957 q 382 1015 301 1015 q 536 984 471 1015 q 638 899 601 953 q 674 775 674 844 q 661 738 674 749 q 628 728 649 728 q 597 736 610 728 q 582 763 583 744 q 551 854 575 817 q 486 911 528 892 q 383 931 444 931 q 239 879 290 931 q 188 719 188 828 l 188 289 q 239 128 188 181 q 383 76 290 76 q 529 128 476 76 q 582 289 582 181 l 582 454 l 396 454 q 370 467 379 454 q 361 494 361 479 q 370 521 361 508 q 396 533 379 533 l 639 533 q 665 523 656 533 q 674 497 674 513 l 674 289 q 635 115 674 181 q 531 21 596 50 q 383 -8 465 -8 m 304 -219 q 280 -207 290 -219 q 269 -181 269 -194 q 285 -154 269 -162 l 439 -69 q 451 -67 446 -67 q 476 -79 467 -67 q 485 -106 485 -92 q 467 -136 485 -126 l 319 -215 q 312 -218 315 -217 q 304 -219 308 -219 z "},"Ġ":{"ha":753,"x_min":96,"x_max":674,"o":"m 383 -8 q 238 21 303 -8 q 134 115 172 50 q 96 289 96 181 l 96 719 q 134 892 96 826 q 237 986 172 957 q 382 1015 301 1015 q 536 984 471 1015 q 638 899 601 953 q 674 775 674 844 q 661 738 674 749 q 628 728 649 728 q 597 736 610 728 q 582 763 583 744 q 551 854 575 817 q 486 911 528 892 q 383 931 444 931 q 239 879 290 931 q 188 719 188 828 l 188 289 q 239 128 188 181 q 383 76 290 76 q 529 128 476 76 q 582 289 582 181 l 582 454 l 396 454 q 370 467 379 454 q 361 494 361 479 q 370 521 361 508 q 396 533 379 533 l 639 533 q 665 523 656 533 q 674 497 674 513 l 674 289 q 635 115 674 181 q 531 21 596 50 q 383 -8 465 -8 m 390 1178 q 351 1194 367 1178 q 335 1233 335 1211 q 351 1272 335 1256 q 390 1288 367 1288 q 428 1272 413 1288 q 444 1233 444 1256 q 428 1194 444 1211 q 390 1178 413 1178 z "},"H":{"ha":796,"x_min":106,"x_max":690,"o":"m 151 0 q 119 9 133 0 q 106 36 106 18 l 106 982 q 119 1007 106 999 q 151 1015 133 1015 q 183 1007 168 1015 q 197 982 197 999 l 197 567 l 599 567 l 599 982 q 613 1007 599 999 q 644 1015 626 1015 q 676 1007 661 1015 q 690 982 690 999 l 690 36 q 676 9 690 18 q 644 0 661 0 q 613 9 626 0 q 599 36 599 18 l 599 488 l 197 488 l 197 36 q 183 9 197 18 q 151 0 168 0 z "},"Ħ":{"ha":797,"x_min":28,"x_max":769,"o":"m 151 0 q 120 9 135 0 q 106 36 106 18 l 106 750 l 58 750 q 36 760 44 750 q 28 785 28 771 q 36 810 28 800 q 58 821 44 821 l 106 821 l 106 982 q 120 1007 106 999 q 151 1015 135 1015 q 183 1007 169 1015 q 197 982 197 999 l 197 821 l 599 821 l 599 982 q 613 1007 599 999 q 644 1015 628 1015 q 676 1007 663 1015 q 690 982 690 999 l 690 821 l 738 821 q 760 810 751 821 q 769 785 769 800 q 760 760 769 771 q 738 750 751 750 l 690 750 l 690 36 q 676 9 690 18 q 644 0 663 0 q 613 9 628 0 q 599 36 599 18 l 599 488 l 197 488 l 197 36 q 183 9 197 18 q 151 0 169 0 m 197 567 l 599 567 l 599 750 l 197 750 l 197 567 z "},"Ĥ":{"ha":796,"x_min":106,"x_max":690,"o":"m 151 0 q 119 9 133 0 q 106 36 106 18 l 106 982 q 119 1007 106 999 q 151 1015 133 1015 q 183 1007 168 1015 q 197 982 197 999 l 197 567 l 599 567 l 599 982 q 613 1007 599 999 q 644 1015 626 1015 q 676 1007 661 1015 q 690 982 690 999 l 690 36 q 676 9 690 18 q 644 0 661 0 q 613 9 626 0 q 599 36 599 18 l 599 488 l 197 488 l 197 36 q 183 9 197 18 q 151 0 168 0 m 242 1175 q 222 1186 231 1175 q 213 1211 213 1197 q 217 1228 213 1219 q 231 1242 222 1236 l 375 1319 q 399 1326 388 1326 q 422 1319 411 1326 l 567 1242 q 581 1228 576 1238 q 585 1210 585 1219 q 576 1186 585 1196 q 557 1176 568 1176 q 550 1178 554 1176 q 543 1181 546 1179 l 399 1257 l 254 1179 q 248 1176 251 1178 q 242 1175 244 1175 z "},"I":{"ha":303,"x_min":106,"x_max":197,"o":"m 151 0 q 119 9 133 0 q 106 36 106 18 l 106 982 q 119 1007 106 999 q 151 1015 133 1015 q 183 1007 168 1015 q 197 982 197 999 l 197 36 q 183 9 197 18 q 151 0 168 0 z "},"Ĳ":{"ha":1010,"x_min":106,"x_max":910,"o":"m 151 0 q 119 9 133 0 q 106 36 106 18 l 106 982 q 119 1007 106 999 q 151 1015 133 1015 q 183 1007 168 1015 q 197 982 197 999 l 197 36 q 183 9 197 18 q 151 0 168 0 m 624 -8 q 469 23 535 -8 q 368 110 404 54 q 332 236 332 165 q 344 274 332 264 q 378 283 356 283 q 409 275 394 283 q 424 247 424 267 q 449 157 425 196 q 517 97 472 118 q 621 76 561 76 q 766 128 714 76 q 818 289 818 181 l 818 931 l 622 931 q 598 944 607 931 q 589 975 589 957 q 597 1002 589 989 q 622 1015 604 1015 l 868 1015 q 897 1006 883 1015 q 910 981 910 997 l 910 289 q 872 115 910 181 q 769 21 833 50 q 624 -8 704 -8 z "},"Í":{"ha":303,"x_min":56,"x_max":271,"o":"m 151 0 q 119 9 133 0 q 106 36 106 18 l 106 982 q 119 1007 106 999 q 151 1015 133 1015 q 183 1007 168 1015 q 197 982 197 999 l 197 36 q 183 9 197 18 q 151 0 168 0 m 92 1174 q 67 1186 78 1174 q 56 1213 56 1199 q 71 1238 56 1231 l 226 1322 q 238 1326 233 1326 q 262 1314 253 1326 q 271 1288 271 1301 q 254 1257 271 1267 l 106 1178 q 99 1175 103 1176 q 92 1174 94 1174 z "},"Ĭ":{"ha":303,"x_min":-11,"x_max":313,"o":"m 151 0 q 119 9 133 0 q 106 36 106 18 l 106 982 q 119 1007 106 999 q 151 1015 133 1015 q 183 1007 168 1015 q 197 982 197 999 l 197 36 q 183 9 197 18 q 151 0 168 0 m 151 1182 q 49 1221 94 1182 q -8 1315 3 1260 q -3 1337 -11 1329 q 17 1344 4 1344 l 26 1344 q 44 1338 38 1344 q 53 1319 50 1331 q 89 1257 61 1282 q 151 1232 117 1232 q 214 1257 186 1232 q 249 1319 242 1282 q 258 1338 251 1331 q 275 1344 264 1344 l 285 1344 q 305 1336 297 1344 q 311 1315 313 1328 q 253 1221 299 1260 q 151 1182 207 1182 z "},"Î":{"ha":303,"x_min":-35,"x_max":338,"o":"m 151 0 q 119 9 133 0 q 106 36 106 18 l 106 982 q 119 1007 106 999 q 151 1015 133 1015 q 183 1007 168 1015 q 197 982 197 999 l 197 36 q 183 9 197 18 q 151 0 168 0 m -6 1175 q -26 1186 -17 1175 q -35 1211 -35 1197 q -30 1228 -35 1219 q -17 1242 -25 1236 l 128 1319 q 151 1326 140 1326 q 175 1319 164 1326 l 319 1242 q 333 1228 329 1238 q 338 1210 338 1219 q 329 1186 338 1196 q 310 1176 321 1176 q 303 1178 307 1176 q 296 1181 299 1179 l 151 1257 l 7 1179 q 1 1176 4 1178 q -6 1175 -3 1175 z "},"Ï":{"ha":303,"x_min":15,"x_max":286,"o":"m 151 0 q 119 9 133 0 q 106 36 106 18 l 106 982 q 119 1007 106 999 q 151 1015 133 1015 q 183 1007 168 1015 q 197 982 197 999 l 197 36 q 183 9 197 18 q 151 0 168 0 m 238 1176 q 201 1192 217 1176 q 186 1228 186 1207 q 201 1264 186 1250 q 238 1278 217 1278 q 274 1264 260 1278 q 288 1228 288 1250 q 274 1192 288 1207 q 238 1176 260 1176 m 67 1176 q 30 1192 44 1176 q 15 1228 15 1207 q 30 1264 15 1250 q 67 1278 44 1278 q 102 1264 88 1278 q 117 1228 117 1250 q 102 1192 117 1207 q 67 1176 88 1176 z "},"İ":{"ha":303,"x_min":100,"x_max":210,"o":"m 151 0 q 119 9 133 0 q 106 36 106 18 l 106 982 q 119 1007 106 999 q 151 1015 133 1015 q 183 1007 168 1015 q 197 982 197 999 l 197 36 q 183 9 197 18 q 151 0 168 0 m 156 1178 q 116 1194 132 1178 q 100 1233 100 1211 q 116 1272 100 1256 q 156 1288 132 1288 q 194 1272 178 1288 q 210 1233 210 1256 q 194 1194 210 1211 q 156 1178 178 1178 z "},"Ì":{"ha":303,"x_min":33,"x_max":249,"o":"m 151 0 q 119 9 133 0 q 106 36 106 18 l 106 982 q 119 1007 106 999 q 151 1015 133 1015 q 183 1007 168 1015 q 197 982 197 999 l 197 36 q 183 9 197 18 q 151 0 168 0 m 213 1174 q 206 1175 210 1174 q 199 1178 201 1176 l 51 1257 q 33 1288 33 1267 q 43 1314 33 1301 q 67 1326 53 1326 q 79 1322 72 1326 l 233 1238 q 249 1213 249 1231 q 238 1186 249 1199 q 213 1174 228 1174 z "},"Ī":{"ha":303,"x_min":-33,"x_max":335,"o":"m 151 0 q 119 9 133 0 q 106 36 106 18 l 106 982 q 119 1007 106 999 q 151 1015 133 1015 q 183 1007 168 1015 q 197 982 197 999 l 197 36 q 183 9 197 18 q 151 0 168 0 z "},"Į":{"ha":303,"x_min":24,"x_max":197,"o":"m 151 0 q 119 9 133 0 q 106 36 106 18 l 106 982 q 119 1007 106 999 q 151 1015 133 1015 q 183 1007 168 1015 q 197 982 197 999 l 197 36 q 183 9 197 18 q 151 0 168 0 m 158 -274 q 93 -263 124 -274 q 43 -230 63 -253 q 24 -169 24 -207 q 55 -58 24 -110 q 136 35 86 -7 l 182 11 q 109 -69 139 -26 q 79 -162 79 -112 q 102 -210 79 -196 q 165 -224 125 -224 q 185 -231 178 -224 q 193 -250 193 -237 q 185 -267 193 -261 q 158 -274 178 -274 z "},"Ĩ":{"ha":303,"x_min":-65,"x_max":365,"o":"m 151 0 q 119 9 133 0 q 106 36 106 18 l 106 982 q 119 1007 106 999 q 151 1015 133 1015 q 183 1007 168 1015 q 197 982 197 999 l 197 36 q 183 9 197 18 q 151 0 168 0 m 249 1199 q 183 1211 211 1199 q 128 1235 156 1224 q 64 1247 101 1247 q 16 1236 35 1247 q -15 1214 -3 1225 q -39 1203 -26 1203 q -53 1208 -47 1203 q -62 1222 -58 1214 q -65 1238 -65 1231 q -53 1272 -65 1257 q -21 1297 -40 1286 q 20 1312 -1 1307 q 57 1317 42 1317 q 122 1306 94 1317 q 176 1282 149 1294 q 240 1269 204 1269 q 288 1280 271 1269 q 315 1300 304 1290 q 338 1310 325 1310 q 353 1304 347 1310 q 363 1292 360 1299 q 365 1278 365 1285 q 353 1241 365 1256 q 322 1217 340 1226 q 283 1203 303 1207 q 249 1199 264 1199 z "},"J":{"ha":707,"x_min":29,"x_max":607,"o":"m 321 -8 q 167 23 232 -8 q 65 110 101 54 q 29 236 29 165 q 41 274 29 264 q 75 283 53 283 q 106 275 92 283 q 121 247 121 267 q 146 157 122 196 q 214 97 169 118 q 318 76 258 76 q 463 128 411 76 q 515 289 515 181 l 515 931 l 319 931 q 295 944 304 931 q 286 975 286 957 q 294 1002 286 989 q 319 1015 301 1015 l 565 1015 q 594 1006 581 1015 q 607 981 607 997 l 607 289 q 569 115 607 181 q 466 21 531 50 q 321 -8 401 -8 z "},"Ĵ":{"ha":707,"x_min":29,"x_max":607,"o":"m 321 -8 q 167 23 232 -8 q 65 110 101 54 q 29 236 29 165 q 41 274 29 264 q 75 283 53 283 q 106 275 92 283 q 121 247 121 267 q 146 157 122 196 q 214 97 169 118 q 318 76 258 76 q 463 128 411 76 q 515 289 515 181 l 515 931 l 319 931 q 295 944 304 931 q 286 975 286 957 q 294 1002 286 989 q 319 1015 301 1015 l 565 1015 q 594 1006 581 1015 q 607 981 607 997 l 607 289 q 569 115 607 181 q 466 21 531 50 q 321 -8 401 -8 m 197 1175 q 177 1186 186 1175 q 168 1211 168 1197 q 173 1228 168 1219 q 186 1242 178 1236 l 331 1319 q 354 1326 343 1326 q 378 1319 367 1326 l 522 1242 q 536 1228 532 1238 q 540 1210 540 1219 q 532 1186 540 1196 q 513 1176 524 1176 q 506 1178 510 1176 q 499 1181 501 1179 l 354 1257 l 210 1179 q 203 1176 207 1178 q 197 1175 200 1175 z "},"K":{"ha":726,"x_min":106,"x_max":719,"o":"m 151 0 q 119 9 133 0 q 106 36 106 18 l 106 982 q 119 1008 106 1000 q 151 1015 133 1015 q 183 1008 168 1015 q 197 982 197 1000 l 197 490 l 599 1001 q 628 1015 608 1015 q 651 1008 639 1015 q 670 991 663 1001 q 678 968 678 981 q 676 958 678 964 q 671 947 675 951 l 372 576 l 714 63 q 719 44 719 54 q 712 22 719 32 q 692 5 704 11 q 667 -1 681 -1 q 648 3 657 -1 q 632 18 639 8 l 311 500 l 197 356 l 197 36 q 183 9 197 18 q 151 0 168 0 z "},"Ķ":{"ha":726,"x_min":106,"x_max":719,"o":"m 151 0 q 119 9 133 0 q 106 36 106 18 l 106 982 q 119 1008 106 1000 q 151 1015 133 1015 q 183 1008 168 1015 q 197 982 197 1000 l 197 490 l 599 1001 q 628 1015 608 1015 q 651 1008 639 1015 q 670 991 663 1001 q 678 968 678 981 q 676 958 678 964 q 671 947 675 951 l 372 576 l 714 63 q 719 44 719 54 q 712 22 719 32 q 692 5 704 11 q 667 -1 681 -1 q 648 3 657 -1 q 632 18 639 8 l 311 500 l 197 356 l 197 36 q 183 9 197 18 q 151 0 168 0 m 290 -219 q 266 -207 276 -219 q 256 -181 256 -194 q 271 -154 256 -162 l 425 -69 q 438 -67 432 -67 q 462 -79 453 -67 q 471 -106 471 -92 q 453 -136 471 -126 l 306 -215 q 298 -218 301 -217 q 290 -219 294 -219 z "},"L":{"ha":642,"x_min":106,"x_max":624,"o":"m 147 0 q 119 9 132 0 q 106 36 106 18 l 106 982 q 119 1008 106 1000 q 151 1015 133 1015 q 183 1008 168 1015 q 197 982 197 1000 l 197 85 l 593 85 q 617 72 610 85 q 624 43 624 58 q 617 13 624 26 q 593 0 610 0 l 147 0 z "},"Ĺ":{"ha":642,"x_min":106,"x_max":624,"o":"m 147 0 q 119 9 132 0 q 106 36 106 18 l 106 982 q 119 1008 106 1000 q 151 1015 133 1015 q 183 1008 168 1015 q 197 982 197 1000 l 197 85 l 593 85 q 617 72 610 85 q 624 43 624 58 q 617 13 624 26 q 593 0 610 0 l 147 0 m 290 1174 q 265 1186 276 1174 q 254 1213 254 1199 q 269 1238 254 1231 l 425 1322 q 436 1326 432 1326 q 460 1314 451 1326 q 469 1288 469 1301 q 453 1257 469 1267 l 304 1178 q 297 1175 301 1176 q 290 1174 293 1174 z "},"Ľ":{"ha":643,"x_min":106,"x_max":624,"o":"m 147 0 q 119 9 132 0 q 106 36 106 18 l 106 982 q 119 1008 106 1000 q 151 1015 133 1015 q 183 1008 168 1015 q 197 982 197 1000 l 197 85 l 593 85 q 617 72 610 85 q 624 43 624 58 q 617 13 624 26 q 593 0 610 0 l 147 0 m 454 792 q 432 799 443 792 q 421 821 421 807 q 424 833 421 828 l 450 906 q 420 928 432 913 q 408 965 408 944 q 426 1010 408 992 q 472 1029 444 1029 q 517 1010 499 1029 q 536 965 536 992 q 532 944 536 958 q 522 910 528 929 q 504 865 515 890 q 479 808 493 839 q 469 797 476 801 q 454 792 461 792 z "},"Ļ":{"ha":642,"x_min":106,"x_max":624,"o":"m 147 0 q 119 9 132 0 q 106 36 106 18 l 106 982 q 119 1008 106 1000 q 151 1015 133 1015 q 183 1008 168 1015 q 197 982 197 1000 l 197 85 l 593 85 q 617 72 610 85 q 624 43 624 58 q 617 13 624 26 q 593 0 610 0 l 147 0 m 276 -219 q 252 -207 263 -219 q 242 -181 242 -194 q 257 -154 242 -162 l 411 -69 q 424 -67 418 -67 q 448 -79 439 -67 q 457 -106 457 -92 q 439 -136 457 -126 l 292 -215 q 284 -218 288 -217 q 276 -219 281 -219 z "},"Ŀ":{"ha":643,"x_min":106,"x_max":624,"o":"m 147 0 q 119 9 132 0 q 106 36 106 18 l 106 982 q 119 1008 106 1000 q 151 1015 133 1015 q 183 1008 168 1015 q 197 982 197 1000 l 197 85 l 593 85 q 617 72 610 85 q 624 43 624 58 q 617 13 624 26 q 593 0 610 0 l 147 0 m 468 522 q 422 542 440 522 q 403 585 403 561 q 422 629 403 611 q 468 647 440 647 q 514 629 494 647 q 533 585 533 611 q 514 542 533 561 q 468 522 494 522 z "},"Ł":{"ha":650,"x_min":3,"x_max":632,"o":"m 156 0 q 127 9 140 0 q 114 36 114 18 l 114 404 l 53 368 q 39 364 46 364 q 14 378 25 364 q 3 408 3 393 q 7 424 3 417 q 18 435 11 431 l 114 488 l 114 982 q 128 1008 114 1000 q 160 1015 142 1015 q 191 1008 176 1015 q 206 982 206 1000 l 206 533 l 340 611 q 354 614 346 614 q 373 608 365 614 q 385 593 381 603 q 390 574 390 583 q 375 544 390 553 l 206 451 l 206 85 l 601 85 q 625 72 618 85 q 632 43 632 58 q 625 13 632 26 q 601 0 618 0 l 156 0 z "},"M":{"ha":928,"x_min":106,"x_max":822,"o":"m 151 0 q 119 9 133 0 q 106 36 106 18 l 106 971 q 119 1006 106 996 q 151 1015 133 1015 q 181 1006 168 1015 q 206 983 194 997 q 225 951 217 968 l 464 490 l 703 951 q 723 983 713 968 q 747 1006 733 997 q 776 1015 761 1015 q 809 1006 796 1015 q 822 971 822 996 l 822 36 q 808 9 822 18 q 776 0 794 0 q 745 9 760 0 q 731 36 731 18 l 731 817 l 500 381 q 482 358 492 365 q 463 351 472 351 q 444 358 454 351 q 426 381 435 364 l 197 821 l 197 36 q 183 9 197 18 q 151 0 168 0 z "},"N":{"ha":796,"x_min":106,"x_max":690,"o":"m 151 0 q 119 9 133 0 q 106 36 106 18 l 106 981 q 119 1008 106 1000 q 151 1015 133 1015 q 181 1006 168 1015 q 204 983 193 997 q 224 951 215 969 l 599 213 l 599 982 q 613 1008 599 1000 q 644 1015 626 1015 q 676 1008 661 1015 q 690 982 690 1000 l 690 36 q 676 9 690 18 q 644 0 661 0 q 610 17 625 0 q 583 53 594 33 l 197 804 l 197 36 q 183 9 197 18 q 151 0 168 0 z "},"Ń":{"ha":796,"x_min":106,"x_max":690,"o":"m 151 0 q 119 9 133 0 q 106 36 106 18 l 106 981 q 119 1008 106 1000 q 151 1015 133 1015 q 181 1006 168 1015 q 204 983 193 997 q 224 951 215 969 l 599 213 l 599 982 q 613 1008 599 1000 q 644 1015 626 1015 q 676 1008 661 1015 q 690 982 690 1000 l 690 36 q 676 9 690 18 q 644 0 661 0 q 610 17 625 0 q 583 53 594 33 l 197 804 l 197 36 q 183 9 197 18 q 151 0 168 0 m 339 1174 q 314 1186 325 1174 q 303 1213 303 1199 q 318 1238 303 1231 l 474 1322 q 485 1326 481 1326 q 509 1314 500 1326 q 518 1288 518 1301 q 501 1257 518 1267 l 353 1178 q 346 1175 350 1176 q 339 1174 342 1174 z "},"Ň":{"ha":796,"x_min":106,"x_max":690,"o":"m 151 0 q 119 9 133 0 q 106 36 106 18 l 106 981 q 119 1008 106 1000 q 151 1015 133 1015 q 181 1006 168 1015 q 204 983 193 997 q 224 951 215 969 l 599 213 l 599 982 q 613 1008 599 1000 q 644 1015 626 1015 q 676 1008 661 1015 q 690 982 690 1000 l 690 36 q 676 9 690 18 q 644 0 661 0 q 610 17 625 0 q 583 53 594 33 l 197 804 l 197 36 q 183 9 197 18 q 151 0 168 0 m 399 1167 q 371 1181 383 1167 l 231 1306 q 217 1320 221 1313 q 213 1338 213 1328 q 220 1358 213 1349 q 239 1368 228 1368 q 260 1360 250 1368 l 399 1232 l 536 1360 q 557 1368 546 1368 q 576 1358 569 1368 q 583 1338 583 1349 q 579 1320 583 1328 q 567 1306 575 1313 l 426 1181 q 399 1167 411 1167 z "},"Ņ":{"ha":796,"x_min":106,"x_max":690,"o":"m 151 0 q 119 9 133 0 q 106 36 106 18 l 106 981 q 119 1008 106 1000 q 151 1015 133 1015 q 181 1006 168 1015 q 204 983 193 997 q 224 951 215 969 l 599 213 l 599 982 q 613 1008 599 1000 q 644 1015 626 1015 q 676 1008 661 1015 q 690 982 690 1000 l 690 36 q 676 9 690 18 q 644 0 661 0 q 610 17 625 0 q 583 53 594 33 l 197 804 l 197 36 q 183 9 197 18 q 151 0 168 0 m 325 -219 q 301 -207 311 -219 q 290 -181 290 -194 q 306 -154 290 -162 l 460 -69 q 472 -67 467 -67 q 497 -79 488 -67 q 506 -106 506 -92 q 488 -136 506 -126 l 340 -215 q 333 -218 336 -217 q 325 -219 329 -219 z "},"Ŋ":{"ha":796,"x_min":106,"x_max":690,"o":"m 508 -322 q 472 -310 483 -322 q 461 -282 461 -297 q 473 -251 461 -262 q 500 -240 485 -240 q 565 -217 544 -240 q 593 -152 586 -193 q 600 -60 600 -111 l 600 3 q 597 24 600 13 q 583 53 593 36 l 197 804 l 197 36 q 183 9 197 18 q 151 0 168 0 q 119 9 133 0 q 106 36 106 18 l 106 981 q 119 1008 106 1000 q 151 1015 133 1015 q 181 1006 168 1015 q 204 983 193 997 q 224 951 215 969 l 599 213 l 599 982 q 613 1008 599 1000 q 644 1015 626 1015 q 676 1008 661 1015 q 690 982 690 1000 l 690 -60 q 672 -196 690 -136 q 613 -289 653 -256 q 508 -322 574 -322 z "},"Ñ":{"ha":796,"x_min":106,"x_max":690,"o":"m 151 0 q 119 9 133 0 q 106 36 106 18 l 106 981 q 119 1008 106 1000 q 151 1015 133 1015 q 181 1006 168 1015 q 204 983 193 997 q 224 951 215 969 l 599 213 l 599 982 q 613 1008 599 1000 q 644 1015 626 1015 q 676 1008 661 1015 q 690 982 690 1000 l 690 36 q 676 9 690 18 q 644 0 661 0 q 610 17 625 0 q 583 53 594 33 l 197 804 l 197 36 q 183 9 197 18 q 151 0 168 0 m 496 1199 q 431 1211 458 1199 q 376 1235 403 1224 q 311 1247 349 1247 q 263 1236 282 1247 q 233 1214 244 1225 q 208 1203 221 1203 q 194 1208 200 1203 q 185 1222 189 1214 q 182 1238 182 1231 q 194 1272 182 1257 q 226 1297 207 1286 q 267 1312 246 1307 q 304 1317 289 1317 q 369 1306 342 1317 q 424 1282 396 1294 q 488 1269 451 1269 q 535 1280 518 1269 q 562 1300 551 1290 q 585 1310 572 1310 q 601 1304 594 1310 q 610 1292 607 1299 q 613 1278 613 1285 q 600 1241 613 1256 q 569 1217 588 1226 q 531 1203 550 1207 q 496 1199 511 1199 z "},"O":{"ha":768,"x_min":96,"x_max":674,"o":"m 383 -8 q 238 21 303 -8 q 134 115 172 50 q 96 289 96 181 l 96 719 q 134 892 96 826 q 237 986 172 957 q 383 1015 301 1015 q 531 986 465 1015 q 635 892 596 957 q 674 719 674 826 l 674 289 q 635 115 674 181 q 531 21 596 50 q 383 -8 465 -8 m 383 76 q 529 128 476 76 q 582 289 582 179 l 582 719 q 529 879 582 828 q 383 931 476 931 q 239 879 290 931 q 188 719 188 828 l 188 289 q 239 128 188 179 q 383 76 290 76 z "},"Ó":{"ha":768,"x_min":96,"x_max":674,"o":"m 383 -8 q 238 21 303 -8 q 134 115 172 50 q 96 289 96 181 l 96 719 q 134 892 96 826 q 237 986 172 957 q 383 1015 301 1015 q 531 986 465 1015 q 635 892 596 957 q 674 719 674 826 l 674 289 q 635 115 674 181 q 531 21 596 50 q 383 -8 465 -8 m 383 76 q 529 128 476 76 q 582 289 582 179 l 582 719 q 529 879 582 828 q 383 931 476 931 q 239 879 290 931 q 188 719 188 828 l 188 289 q 239 128 188 179 q 383 76 290 76 m 325 1174 q 300 1186 311 1174 q 289 1213 289 1199 q 304 1238 289 1231 l 460 1322 q 471 1326 467 1326 q 495 1314 486 1326 q 504 1288 504 1301 q 488 1257 504 1267 l 339 1178 q 332 1175 336 1176 q 325 1174 328 1174 z "},"Ŏ":{"ha":768,"x_min":96,"x_max":674,"o":"m 383 -8 q 238 21 303 -8 q 134 115 172 50 q 96 289 96 181 l 96 719 q 134 892 96 826 q 237 986 172 957 q 383 1015 301 1015 q 531 986 465 1015 q 635 892 596 957 q 674 719 674 826 l 674 289 q 635 115 674 181 q 531 21 596 50 q 383 -8 465 -8 m 383 76 q 529 128 476 76 q 582 289 582 179 l 582 719 q 529 879 582 828 q 383 931 476 931 q 239 879 290 931 q 188 719 188 828 l 188 289 q 239 128 188 179 q 383 76 290 76 m 385 1182 q 282 1221 328 1182 q 225 1315 236 1260 q 230 1337 222 1329 q 250 1344 238 1344 l 260 1344 q 277 1338 271 1344 q 286 1319 283 1331 q 322 1257 294 1282 q 385 1232 350 1232 q 447 1257 419 1232 q 482 1319 475 1282 q 491 1338 485 1331 q 508 1344 497 1344 l 518 1344 q 538 1336 531 1344 q 544 1315 546 1328 q 486 1221 532 1260 q 385 1182 440 1182 z "},"Ô":{"ha":768,"x_min":96,"x_max":674,"o":"m 383 -8 q 238 21 303 -8 q 134 115 172 50 q 96 289 96 181 l 96 719 q 134 892 96 826 q 237 986 172 957 q 383 1015 301 1015 q 531 986 465 1015 q 635 892 596 957 q 674 719 674 826 l 674 289 q 635 115 674 181 q 531 21 596 50 q 383 -8 465 -8 m 383 76 q 529 128 476 76 q 582 289 582 179 l 582 719 q 529 879 582 828 q 383 931 476 931 q 239 879 290 931 q 188 719 188 828 l 188 289 q 239 128 188 179 q 383 76 290 76 m 228 1175 q 208 1186 217 1175 q 199 1211 199 1197 q 203 1228 199 1219 q 217 1242 208 1236 l 361 1319 q 385 1326 374 1326 q 408 1319 397 1326 l 553 1242 q 567 1228 563 1238 q 571 1210 571 1219 q 563 1186 571 1196 q 543 1176 554 1176 q 536 1178 540 1176 q 529 1181 532 1179 l 385 1257 l 240 1179 q 234 1176 238 1178 q 228 1175 231 1175 z "},"Ö":{"ha":768,"x_min":96,"x_max":674,"o":"m 383 -8 q 238 21 303 -8 q 134 115 172 50 q 96 289 96 181 l 96 719 q 134 892 96 826 q 237 986 172 957 q 383 1015 301 1015 q 531 986 465 1015 q 635 892 596 957 q 674 719 674 826 l 674 289 q 635 115 674 181 q 531 21 596 50 q 383 -8 465 -8 m 383 76 q 529 128 476 76 q 582 289 582 179 l 582 719 q 529 879 582 828 q 383 931 476 931 q 239 879 290 931 q 188 719 188 828 l 188 289 q 239 128 188 179 q 383 76 290 76 m 471 1176 q 435 1192 450 1176 q 419 1228 419 1207 q 435 1264 419 1250 q 471 1278 450 1278 q 507 1264 493 1278 q 521 1228 521 1250 q 507 1192 521 1207 q 471 1176 493 1176 m 300 1176 q 263 1192 278 1176 q 249 1228 249 1207 q 263 1264 249 1250 q 300 1278 278 1278 q 335 1264 321 1278 q 350 1228 350 1250 q 335 1192 350 1207 q 300 1176 321 1176 z "},"Ò":{"ha":768,"x_min":96,"x_max":674,"o":"m 383 -8 q 238 21 303 -8 q 134 115 172 50 q 96 289 96 181 l 96 719 q 134 892 96 826 q 237 986 172 957 q 383 1015 301 1015 q 531 986 465 1015 q 635 892 596 957 q 674 719 674 826 l 674 289 q 635 115 674 181 q 531 21 596 50 q 383 -8 465 -8 m 383 76 q 529 128 476 76 q 582 289 582 179 l 582 719 q 529 879 582 828 q 383 931 476 931 q 239 879 290 931 q 188 719 188 828 l 188 289 q 239 128 188 179 q 383 76 290 76 m 447 1174 q 440 1175 444 1174 q 433 1178 436 1176 l 286 1257 q 268 1288 268 1267 q 278 1314 268 1301 q 301 1326 288 1326 q 314 1322 307 1326 l 468 1238 q 483 1213 483 1231 q 473 1186 483 1199 q 447 1174 463 1174 z "},"Ő":{"ha":768,"x_min":96,"x_max":674,"o":"m 383 -8 q 238 21 303 -8 q 134 115 172 50 q 96 289 96 181 l 96 719 q 134 892 96 826 q 237 986 172 957 q 383 1015 301 1015 q 531 986 465 1015 q 635 892 596 957 q 674 719 674 826 l 674 289 q 635 115 674 181 q 531 21 596 50 q 383 -8 465 -8 m 383 76 q 529 128 476 76 q 582 289 582 179 l 582 719 q 529 879 582 828 q 383 931 476 931 q 239 879 290 931 q 188 719 188 828 l 188 289 q 239 128 188 179 q 383 76 290 76 z "},"Ō":{"ha":768,"x_min":96,"x_max":674,"o":"m 383 -8 q 238 21 303 -8 q 134 115 172 50 q 96 289 96 181 l 96 719 q 134 892 96 826 q 237 986 172 957 q 383 1015 301 1015 q 531 986 465 1015 q 635 892 596 957 q 674 719 674 826 l 674 289 q 635 115 674 181 q 531 21 596 50 q 383 -8 465 -8 m 383 76 q 529 128 476 76 q 582 289 582 179 l 582 719 q 529 879 582 828 q 383 931 476 931 q 239 879 290 931 q 188 719 188 828 l 188 289 q 239 128 188 179 q 383 76 290 76 z "},"Ø":{"ha":768,"x_min":88,"x_max":688,"o":"m 383 -8 q 238 21 303 -8 q 134 115 172 50 q 96 289 96 181 l 96 719 q 134 892 96 826 q 237 986 172 957 q 383 1015 301 1015 q 531 986 465 1015 q 635 892 596 957 q 674 719 674 826 l 674 289 q 635 115 674 181 q 531 21 596 50 q 383 -8 465 -8 m 383 76 q 529 128 476 76 q 582 289 582 179 l 582 719 q 529 879 582 828 q 383 931 476 931 q 239 879 290 931 q 188 719 188 828 l 188 289 q 239 128 188 179 q 383 76 290 76 m 124 -37 q 98 -28 108 -37 q 88 -4 88 -18 q 92 13 88 6 l 621 1050 q 649 1067 629 1067 q 675 1056 663 1067 q 688 1029 688 1046 q 683 1011 688 1019 l 157 -18 q 142 -33 151 -28 q 124 -37 133 -37 z "},"Ǿ":{"ha":768,"x_min":88,"x_max":688,"o":"m 383 -8 q 238 21 303 -8 q 134 115 172 50 q 96 289 96 181 l 96 719 q 134 892 96 826 q 237 986 172 957 q 383 1015 301 1015 q 531 986 465 1015 q 635 892 596 957 q 674 719 674 826 l 674 289 q 635 115 674 181 q 531 21 596 50 q 383 -8 465 -8 m 383 76 q 529 128 476 76 q 582 289 582 179 l 582 719 q 529 879 582 828 q 383 931 476 931 q 239 879 290 931 q 188 719 188 828 l 188 289 q 239 128 188 179 q 383 76 290 76 m 124 -37 q 98 -28 108 -37 q 88 -4 88 -18 q 92 13 88 6 l 621 1050 q 649 1067 629 1067 q 675 1056 663 1067 q 688 1029 688 1046 q 683 1011 688 1019 l 157 -18 q 142 -33 151 -28 q 124 -37 133 -37 m 325 1174 q 300 1186 311 1174 q 289 1213 289 1199 q 304 1238 289 1231 l 460 1322 q 471 1326 467 1326 q 495 1314 486 1326 q 504 1288 504 1301 q 488 1257 504 1267 l 339 1178 q 332 1175 336 1176 q 325 1174 328 1174 z "},"Õ":{"ha":768,"x_min":96,"x_max":674,"o":"m 383 -8 q 238 21 303 -8 q 134 115 172 50 q 96 289 96 181 l 96 719 q 134 892 96 826 q 237 986 172 957 q 383 1015 301 1015 q 531 986 465 1015 q 635 892 596 957 q 674 719 674 826 l 674 289 q 635 115 674 181 q 531 21 596 50 q 383 -8 465 -8 m 383 76 q 529 128 476 76 q 582 289 582 179 l 582 719 q 529 879 582 828 q 383 931 476 931 q 239 879 290 931 q 188 719 188 828 l 188 289 q 239 128 188 179 q 383 76 290 76 m 483 1199 q 418 1211 446 1199 q 363 1235 390 1224 q 299 1247 336 1247 q 251 1236 269 1247 q 220 1214 232 1225 q 196 1203 208 1203 q 182 1208 188 1203 q 173 1222 176 1214 q 169 1238 169 1231 q 182 1272 169 1257 q 214 1297 194 1286 q 255 1312 233 1307 q 292 1317 276 1317 q 356 1306 329 1317 q 411 1282 383 1294 q 475 1269 439 1269 q 522 1280 506 1269 q 549 1300 539 1290 q 572 1310 560 1310 q 588 1304 582 1310 q 597 1292 594 1299 q 600 1278 600 1285 q 588 1241 600 1256 q 556 1217 575 1226 q 518 1203 538 1207 q 483 1199 499 1199 z "},"Œ":{"ha":1167,"x_min":96,"x_max":1138,"o":"m 374 -8 q 232 21 294 -8 q 133 115 169 50 q 96 289 96 181 l 96 719 q 133 892 96 826 q 232 986 169 957 q 374 1015 294 1015 q 498 991 439 1015 q 590 915 557 967 l 590 981 q 603 1006 590 997 q 632 1015 617 1015 l 1103 1015 q 1129 1002 1121 1015 q 1138 975 1138 989 q 1128 944 1138 957 q 1103 931 1119 931 l 672 931 l 672 549 l 876 549 q 902 536 893 549 q 911 507 911 524 q 903 482 911 494 q 876 469 894 469 l 672 469 l 672 85 l 1103 85 q 1128 72 1119 85 q 1138 42 1138 60 q 1129 13 1138 26 q 1103 0 1121 0 l 632 0 q 603 9 617 0 q 590 36 590 18 l 590 93 q 498 16 557 40 q 374 -8 439 -8 m 383 76 q 529 128 476 76 q 582 289 582 179 l 582 719 q 529 879 582 828 q 383 931 476 931 q 240 879 292 931 q 188 719 188 828 l 188 289 q 240 128 188 179 q 383 76 292 76 z "},"P":{"ha":732,"x_min":106,"x_max":686,"o":"m 151 0 q 119 9 133 0 q 106 36 106 18 l 106 982 q 116 1005 106 996 q 144 1015 126 1014 l 400 1015 q 546 986 481 1015 q 649 892 611 957 q 686 721 686 828 l 686 707 q 648 534 686 599 q 544 440 610 469 q 397 411 478 411 l 197 411 l 197 36 q 183 9 197 18 q 151 0 168 0 m 197 490 l 397 490 q 542 542 490 490 q 594 703 594 594 l 594 719 q 542 879 594 828 q 397 931 490 931 l 197 931 l 197 490 z "},"Þ":{"ha":688,"x_min":106,"x_max":628,"o":"m 150 0 q 119 11 132 0 q 106 36 106 22 l 106 989 q 118 1013 106 1004 q 149 1021 131 1021 q 183 1012 169 1021 q 196 988 196 1003 l 196 754 q 267 828 219 797 q 388 860 315 860 q 506 833 451 860 q 594 757 561 807 q 628 636 628 707 l 628 413 q 594 292 628 343 q 506 213 560 242 q 394 185 453 185 q 311 199 353 185 q 239 239 269 214 q 196 294 208 264 l 196 36 q 183 11 196 22 q 150 0 169 0 m 372 268 q 452 285 414 268 q 514 333 490 301 q 538 413 538 365 l 538 636 q 514 713 538 682 q 453 760 490 744 q 372 776 415 776 q 285 759 326 776 q 220 710 244 742 q 196 636 196 679 l 196 407 q 219 344 196 376 q 281 290 242 313 q 372 268 321 268 z "},"Q":{"ha":768,"x_min":96,"x_max":674,"o":"m 385 -151 q 360 -142 371 -151 q 349 -115 349 -133 l 349 -6 q 219 31 276 0 q 128 124 161 61 q 96 289 96 188 l 96 719 q 134 892 96 828 q 238 986 172 957 q 383 1015 303 1015 q 531 986 465 1015 q 635 892 596 957 q 674 719 674 828 l 674 289 q 640 124 674 188 q 550 31 607 61 q 419 -6 493 0 l 419 -115 q 409 -142 419 -133 q 385 -151 399 -151 m 349 81 l 349 183 q 360 209 349 201 q 385 217 371 217 q 409 209 399 217 q 419 183 419 201 l 419 81 q 539 141 496 90 q 582 289 582 192 l 582 719 q 529 879 582 828 q 383 931 476 931 q 239 879 290 931 q 188 719 188 828 l 188 289 q 230 140 188 192 q 349 81 272 89 z "},"R":{"ha":733,"x_min":106,"x_max":689,"o":"m 636 -1 q 608 14 621 -1 q 589 46 596 29 l 374 463 l 197 463 l 197 36 q 183 9 197 18 q 151 0 168 0 q 119 9 133 0 q 106 36 106 18 l 106 982 q 115 1005 106 996 q 140 1015 125 1014 l 386 1015 q 536 990 468 1015 q 645 906 604 965 q 686 742 686 847 q 658 600 686 656 q 580 515 629 544 q 469 474 531 485 l 683 63 q 688 53 688 58 q 689 44 689 49 q 681 22 689 33 q 661 5 674 11 q 636 -1 649 -1 m 197 542 l 386 542 q 537 587 479 542 q 594 738 594 632 q 537 886 594 842 q 386 931 479 931 l 197 931 l 197 542 z "},"Ŕ":{"ha":733,"x_min":106,"x_max":689,"o":"m 636 -1 q 608 14 621 -1 q 589 46 596 29 l 374 463 l 197 463 l 197 36 q 183 9 197 18 q 151 0 168 0 q 119 9 133 0 q 106 36 106 18 l 106 982 q 115 1005 106 996 q 140 1015 125 1014 l 386 1015 q 536 990 468 1015 q 645 906 604 965 q 686 742 686 847 q 658 600 686 656 q 580 515 629 544 q 469 474 531 485 l 683 63 q 688 53 688 58 q 689 44 689 49 q 681 22 689 33 q 661 5 674 11 q 636 -1 649 -1 m 197 542 l 386 542 q 537 587 479 542 q 594 738 594 632 q 537 886 594 842 q 386 931 479 931 l 197 931 l 197 542 m 328 1174 q 303 1186 314 1174 q 292 1213 292 1199 q 307 1238 292 1231 l 463 1322 q 474 1326 469 1326 q 498 1314 489 1326 q 507 1288 507 1301 q 490 1257 507 1267 l 342 1178 q 335 1175 339 1176 q 328 1174 331 1174 z "},"Ř":{"ha":733,"x_min":106,"x_max":689,"o":"m 636 -1 q 608 14 621 -1 q 589 46 596 29 l 374 463 l 197 463 l 197 36 q 183 9 197 18 q 151 0 168 0 q 119 9 133 0 q 106 36 106 18 l 106 982 q 115 1005 106 996 q 140 1015 125 1014 l 386 1015 q 536 990 468 1015 q 645 906 604 965 q 686 742 686 847 q 658 600 686 656 q 580 515 629 544 q 469 474 531 485 l 683 63 q 688 53 688 58 q 689 44 689 49 q 681 22 689 33 q 661 5 674 11 q 636 -1 649 -1 m 197 542 l 386 542 q 537 587 479 542 q 594 738 594 632 q 537 886 594 842 q 386 931 479 931 l 197 931 l 197 542 m 389 1167 q 361 1181 374 1167 l 221 1306 q 207 1320 211 1313 q 203 1338 203 1328 q 210 1358 203 1349 q 229 1368 218 1368 q 250 1360 240 1368 l 389 1232 l 526 1360 q 547 1368 536 1368 q 567 1358 560 1368 q 574 1338 574 1349 q 569 1320 574 1328 q 557 1306 565 1313 l 417 1181 q 389 1167 401 1167 z "},"Ŗ":{"ha":733,"x_min":106,"x_max":689,"o":"m 636 -1 q 608 14 621 -1 q 589 46 596 29 l 374 463 l 197 463 l 197 36 q 183 9 197 18 q 151 0 168 0 q 119 9 133 0 q 106 36 106 18 l 106 982 q 115 1005 106 996 q 140 1015 125 1014 l 386 1015 q 536 990 468 1015 q 645 906 604 965 q 686 742 686 847 q 658 600 686 656 q 580 515 629 544 q 469 474 531 485 l 683 63 q 688 53 688 58 q 689 44 689 49 q 681 22 689 33 q 661 5 674 11 q 636 -1 649 -1 m 197 542 l 386 542 q 537 587 479 542 q 594 738 594 632 q 537 886 594 842 q 386 931 479 931 l 197 931 l 197 542 m 281 -219 q 256 -207 267 -219 q 246 -181 246 -194 q 261 -154 246 -162 l 415 -69 q 428 -67 422 -67 q 452 -79 443 -67 q 461 -106 461 -92 q 443 -136 461 -126 l 296 -215 q 288 -218 292 -217 q 281 -219 285 -219 z "},"S":{"ha":686,"x_min":50,"x_max":628,"o":"m 335 -10 q 182 17 246 -10 q 84 80 118 44 q 50 140 50 115 q 56 164 50 151 q 72 184 63 176 q 92 192 82 192 q 120 174 106 192 q 159 134 135 157 q 224 94 183 111 q 329 76 264 76 q 441 98 394 76 q 512 162 488 119 q 536 268 536 204 q 511 376 536 335 q 445 442 486 417 q 356 487 404 468 q 258 524 307 506 q 167 572 208 543 q 101 647 126 600 q 75 765 75 693 q 103 890 75 842 q 174 967 131 939 q 269 1006 218 994 q 369 1018 321 1018 q 449 1012 408 1018 q 525 994 490 1006 q 581 968 560 983 q 603 933 603 953 q 598 912 603 924 q 585 891 593 900 q 563 882 576 882 q 528 895 550 882 q 467 922 506 908 q 368 935 429 935 q 272 920 318 935 q 196 871 225 906 q 167 774 167 836 q 192 684 167 718 q 259 629 218 650 q 349 591 300 608 q 447 552 397 574 q 537 498 496 531 q 603 413 578 465 q 628 276 628 360 q 590 115 628 178 q 487 21 553 51 q 335 -10 421 -10 z "},"Ś":{"ha":686,"x_min":50,"x_max":628,"o":"m 335 -10 q 182 17 246 -10 q 84 80 118 44 q 50 140 50 115 q 56 164 50 151 q 72 184 63 176 q 92 192 82 192 q 120 174 106 192 q 159 134 135 157 q 224 94 183 111 q 329 76 264 76 q 441 98 394 76 q 512 162 488 119 q 536 268 536 204 q 511 376 536 335 q 445 442 486 417 q 356 487 404 468 q 258 524 307 506 q 167 572 208 543 q 101 647 126 600 q 75 765 75 693 q 103 890 75 842 q 174 967 131 939 q 269 1006 218 994 q 369 1018 321 1018 q 449 1012 408 1018 q 525 994 490 1006 q 581 968 560 983 q 603 933 603 953 q 598 912 603 924 q 585 891 593 900 q 563 882 576 882 q 528 895 550 882 q 467 922 506 908 q 368 935 429 935 q 272 920 318 935 q 196 871 225 906 q 167 774 167 836 q 192 684 167 718 q 259 629 218 650 q 349 591 300 608 q 447 552 397 574 q 537 498 496 531 q 603 413 578 465 q 628 276 628 360 q 590 115 628 178 q 487 21 553 51 q 335 -10 421 -10 m 283 1174 q 258 1186 269 1174 q 247 1213 247 1199 q 263 1238 247 1231 l 418 1322 q 429 1326 425 1326 q 453 1314 444 1326 q 463 1288 463 1301 q 446 1257 463 1267 l 297 1178 q 290 1175 294 1176 q 283 1174 286 1174 z "},"Š":{"ha":686,"x_min":50,"x_max":628,"o":"m 335 -10 q 182 17 246 -10 q 84 80 118 44 q 50 140 50 115 q 56 164 50 151 q 72 184 63 176 q 92 192 82 192 q 120 174 106 192 q 159 134 135 157 q 224 94 183 111 q 329 76 264 76 q 441 98 394 76 q 512 162 488 119 q 536 268 536 204 q 511 376 536 335 q 445 442 486 417 q 356 487 404 468 q 258 524 307 506 q 167 572 208 543 q 101 647 126 600 q 75 765 75 693 q 103 890 75 842 q 174 967 131 939 q 269 1006 218 994 q 369 1018 321 1018 q 449 1012 408 1018 q 525 994 490 1006 q 581 968 560 983 q 603 933 603 953 q 598 912 603 924 q 585 891 593 900 q 563 882 576 882 q 528 895 550 882 q 467 922 506 908 q 368 935 429 935 q 272 920 318 935 q 196 871 225 906 q 167 774 167 836 q 192 684 167 718 q 259 629 218 650 q 349 591 300 608 q 447 552 397 574 q 537 498 496 531 q 603 413 578 465 q 628 276 628 360 q 590 115 628 178 q 487 21 553 51 q 335 -10 421 -10 m 344 1167 q 317 1181 329 1167 l 176 1306 q 163 1320 167 1313 q 158 1338 158 1328 q 166 1358 158 1349 q 185 1368 174 1368 q 206 1360 196 1368 l 344 1232 l 482 1360 q 503 1368 492 1368 q 522 1358 515 1368 q 529 1338 529 1349 q 525 1320 529 1328 q 513 1306 521 1313 l 372 1181 q 344 1167 357 1167 z "},"Ş":{"ha":686,"x_min":50,"x_max":628,"o":"m 335 -10 q 182 17 246 -10 q 84 80 118 44 q 50 140 50 115 q 56 164 50 151 q 72 184 63 176 q 92 192 82 192 q 120 174 106 192 q 159 134 135 157 q 224 94 183 111 q 329 76 264 76 q 441 98 394 76 q 512 162 488 119 q 536 268 536 204 q 511 376 536 335 q 445 442 486 417 q 356 487 404 468 q 258 524 307 506 q 167 572 208 543 q 101 647 126 600 q 75 765 75 693 q 103 890 75 842 q 174 967 131 939 q 269 1006 218 994 q 369 1018 321 1018 q 449 1012 408 1018 q 525 994 490 1006 q 581 968 560 983 q 603 933 603 953 q 598 912 603 924 q 585 891 593 900 q 563 882 576 882 q 528 895 550 882 q 467 922 506 908 q 368 935 429 935 q 272 920 318 935 q 196 871 225 906 q 167 774 167 836 q 192 684 167 718 q 259 629 218 650 q 349 591 300 608 q 447 552 397 574 q 537 498 496 531 q 603 413 578 465 q 628 276 628 360 q 590 115 628 178 q 487 21 553 51 q 335 -10 421 -10 m 386 -292 q 342 -287 367 -292 q 297 -276 317 -283 q 278 -256 278 -268 q 281 -243 278 -251 q 288 -228 283 -235 q 300 -222 293 -222 q 326 -231 308 -222 q 378 -240 343 -240 q 435 -225 418 -240 q 451 -187 451 -210 q 428 -145 451 -158 q 364 -129 404 -132 l 311 -125 l 347 13 l 403 13 l 376 -83 q 478 -116 447 -86 q 510 -185 510 -146 q 497 -233 510 -208 q 456 -275 483 -258 q 386 -292 428 -292 z "},"Ŝ":{"ha":686,"x_min":50,"x_max":628,"o":"m 335 -10 q 182 17 246 -10 q 84 80 118 44 q 50 140 50 115 q 56 164 50 151 q 72 184 63 176 q 92 192 82 192 q 120 174 106 192 q 159 134 135 157 q 224 94 183 111 q 329 76 264 76 q 441 98 394 76 q 512 162 488 119 q 536 268 536 204 q 511 376 536 335 q 445 442 486 417 q 356 487 404 468 q 258 524 307 506 q 167 572 208 543 q 101 647 126 600 q 75 765 75 693 q 103 890 75 842 q 174 967 131 939 q 269 1006 218 994 q 369 1018 321 1018 q 449 1012 408 1018 q 525 994 490 1006 q 581 968 560 983 q 603 933 603 953 q 598 912 603 924 q 585 891 593 900 q 563 882 576 882 q 528 895 550 882 q 467 922 506 908 q 368 935 429 935 q 272 920 318 935 q 196 871 225 906 q 167 774 167 836 q 192 684 167 718 q 259 629 218 650 q 349 591 300 608 q 447 552 397 574 q 537 498 496 531 q 603 413 578 465 q 628 276 628 360 q 590 115 628 178 q 487 21 553 51 q 335 -10 421 -10 m 188 1175 q 167 1186 176 1175 q 158 1211 158 1197 q 163 1228 158 1219 q 176 1242 168 1236 l 321 1319 q 344 1326 333 1326 q 368 1319 357 1326 l 513 1242 q 526 1228 522 1238 q 531 1210 531 1219 q 522 1186 531 1196 q 503 1176 514 1176 q 496 1178 500 1176 q 489 1181 492 1179 l 344 1257 l 200 1179 q 194 1176 197 1178 q 188 1175 190 1175 z "},"Ș":{"ha":686,"x_min":50,"x_max":628,"o":"m 335 -10 q 182 17 246 -10 q 84 80 118 44 q 50 140 50 115 q 56 164 50 151 q 72 184 63 176 q 92 192 82 192 q 120 174 106 192 q 159 134 135 157 q 224 94 183 111 q 329 76 264 76 q 441 98 394 76 q 512 162 488 119 q 536 268 536 204 q 511 376 536 335 q 445 442 486 417 q 356 487 404 468 q 258 524 307 506 q 167 572 208 543 q 101 647 126 600 q 75 765 75 693 q 103 890 75 842 q 174 967 131 939 q 269 1006 218 994 q 369 1018 321 1018 q 449 1012 408 1018 q 525 994 490 1006 q 581 968 560 983 q 603 933 603 953 q 598 912 603 924 q 585 891 593 900 q 563 882 576 882 q 528 895 550 882 q 467 922 506 908 q 368 935 429 935 q 272 920 318 935 q 196 871 225 906 q 167 774 167 836 q 192 684 167 718 q 259 629 218 650 q 349 591 300 608 q 447 552 397 574 q 537 498 496 531 q 603 413 578 465 q 628 276 628 360 q 590 115 628 178 q 487 21 553 51 q 335 -10 421 -10 m 297 -219 q 273 -207 283 -219 q 263 -181 263 -194 q 278 -154 263 -162 l 432 -69 q 444 -67 439 -67 q 469 -79 460 -67 q 478 -106 478 -92 q 460 -136 478 -126 l 313 -215 q 305 -218 308 -217 q 297 -219 301 -219 z "},"T":{"ha":663,"x_min":18,"x_max":644,"o":"m 332 0 q 300 9 314 0 q 286 36 286 18 l 286 929 l 53 929 q 27 942 36 929 q 18 972 18 956 q 27 1002 18 989 q 53 1015 36 1015 l 610 1015 q 636 1003 628 1015 q 644 974 644 990 q 636 943 644 957 q 610 929 628 929 l 378 929 l 378 36 q 363 9 378 18 q 332 0 349 0 z "},"Ŧ":{"ha":667,"x_min":19,"x_max":647,"o":"m 333 0 q 302 9 317 0 q 288 36 288 18 l 288 469 l 110 469 q 87 481 96 469 q 78 507 78 493 q 87 533 78 521 q 110 544 96 544 l 288 544 l 288 929 l 54 929 q 29 942 39 929 q 19 972 19 956 q 28 1002 19 989 q 54 1015 38 1015 l 613 1015 q 639 1003 631 1015 q 647 974 647 990 q 639 943 647 957 q 613 929 631 929 l 379 929 l 379 544 l 556 544 q 580 533 572 544 q 588 508 588 522 q 581 481 588 493 q 556 469 574 469 l 379 469 l 379 36 q 365 9 379 18 q 333 0 351 0 z "},"Ť":{"ha":663,"x_min":18,"x_max":644,"o":"m 332 0 q 300 9 314 0 q 286 36 286 18 l 286 929 l 53 929 q 27 942 36 929 q 18 972 18 956 q 27 1002 18 989 q 53 1015 36 1015 l 610 1015 q 636 1003 628 1015 q 644 974 644 990 q 636 943 644 957 q 610 929 628 929 l 378 929 l 378 36 q 363 9 378 18 q 332 0 349 0 m 332 1167 q 304 1181 317 1167 l 164 1306 q 150 1320 154 1313 q 146 1338 146 1328 q 153 1358 146 1349 q 172 1368 161 1368 q 193 1360 183 1368 l 332 1232 l 469 1360 q 490 1368 479 1368 q 510 1358 503 1368 q 517 1338 517 1349 q 513 1320 517 1328 q 500 1306 508 1313 l 360 1181 q 332 1167 344 1167 z "},"Ţ":{"ha":663,"x_min":18,"x_max":644,"o":"m 332 0 q 300 9 314 0 q 286 36 286 18 l 286 929 l 53 929 q 27 942 36 929 q 18 972 18 956 q 27 1002 18 989 q 53 1015 36 1015 l 610 1015 q 636 1003 628 1015 q 644 974 644 990 q 636 943 644 957 q 610 929 628 929 l 378 929 l 378 36 q 363 9 378 18 q 332 0 349 0 m 258 -219 q 234 -207 244 -219 q 224 -181 224 -194 q 239 -154 224 -162 l 393 -69 q 406 -67 400 -67 q 430 -79 421 -67 q 439 -106 439 -92 q 421 -136 439 -126 l 274 -215 q 266 -218 269 -217 q 258 -219 263 -219 z "},"U":{"ha":782,"x_min":100,"x_max":682,"o":"m 390 -8 q 243 21 308 -8 q 139 115 178 50 q 100 289 100 181 l 100 982 q 114 1007 100 999 q 146 1015 128 1015 q 178 1007 164 1015 q 192 982 192 999 l 192 289 q 244 128 192 179 q 390 76 297 76 q 538 128 485 76 q 590 289 590 179 l 590 982 q 604 1007 590 999 q 636 1015 618 1015 q 668 1007 654 1015 q 682 982 682 999 l 682 289 q 644 115 682 181 q 539 21 606 50 q 390 -8 472 -8 z "},"Ú":{"ha":782,"x_min":100,"x_max":682,"o":"m 390 -8 q 243 21 308 -8 q 139 115 178 50 q 100 289 100 181 l 100 982 q 114 1007 100 999 q 146 1015 128 1015 q 178 1007 164 1015 q 192 982 192 999 l 192 289 q 244 128 192 179 q 390 76 297 76 q 538 128 485 76 q 590 289 590 179 l 590 982 q 604 1007 590 999 q 636 1015 618 1015 q 668 1007 654 1015 q 682 982 682 999 l 682 289 q 644 115 682 181 q 539 21 606 50 q 390 -8 472 -8 m 332 1174 q 307 1186 318 1174 q 296 1213 296 1199 q 311 1238 296 1231 l 467 1322 q 478 1326 474 1326 q 502 1314 493 1326 q 511 1288 511 1301 q 494 1257 511 1267 l 346 1178 q 339 1175 343 1176 q 332 1174 335 1174 z "},"Ŭ":{"ha":782,"x_min":100,"x_max":682,"o":"m 390 -8 q 243 21 308 -8 q 139 115 178 50 q 100 289 100 181 l 100 982 q 114 1007 100 999 q 146 1015 128 1015 q 178 1007 164 1015 q 192 982 192 999 l 192 289 q 244 128 192 179 q 390 76 297 76 q 538 128 485 76 q 590 289 590 179 l 590 982 q 604 1007 590 999 q 636 1015 618 1015 q 668 1007 654 1015 q 682 982 682 999 l 682 289 q 644 115 682 181 q 539 21 606 50 q 390 -8 472 -8 m 392 1182 q 289 1221 335 1182 q 232 1315 243 1260 q 237 1337 229 1329 q 257 1344 244 1344 l 267 1344 q 284 1338 278 1344 q 293 1319 290 1331 q 329 1257 301 1282 q 392 1232 357 1232 q 454 1257 426 1232 q 489 1319 482 1282 q 498 1338 492 1331 q 515 1344 504 1344 l 525 1344 q 545 1336 538 1344 q 551 1315 553 1328 q 493 1221 539 1260 q 392 1182 447 1182 z "},"Û":{"ha":782,"x_min":100,"x_max":682,"o":"m 390 -8 q 243 21 308 -8 q 139 115 178 50 q 100 289 100 181 l 100 982 q 114 1007 100 999 q 146 1015 128 1015 q 178 1007 164 1015 q 192 982 192 999 l 192 289 q 244 128 192 179 q 390 76 297 76 q 538 128 485 76 q 590 289 590 179 l 590 982 q 604 1007 590 999 q 636 1015 618 1015 q 668 1007 654 1015 q 682 982 682 999 l 682 289 q 644 115 682 181 q 539 21 606 50 q 390 -8 472 -8 m 235 1175 q 215 1186 224 1175 q 206 1211 206 1197 q 210 1228 206 1219 q 224 1242 215 1236 l 368 1319 q 392 1326 381 1326 q 415 1319 404 1326 l 560 1242 q 574 1228 569 1238 q 578 1210 578 1219 q 569 1186 578 1196 q 550 1176 561 1176 q 543 1178 547 1176 q 536 1181 539 1179 l 392 1257 l 247 1179 q 241 1176 244 1178 q 235 1175 238 1175 z "},"Ü":{"ha":782,"x_min":100,"x_max":682,"o":"m 390 -8 q 243 21 308 -8 q 139 115 178 50 q 100 289 100 181 l 100 982 q 114 1007 100 999 q 146 1015 128 1015 q 178 1007 164 1015 q 192 982 192 999 l 192 289 q 244 128 192 179 q 390 76 297 76 q 538 128 485 76 q 590 289 590 179 l 590 982 q 604 1007 590 999 q 636 1015 618 1015 q 668 1007 654 1015 q 682 982 682 999 l 682 289 q 644 115 682 181 q 539 21 606 50 q 390 -8 472 -8 m 478 1176 q 442 1192 457 1176 q 426 1228 426 1207 q 442 1264 426 1250 q 478 1278 457 1278 q 514 1264 500 1278 q 528 1228 528 1250 q 514 1192 528 1207 q 478 1176 500 1176 m 307 1176 q 270 1192 285 1176 q 256 1228 256 1207 q 270 1264 256 1250 q 307 1278 285 1278 q 342 1264 328 1278 q 357 1228 357 1250 q 342 1192 357 1207 q 307 1176 328 1176 z "},"Ù":{"ha":782,"x_min":100,"x_max":682,"o":"m 390 -8 q 243 21 308 -8 q 139 115 178 50 q 100 289 100 181 l 100 982 q 114 1007 100 999 q 146 1015 128 1015 q 178 1007 164 1015 q 192 982 192 999 l 192 289 q 244 128 192 179 q 390 76 297 76 q 538 128 485 76 q 590 289 590 179 l 590 982 q 604 1007 590 999 q 636 1015 618 1015 q 668 1007 654 1015 q 682 982 682 999 l 682 289 q 644 115 682 181 q 539 21 606 50 q 390 -8 472 -8 m 454 1174 q 447 1175 451 1174 q 440 1178 443 1176 l 293 1257 q 275 1288 275 1267 q 285 1314 275 1301 q 308 1326 294 1326 q 321 1322 314 1326 l 475 1238 q 490 1213 490 1231 q 480 1186 490 1199 q 454 1174 469 1174 z "},"Ű":{"ha":782,"x_min":100,"x_max":682,"o":"m 390 -8 q 243 21 308 -8 q 139 115 178 50 q 100 289 100 181 l 100 982 q 114 1007 100 999 q 146 1015 128 1015 q 178 1007 164 1015 q 192 982 192 999 l 192 289 q 244 128 192 179 q 390 76 297 76 q 538 128 485 76 q 590 289 590 179 l 590 982 q 604 1007 590 999 q 636 1015 618 1015 q 668 1007 654 1015 q 682 982 682 999 l 682 289 q 644 115 682 181 q 539 21 606 50 q 390 -8 472 -8 z "},"Ū":{"ha":782,"x_min":100,"x_max":682,"o":"m 390 -8 q 243 21 308 -8 q 139 115 178 50 q 100 289 100 181 l 100 982 q 114 1007 100 999 q 146 1015 128 1015 q 178 1007 164 1015 q 192 982 192 999 l 192 289 q 244 128 192 179 q 390 76 297 76 q 538 128 485 76 q 590 289 590 179 l 590 982 q 604 1007 590 999 q 636 1015 618 1015 q 668 1007 654 1015 q 682 982 682 999 l 682 289 q 644 115 682 181 q 539 21 606 50 q 390 -8 472 -8 z "},"Ų":{"ha":782,"x_min":100,"x_max":682,"o":"m 390 -8 q 243 21 308 -8 q 139 115 178 50 q 100 289 100 181 l 100 982 q 114 1007 100 999 q 146 1015 128 1015 q 178 1007 164 1015 q 192 982 192 999 l 192 289 q 244 128 192 179 q 390 76 297 76 q 538 128 485 76 q 590 289 590 179 l 590 982 q 604 1007 590 999 q 636 1015 618 1015 q 668 1007 654 1015 q 682 982 682 999 l 682 289 q 644 115 682 181 q 539 21 606 50 q 390 -8 472 -8 m 469 -279 q 404 -269 435 -279 q 354 -235 374 -258 q 335 -175 335 -212 q 366 -64 335 -115 q 447 29 397 -12 l 493 6 q 420 -75 450 -32 q 390 -168 390 -118 q 413 -215 390 -201 q 476 -229 436 -229 q 497 -236 489 -229 q 504 -256 504 -243 q 497 -273 504 -267 q 469 -279 489 -279 z "},"Ů":{"ha":782,"x_min":100,"x_max":682,"o":"m 390 -8 q 243 21 308 -8 q 139 115 178 50 q 100 289 100 181 l 100 982 q 114 1007 100 999 q 146 1015 128 1015 q 178 1007 164 1015 q 192 982 192 999 l 192 289 q 244 128 192 179 q 390 76 297 76 q 538 128 485 76 q 590 289 590 179 l 590 982 q 604 1007 590 999 q 636 1015 618 1015 q 668 1007 654 1015 q 682 982 682 999 l 682 289 q 644 115 682 181 q 539 21 606 50 q 390 -8 472 -8 z "},"Ũ":{"ha":782,"x_min":100,"x_max":682,"o":"m 390 -8 q 243 21 308 -8 q 139 115 178 50 q 100 289 100 181 l 100 982 q 114 1007 100 999 q 146 1015 128 1015 q 178 1007 164 1015 q 192 982 192 999 l 192 289 q 244 128 192 179 q 390 76 297 76 q 538 128 485 76 q 590 289 590 179 l 590 982 q 604 1007 590 999 q 636 1015 618 1015 q 668 1007 654 1015 q 682 982 682 999 l 682 289 q 644 115 682 181 q 539 21 606 50 q 390 -8 472 -8 m 490 1199 q 425 1211 453 1199 q 370 1235 397 1224 q 306 1247 343 1247 q 258 1236 276 1247 q 227 1214 239 1225 q 203 1203 215 1203 q 189 1208 194 1203 q 180 1222 183 1214 q 176 1238 176 1231 q 189 1272 176 1257 q 221 1297 201 1286 q 262 1312 240 1307 q 299 1317 283 1317 q 363 1306 336 1317 q 418 1282 390 1294 q 482 1269 446 1269 q 529 1280 513 1269 q 556 1300 546 1290 q 579 1310 567 1310 q 595 1304 589 1310 q 604 1292 601 1299 q 607 1278 607 1285 q 594 1241 607 1256 q 563 1217 582 1226 q 525 1203 544 1207 q 490 1199 506 1199 z "},"V":{"ha":746,"x_min":26,"x_max":719,"o":"m 374 -8 q 340 0 356 -8 q 319 25 324 8 l 28 967 q 26 976 26 971 q 35 997 26 989 q 56 1010 43 1006 q 81 1015 68 1015 q 103 1010 93 1015 q 117 992 113 1004 l 374 139 l 629 992 q 642 1010 633 1004 q 664 1015 651 1015 q 689 1010 676 1015 q 710 996 701 1004 q 719 975 719 988 q 719 972 719 974 q 717 967 718 969 l 429 25 q 408 0 424 8 q 374 -8 392 -8 z "},"W":{"ha":1089,"x_min":28,"x_max":1061,"o":"m 358 -8 q 325 0 340 -8 q 304 25 310 8 l 31 967 q 28 978 28 972 q 36 998 28 989 q 57 1011 44 1007 q 81 1015 69 1015 q 104 1010 93 1015 q 118 992 115 1004 l 358 139 l 496 657 q 515 682 501 675 q 546 689 529 689 q 575 682 563 689 q 592 657 588 675 l 732 139 l 971 992 q 985 1010 975 1004 q 1008 1015 996 1015 q 1033 1011 1022 1015 q 1053 998 1044 1007 q 1061 978 1061 989 q 1060 967 1061 972 l 788 25 q 767 0 782 8 q 732 -8 751 -8 q 698 0 714 -8 q 678 25 682 8 l 546 515 l 414 25 q 394 0 410 8 q 358 -8 378 -8 z "},"Ẃ":{"ha":1089,"x_min":28,"x_max":1061,"o":"m 358 -8 q 325 0 340 -8 q 304 25 310 8 l 31 967 q 28 978 28 972 q 36 998 28 989 q 57 1011 44 1007 q 81 1015 69 1015 q 104 1010 93 1015 q 118 992 115 1004 l 358 139 l 496 657 q 515 682 501 675 q 546 689 529 689 q 575 682 563 689 q 592 657 588 675 l 732 139 l 971 992 q 985 1010 975 1004 q 1008 1015 996 1015 q 1033 1011 1022 1015 q 1053 998 1044 1007 q 1061 978 1061 989 q 1060 967 1061 972 l 788 25 q 767 0 782 8 q 732 -8 751 -8 q 698 0 714 -8 q 678 25 682 8 l 546 515 l 414 25 q 394 0 410 8 q 358 -8 378 -8 m 485 1174 q 460 1186 471 1174 q 449 1213 449 1199 q 464 1238 449 1231 l 619 1322 q 631 1326 626 1326 q 655 1314 646 1326 q 664 1288 664 1301 q 647 1257 664 1267 l 499 1178 q 492 1175 496 1176 q 485 1174 488 1174 z "},"Ŵ":{"ha":1089,"x_min":28,"x_max":1061,"o":"m 358 -8 q 325 0 340 -8 q 304 25 310 8 l 31 967 q 28 978 28 972 q 36 998 28 989 q 57 1011 44 1007 q 81 1015 69 1015 q 104 1010 93 1015 q 118 992 115 1004 l 358 139 l 496 657 q 515 682 501 675 q 546 689 529 689 q 575 682 563 689 q 592 657 588 675 l 732 139 l 971 992 q 985 1010 975 1004 q 1008 1015 996 1015 q 1033 1011 1022 1015 q 1053 998 1044 1007 q 1061 978 1061 989 q 1060 967 1061 972 l 788 25 q 767 0 782 8 q 732 -8 751 -8 q 698 0 714 -8 q 678 25 682 8 l 546 515 l 414 25 q 394 0 410 8 q 358 -8 378 -8 m 389 1175 q 369 1186 378 1175 q 360 1211 360 1197 q 365 1228 360 1219 q 378 1242 369 1236 l 522 1319 q 546 1326 535 1326 q 569 1319 558 1326 l 714 1242 q 728 1228 724 1238 q 732 1210 732 1219 q 724 1186 732 1196 q 704 1176 715 1176 q 697 1178 701 1176 q 690 1181 693 1179 l 546 1257 l 401 1179 q 395 1176 399 1178 q 389 1175 392 1175 z "},"Ẅ":{"ha":1089,"x_min":28,"x_max":1061,"o":"m 358 -8 q 325 0 340 -8 q 304 25 310 8 l 31 967 q 28 978 28 972 q 36 998 28 989 q 57 1011 44 1007 q 81 1015 69 1015 q 104 1010 93 1015 q 118 992 115 1004 l 358 139 l 496 657 q 515 682 501 675 q 546 689 529 689 q 575 682 563 689 q 592 657 588 675 l 732 139 l 971 992 q 985 1010 975 1004 q 1008 1015 996 1015 q 1033 1011 1022 1015 q 1053 998 1044 1007 q 1061 978 1061 989 q 1060 967 1061 972 l 788 25 q 767 0 782 8 q 732 -8 751 -8 q 698 0 714 -8 q 678 25 682 8 l 546 515 l 414 25 q 394 0 410 8 q 358 -8 378 -8 m 631 1176 q 594 1192 610 1176 q 579 1228 579 1207 q 594 1264 579 1250 q 631 1278 610 1278 q 667 1264 653 1278 q 681 1228 681 1250 q 667 1192 681 1207 q 631 1176 653 1176 m 460 1176 q 423 1192 438 1176 q 408 1228 408 1207 q 423 1264 408 1250 q 460 1278 438 1278 q 495 1264 481 1278 q 510 1228 510 1250 q 495 1192 510 1207 q 460 1176 481 1176 z "},"Ẁ":{"ha":1089,"x_min":28,"x_max":1061,"o":"m 358 -8 q 325 0 340 -8 q 304 25 310 8 l 31 967 q 28 978 28 972 q 36 998 28 989 q 57 1011 44 1007 q 81 1015 69 1015 q 104 1010 93 1015 q 118 992 115 1004 l 358 139 l 496 657 q 515 682 501 675 q 546 689 529 689 q 575 682 563 689 q 592 657 588 675 l 732 139 l 971 992 q 985 1010 975 1004 q 1008 1015 996 1015 q 1033 1011 1022 1015 q 1053 998 1044 1007 q 1061 978 1061 989 q 1060 967 1061 972 l 788 25 q 767 0 782 8 q 732 -8 751 -8 q 698 0 714 -8 q 678 25 682 8 l 546 515 l 414 25 q 394 0 410 8 q 358 -8 378 -8 m 607 1174 q 600 1175 604 1174 q 593 1178 596 1176 l 446 1257 q 428 1288 428 1267 q 438 1314 428 1301 q 461 1326 447 1326 q 474 1322 467 1326 l 628 1238 q 643 1213 643 1231 q 633 1186 643 1199 q 607 1174 622 1174 z "},"X":{"ha":671,"x_min":32,"x_max":639,"o":"m 88 -1 q 62 5 75 -1 q 40 21 49 11 q 32 43 32 31 q 39 65 32 53 l 278 508 l 43 949 q 35 978 35 965 q 42 999 35 990 q 62 1013 50 1008 q 88 1018 74 1018 q 117 1003 106 1018 q 136 971 128 988 l 335 589 l 535 971 q 555 1003 543 988 q 583 1018 567 1018 q 609 1013 597 1018 q 628 999 621 1008 q 636 978 636 990 q 628 949 636 965 l 392 508 l 632 65 q 639 43 639 53 q 631 21 639 31 q 610 5 622 11 q 583 -1 597 -1 q 558 13 569 -1 q 540 42 547 28 l 335 431 l 131 42 q 113 13 124 28 q 88 -1 103 -1 z "},"Y":{"ha":735,"x_min":25,"x_max":710,"o":"m 367 0 q 335 9 350 0 q 321 36 321 18 l 321 389 q 319 400 321 396 l 32 951 q 26 966 28 960 q 25 976 25 972 q 33 997 25 989 q 52 1010 40 1006 q 75 1015 64 1015 q 95 1008 86 1015 q 111 988 104 1001 l 367 481 l 624 988 q 641 1008 632 1001 q 660 1015 650 1015 q 683 1010 672 1015 q 702 997 694 1006 q 710 976 710 989 q 708 966 710 972 q 704 951 707 960 l 415 400 q 413 389 413 396 l 413 36 q 399 9 413 18 q 367 0 385 0 z "},"Ý":{"ha":735,"x_min":25,"x_max":710,"o":"m 367 0 q 335 9 350 0 q 321 36 321 18 l 321 389 q 319 400 321 396 l 32 951 q 26 966 28 960 q 25 976 25 972 q 33 997 25 989 q 52 1010 40 1006 q 75 1015 64 1015 q 95 1008 86 1015 q 111 988 104 1001 l 367 481 l 624 988 q 641 1008 632 1001 q 660 1015 650 1015 q 683 1010 672 1015 q 702 997 694 1006 q 710 976 710 989 q 708 966 710 972 q 704 951 707 960 l 415 400 q 413 389 413 396 l 413 36 q 399 9 413 18 q 367 0 385 0 m 308 1174 q 283 1186 294 1174 q 272 1213 272 1199 q 288 1238 272 1231 l 443 1322 q 454 1326 450 1326 q 478 1314 469 1326 q 488 1288 488 1301 q 471 1257 488 1267 l 322 1178 q 315 1175 319 1176 q 308 1174 311 1174 z "},"Ŷ":{"ha":735,"x_min":25,"x_max":710,"o":"m 367 0 q 335 9 350 0 q 321 36 321 18 l 321 389 q 319 400 321 396 l 32 951 q 26 966 28 960 q 25 976 25 972 q 33 997 25 989 q 52 1010 40 1006 q 75 1015 64 1015 q 95 1008 86 1015 q 111 988 104 1001 l 367 481 l 624 988 q 641 1008 632 1001 q 660 1015 650 1015 q 683 1010 672 1015 q 702 997 694 1006 q 710 976 710 989 q 708 966 710 972 q 704 951 707 960 l 415 400 q 413 389 413 396 l 413 36 q 399 9 413 18 q 367 0 385 0 m 211 1175 q 191 1186 200 1175 q 182 1211 182 1197 q 187 1228 182 1219 q 200 1242 192 1236 l 344 1319 q 368 1326 357 1326 q 392 1319 381 1326 l 536 1242 q 550 1228 546 1238 q 554 1210 554 1219 q 546 1186 554 1196 q 526 1176 538 1176 q 519 1178 524 1176 q 513 1181 515 1179 l 368 1257 l 224 1179 q 217 1176 221 1178 q 211 1175 214 1175 z "},"Ÿ":{"ha":735,"x_min":25,"x_max":710,"o":"m 367 0 q 335 9 350 0 q 321 36 321 18 l 321 389 q 319 400 321 396 l 32 951 q 26 966 28 960 q 25 976 25 972 q 33 997 25 989 q 52 1010 40 1006 q 75 1015 64 1015 q 95 1008 86 1015 q 111 988 104 1001 l 367 481 l 624 988 q 641 1008 632 1001 q 660 1015 650 1015 q 683 1010 672 1015 q 702 997 694 1006 q 710 976 710 989 q 708 966 710 972 q 704 951 707 960 l 415 400 q 413 389 413 396 l 413 36 q 399 9 413 18 q 367 0 385 0 m 454 1176 q 418 1192 433 1176 q 403 1228 403 1207 q 418 1264 403 1250 q 454 1278 433 1278 q 490 1264 476 1278 q 504 1228 504 1250 q 490 1192 504 1207 q 454 1176 476 1176 m 283 1176 q 247 1192 261 1176 q 232 1228 232 1207 q 247 1264 232 1250 q 283 1278 261 1278 q 319 1264 304 1278 q 333 1228 333 1250 q 319 1192 333 1207 q 283 1176 304 1176 z "},"Ỳ":{"ha":735,"x_min":25,"x_max":710,"o":"m 367 0 q 335 9 350 0 q 321 36 321 18 l 321 389 q 319 400 321 396 l 32 951 q 26 966 28 960 q 25 976 25 972 q 33 997 25 989 q 52 1010 40 1006 q 75 1015 64 1015 q 95 1008 86 1015 q 111 988 104 1001 l 367 481 l 624 988 q 641 1008 632 1001 q 660 1015 650 1015 q 683 1010 672 1015 q 702 997 694 1006 q 710 976 710 989 q 708 966 710 972 q 704 951 707 960 l 415 400 q 413 389 413 396 l 413 36 q 399 9 413 18 q 367 0 385 0 m 431 1174 q 424 1175 428 1174 q 417 1178 419 1176 l 269 1257 q 251 1288 251 1267 q 261 1314 251 1301 q 285 1326 271 1326 q 297 1322 290 1326 l 451 1238 q 467 1213 467 1231 q 456 1186 467 1199 q 431 1174 446 1174 z "},"Z":{"ha":669,"x_min":32,"x_max":639,"o":"m 65 0 q 41 9 50 0 q 32 32 32 18 q 40 64 32 47 l 503 931 l 83 931 q 58 944 67 931 q 49 974 49 957 q 57 1002 49 989 q 83 1015 65 1015 l 588 1015 q 614 1007 606 1015 q 622 986 622 999 q 611 950 622 969 l 150 85 l 604 85 q 631 72 622 85 q 639 43 639 58 q 631 13 639 26 q 604 0 622 0 l 65 0 z "},"Ź":{"ha":669,"x_min":32,"x_max":639,"o":"m 65 0 q 41 9 50 0 q 32 32 32 18 q 40 64 32 47 l 503 931 l 83 931 q 58 944 67 931 q 49 974 49 957 q 57 1002 49 989 q 83 1015 65 1015 l 588 1015 q 614 1007 606 1015 q 622 986 622 999 q 611 950 622 969 l 150 85 l 604 85 q 631 72 622 85 q 639 43 639 58 q 631 13 639 26 q 604 0 622 0 l 65 0 m 264 1174 q 239 1186 250 1174 q 228 1213 228 1199 q 243 1238 228 1231 l 399 1322 q 410 1326 406 1326 q 434 1314 425 1326 q 443 1288 443 1301 q 426 1257 443 1267 l 278 1178 q 271 1175 275 1176 q 264 1174 267 1174 z "},"Ž":{"ha":669,"x_min":32,"x_max":639,"o":"m 65 0 q 41 9 50 0 q 32 32 32 18 q 40 64 32 47 l 503 931 l 83 931 q 58 944 67 931 q 49 974 49 957 q 57 1002 49 989 q 83 1015 65 1015 l 588 1015 q 614 1007 606 1015 q 622 986 622 999 q 611 950 622 969 l 150 85 l 604 85 q 631 72 622 85 q 639 43 639 58 q 631 13 639 26 q 604 0 622 0 l 65 0 m 325 1167 q 297 1181 310 1167 l 157 1306 q 143 1320 147 1313 q 139 1338 139 1328 q 147 1358 139 1349 q 165 1368 154 1368 q 186 1360 176 1368 l 325 1232 l 463 1360 q 483 1368 472 1368 q 503 1358 496 1368 q 510 1338 510 1349 q 506 1320 510 1328 q 493 1306 501 1313 l 353 1181 q 325 1167 338 1167 z "},"Ż":{"ha":669,"x_min":32,"x_max":639,"o":"m 65 0 q 41 9 50 0 q 32 32 32 18 q 40 64 32 47 l 503 931 l 83 931 q 58 944 67 931 q 49 974 49 957 q 57 1002 49 989 q 83 1015 65 1015 l 588 1015 q 614 1007 606 1015 q 622 986 622 999 q 611 950 622 969 l 150 85 l 604 85 q 631 72 622 85 q 639 43 639 58 q 631 13 639 26 q 604 0 622 0 l 65 0 m 329 1178 q 290 1194 306 1178 q 274 1233 274 1211 q 290 1272 274 1256 q 329 1288 306 1288 q 367 1272 351 1288 q 383 1233 383 1256 q 367 1194 383 1211 q 329 1178 351 1178 z "},"Ắ":{"ha":747,"x_min":28,"x_max":719,"o":"m 81 0 q 57 5 69 0 q 36 19 44 10 q 28 39 28 28 q 29 49 28 44 l 319 992 q 340 1016 325 1008 q 374 1024 356 1024 q 409 1015 393 1024 q 429 992 425 1007 l 718 49 q 719 40 719 44 q 711 20 719 29 q 690 6 703 11 q 664 0 678 0 q 643 6 653 0 q 631 24 633 11 l 565 238 l 182 238 l 118 24 q 104 6 114 11 q 81 0 94 0 m 204 317 l 542 317 l 374 876 l 204 317 z "},"Ặ":{"ha":747,"x_min":28,"x_max":719,"o":"m 81 0 q 57 5 69 0 q 36 19 44 10 q 28 39 28 28 q 29 49 28 44 l 319 992 q 340 1016 325 1008 q 374 1024 356 1024 q 409 1015 393 1024 q 429 992 425 1007 l 718 49 q 719 40 719 44 q 711 20 719 29 q 690 6 703 11 q 664 0 678 0 q 643 6 653 0 q 631 24 633 11 l 565 238 l 182 238 l 118 24 q 104 6 114 11 q 81 0 94 0 m 204 317 l 542 317 l 374 876 l 204 317 m 375 1182 q 272 1221 318 1182 q 215 1315 226 1260 q 220 1337 213 1329 q 240 1344 228 1344 l 250 1344 q 267 1338 261 1344 q 276 1319 274 1331 q 313 1257 285 1282 q 375 1232 340 1232 q 438 1257 410 1232 q 472 1319 465 1282 q 481 1338 475 1331 q 499 1344 488 1344 l 508 1344 q 528 1336 521 1344 q 535 1315 536 1328 q 476 1221 522 1260 q 375 1182 431 1182 z "},"Ằ":{"ha":747,"x_min":28,"x_max":719,"o":"m 81 0 q 57 5 69 0 q 36 19 44 10 q 28 39 28 28 q 29 49 28 44 l 319 992 q 340 1016 325 1008 q 374 1024 356 1024 q 409 1015 393 1024 q 429 992 425 1007 l 718 49 q 719 40 719 44 q 711 20 719 29 q 690 6 703 11 q 664 0 678 0 q 643 6 653 0 q 631 24 633 11 l 565 238 l 182 238 l 118 24 q 104 6 114 11 q 81 0 94 0 m 204 317 l 542 317 l 374 876 l 204 317 z "},"Ẳ":{"ha":747,"x_min":28,"x_max":719,"o":"m 81 0 q 57 5 69 0 q 36 19 44 10 q 28 39 28 28 q 29 49 28 44 l 319 992 q 340 1016 325 1008 q 374 1024 356 1024 q 409 1015 393 1024 q 429 992 425 1007 l 718 49 q 719 40 719 44 q 711 20 719 29 q 690 6 703 11 q 664 0 678 0 q 643 6 653 0 q 631 24 633 11 l 565 238 l 182 238 l 118 24 q 104 6 114 11 q 81 0 94 0 m 204 317 l 542 317 l 374 876 l 204 317 z "},"Ẵ":{"ha":747,"x_min":28,"x_max":719,"o":"m 81 0 q 57 5 69 0 q 36 19 44 10 q 28 39 28 28 q 29 49 28 44 l 319 992 q 340 1016 325 1008 q 374 1024 356 1024 q 409 1015 393 1024 q 429 992 425 1007 l 718 49 q 719 40 719 44 q 711 20 719 29 q 690 6 703 11 q 664 0 678 0 q 643 6 653 0 q 631 24 633 11 l 565 238 l 182 238 l 118 24 q 104 6 114 11 q 81 0 94 0 m 204 317 l 542 317 l 374 876 l 204 317 z "},"Ấ":{"ha":747,"x_min":28,"x_max":719,"o":"m 81 0 q 57 5 69 0 q 36 19 44 10 q 28 39 28 28 q 29 49 28 44 l 319 992 q 340 1016 325 1008 q 374 1024 356 1024 q 409 1015 393 1024 q 429 992 425 1007 l 718 49 q 719 40 719 44 q 711 20 719 29 q 690 6 703 11 q 664 0 678 0 q 643 6 653 0 q 631 24 633 11 l 565 238 l 182 238 l 118 24 q 104 6 114 11 q 81 0 94 0 m 204 317 l 542 317 l 374 876 l 204 317 z "},"Ậ":{"ha":747,"x_min":28,"x_max":719,"o":"m 81 0 q 57 5 69 0 q 36 19 44 10 q 28 39 28 28 q 29 49 28 44 l 319 992 q 340 1016 325 1008 q 374 1024 356 1024 q 409 1015 393 1024 q 429 992 425 1007 l 718 49 q 719 40 719 44 q 711 20 719 29 q 690 6 703 11 q 664 0 678 0 q 643 6 653 0 q 631 24 633 11 l 565 238 l 182 238 l 118 24 q 104 6 114 11 q 81 0 94 0 m 204 317 l 542 317 l 374 876 l 204 317 m 218 1175 q 198 1186 207 1175 q 189 1211 189 1197 q 194 1228 189 1219 q 207 1242 199 1236 l 351 1319 q 375 1326 364 1326 q 399 1319 388 1326 l 543 1242 q 557 1228 553 1238 q 561 1210 561 1219 q 553 1186 561 1196 q 533 1176 544 1176 q 526 1178 531 1176 q 519 1181 522 1179 l 375 1257 l 231 1179 q 224 1176 228 1178 q 218 1175 221 1175 z "},"Ầ":{"ha":747,"x_min":28,"x_max":719,"o":"m 81 0 q 57 5 69 0 q 36 19 44 10 q 28 39 28 28 q 29 49 28 44 l 319 992 q 340 1016 325 1008 q 374 1024 356 1024 q 409 1015 393 1024 q 429 992 425 1007 l 718 49 q 719 40 719 44 q 711 20 719 29 q 690 6 703 11 q 664 0 678 0 q 643 6 653 0 q 631 24 633 11 l 565 238 l 182 238 l 118 24 q 104 6 114 11 q 81 0 94 0 m 204 317 l 542 317 l 374 876 l 204 317 z "},"Ẩ":{"ha":747,"x_min":28,"x_max":719,"o":"m 81 0 q 57 5 69 0 q 36 19 44 10 q 28 39 28 28 q 29 49 28 44 l 319 992 q 340 1016 325 1008 q 374 1024 356 1024 q 409 1015 393 1024 q 429 992 425 1007 l 718 49 q 719 40 719 44 q 711 20 719 29 q 690 6 703 11 q 664 0 678 0 q 643 6 653 0 q 631 24 633 11 l 565 238 l 182 238 l 118 24 q 104 6 114 11 q 81 0 94 0 m 204 317 l 542 317 l 374 876 l 204 317 z "},"Ẫ":{"ha":747,"x_min":28,"x_max":719,"o":"m 81 0 q 57 5 69 0 q 36 19 44 10 q 28 39 28 28 q 29 49 28 44 l 319 992 q 340 1016 325 1008 q 374 1024 356 1024 q 409 1015 393 1024 q 429 992 425 1007 l 718 49 q 719 40 719 44 q 711 20 719 29 q 690 6 703 11 q 664 0 678 0 q 643 6 653 0 q 631 24 633 11 l 565 238 l 182 238 l 118 24 q 104 6 114 11 q 81 0 94 0 m 204 317 l 542 317 l 374 876 l 204 317 z "},"Ạ":{"ha":747,"x_min":28,"x_max":719,"o":"m 81 0 q 57 5 69 0 q 36 19 44 10 q 28 39 28 28 q 29 49 28 44 l 319 992 q 340 1016 325 1008 q 374 1024 356 1024 q 409 1015 393 1024 q 429 992 425 1007 l 718 49 q 719 40 719 44 q 711 20 719 29 q 690 6 703 11 q 664 0 678 0 q 643 6 653 0 q 631 24 633 11 l 565 238 l 182 238 l 118 24 q 104 6 114 11 q 81 0 94 0 m 204 317 l 542 317 l 374 876 l 204 317 z "},"Ả":{"ha":747,"x_min":28,"x_max":719,"o":"m 81 0 q 57 5 69 0 q 36 19 44 10 q 28 39 28 28 q 29 49 28 44 l 319 992 q 340 1016 325 1008 q 374 1024 356 1024 q 409 1015 393 1024 q 429 992 425 1007 l 718 49 q 719 40 719 44 q 711 20 719 29 q 690 6 703 11 q 664 0 678 0 q 643 6 653 0 q 631 24 633 11 l 565 238 l 182 238 l 118 24 q 104 6 114 11 q 81 0 94 0 m 204 317 l 542 317 l 374 876 l 204 317 m 276 1301 q 319 1331 296 1321 q 371 1342 342 1342 q 432 1326 410 1342 q 463 1290 454 1311 q 472 1249 472 1268 q 461 1210 472 1228 q 431 1172 450 1192 q 419 1157 424 1165 q 414 1138 415 1149 q 406 1122 414 1128 q 388 1117 399 1117 q 369 1124 376 1117 q 361 1140 361 1131 q 365 1164 361 1150 q 381 1190 369 1178 q 406 1220 396 1208 q 417 1246 417 1232 q 403 1275 417 1264 q 371 1286 389 1286 q 339 1278 353 1286 q 314 1261 325 1269 q 292 1252 304 1254 q 271 1263 281 1250 q 264 1281 263 1271 q 276 1301 265 1292 z "},"Ế":{"ha":706,"x_min":106,"x_max":676,"o":"m 147 0 q 119 9 132 0 q 106 36 106 18 l 106 981 q 119 1006 106 997 q 147 1015 132 1015 l 642 1015 q 668 1002 660 1015 q 676 975 676 989 q 667 944 676 957 q 642 931 658 931 l 197 931 l 197 549 l 415 549 q 441 536 432 549 q 450 507 450 524 q 442 482 450 494 q 415 469 433 469 l 197 469 l 197 85 l 642 85 q 667 72 658 85 q 676 42 676 60 q 668 13 676 26 q 642 0 660 0 l 147 0 z "},"Ệ":{"ha":706,"x_min":106,"x_max":676,"o":"m 147 0 q 119 9 132 0 q 106 36 106 18 l 106 981 q 119 1006 106 997 q 147 1015 132 1015 l 642 1015 q 668 1002 660 1015 q 676 975 676 989 q 667 944 676 957 q 642 931 658 931 l 197 931 l 197 549 l 415 549 q 441 536 432 549 q 450 507 450 524 q 442 482 450 494 q 415 469 433 469 l 197 469 l 197 85 l 642 85 q 667 72 658 85 q 676 42 676 60 q 668 13 676 26 q 642 0 660 0 l 147 0 m 233 1175 q 213 1186 222 1175 q 204 1211 204 1197 q 209 1228 204 1219 q 222 1242 214 1236 l 367 1319 q 390 1326 379 1326 q 414 1319 403 1326 l 558 1242 q 572 1228 568 1238 q 576 1210 576 1219 q 568 1186 576 1196 q 549 1176 560 1176 q 542 1178 546 1176 q 535 1181 538 1179 l 390 1257 l 246 1179 q 240 1176 243 1178 q 233 1175 236 1175 z "},"Ề":{"ha":706,"x_min":106,"x_max":676,"o":"m 147 0 q 119 9 132 0 q 106 36 106 18 l 106 981 q 119 1006 106 997 q 147 1015 132 1015 l 642 1015 q 668 1002 660 1015 q 676 975 676 989 q 667 944 676 957 q 642 931 658 931 l 197 931 l 197 549 l 415 549 q 441 536 432 549 q 450 507 450 524 q 442 482 450 494 q 415 469 433 469 l 197 469 l 197 85 l 642 85 q 667 72 658 85 q 676 42 676 60 q 668 13 676 26 q 642 0 660 0 l 147 0 z "},"Ể":{"ha":706,"x_min":106,"x_max":676,"o":"m 147 0 q 119 9 132 0 q 106 36 106 18 l 106 981 q 119 1006 106 997 q 147 1015 132 1015 l 642 1015 q 668 1002 660 1015 q 676 975 676 989 q 667 944 676 957 q 642 931 658 931 l 197 931 l 197 549 l 415 549 q 441 536 432 549 q 450 507 450 524 q 442 482 450 494 q 415 469 433 469 l 197 469 l 197 85 l 642 85 q 667 72 658 85 q 676 42 676 60 q 668 13 676 26 q 642 0 660 0 l 147 0 z "},"Ễ":{"ha":706,"x_min":106,"x_max":676,"o":"m 147 0 q 119 9 132 0 q 106 36 106 18 l 106 981 q 119 1006 106 997 q 147 1015 132 1015 l 642 1015 q 668 1002 660 1015 q 676 975 676 989 q 667 944 676 957 q 642 931 658 931 l 197 931 l 197 549 l 415 549 q 441 536 432 549 q 450 507 450 524 q 442 482 450 494 q 415 469 433 469 l 197 469 l 197 85 l 642 85 q 667 72 658 85 q 676 42 676 60 q 668 13 676 26 q 642 0 660 0 l 147 0 z "},"Ẹ":{"ha":706,"x_min":106,"x_max":676,"o":"m 147 0 q 119 9 132 0 q 106 36 106 18 l 106 981 q 119 1006 106 997 q 147 1015 132 1015 l 642 1015 q 668 1002 660 1015 q 676 975 676 989 q 667 944 676 957 q 642 931 658 931 l 197 931 l 197 549 l 415 549 q 441 536 432 549 q 450 507 450 524 q 442 482 450 494 q 415 469 433 469 l 197 469 l 197 85 l 642 85 q 667 72 658 85 q 676 42 676 60 q 668 13 676 26 q 642 0 660 0 l 147 0 z "},"Ẻ":{"ha":706,"x_min":106,"x_max":676,"o":"m 147 0 q 119 9 132 0 q 106 36 106 18 l 106 981 q 119 1006 106 997 q 147 1015 132 1015 l 642 1015 q 668 1002 660 1015 q 676 975 676 989 q 667 944 676 957 q 642 931 658 931 l 197 931 l 197 549 l 415 549 q 441 536 432 549 q 450 507 450 524 q 442 482 450 494 q 415 469 433 469 l 197 469 l 197 85 l 642 85 q 667 72 658 85 q 676 42 676 60 q 668 13 676 26 q 642 0 660 0 l 147 0 m 292 1301 q 334 1331 311 1321 q 386 1342 357 1342 q 447 1326 425 1342 q 478 1290 469 1311 q 488 1249 488 1268 q 476 1210 488 1228 q 446 1172 465 1192 q 435 1157 439 1165 q 429 1138 431 1149 q 422 1122 429 1128 q 403 1117 414 1117 q 384 1124 392 1117 q 376 1140 376 1131 q 381 1164 376 1150 q 396 1190 385 1178 q 422 1220 411 1208 q 432 1246 432 1232 q 418 1275 432 1264 q 386 1286 404 1286 q 354 1278 368 1286 q 329 1261 340 1269 q 308 1252 319 1254 q 286 1263 296 1250 q 279 1281 278 1271 q 292 1301 281 1292 z "},"Ẽ":{"ha":706,"x_min":106,"x_max":676,"o":"m 147 0 q 119 9 132 0 q 106 36 106 18 l 106 981 q 119 1006 106 997 q 147 1015 132 1015 l 642 1015 q 668 1002 660 1015 q 676 975 676 989 q 667 944 676 957 q 642 931 658 931 l 197 931 l 197 549 l 415 549 q 441 536 432 549 q 450 507 450 524 q 442 482 450 494 q 415 469 433 469 l 197 469 l 197 85 l 642 85 q 667 72 658 85 q 676 42 676 60 q 668 13 676 26 q 642 0 660 0 l 147 0 m 488 1199 q 422 1211 450 1199 q 367 1235 394 1224 q 303 1247 340 1247 q 255 1236 274 1247 q 224 1214 236 1225 q 200 1203 213 1203 q 186 1208 192 1203 q 177 1222 181 1214 q 174 1238 174 1231 q 186 1272 174 1257 q 218 1297 199 1286 q 259 1312 238 1307 q 296 1317 281 1317 q 360 1306 333 1317 q 415 1282 388 1294 q 479 1269 443 1269 q 526 1280 510 1269 q 553 1300 543 1290 q 576 1310 564 1310 q 592 1304 586 1310 q 601 1292 599 1299 q 604 1278 604 1285 q 592 1241 604 1256 q 560 1217 579 1226 q 522 1203 542 1207 q 488 1199 503 1199 z "},"Ị":{"ha":303,"x_min":93,"x_max":221,"o":"m 151 0 q 119 9 133 0 q 106 36 106 18 l 106 982 q 119 1007 106 999 q 151 1015 133 1015 q 183 1007 168 1015 q 197 982 197 999 l 197 36 q 183 9 197 18 q 151 0 168 0 z "},"Ỉ":{"ha":303,"x_min":40,"x_max":250,"o":"m 151 0 q 119 9 133 0 q 106 36 106 18 l 106 982 q 119 1007 106 999 q 151 1015 133 1015 q 183 1007 168 1015 q 197 982 197 999 l 197 36 q 183 9 197 18 q 151 0 168 0 m 54 1301 q 97 1331 74 1321 q 149 1342 119 1342 q 210 1326 188 1342 q 241 1290 232 1311 q 250 1249 250 1268 q 239 1210 250 1228 q 208 1172 228 1192 q 197 1157 201 1165 q 192 1138 193 1149 q 184 1122 192 1128 q 165 1117 176 1117 q 147 1124 154 1117 q 139 1140 139 1131 q 143 1164 139 1150 q 158 1190 147 1178 q 184 1220 174 1208 q 194 1246 194 1232 q 181 1275 194 1264 q 149 1286 167 1286 q 117 1278 131 1286 q 92 1261 103 1269 q 70 1252 82 1254 q 49 1263 58 1250 q 42 1281 40 1271 q 54 1301 43 1292 z "},"Ố":{"ha":768,"x_min":96,"x_max":674,"o":"m 383 -8 q 238 21 303 -8 q 134 115 172 50 q 96 289 96 181 l 96 719 q 134 892 96 826 q 237 986 172 957 q 383 1015 301 1015 q 531 986 465 1015 q 635 892 596 957 q 674 719 674 826 l 674 289 q 635 115 674 181 q 531 21 596 50 q 383 -8 465 -8 m 383 76 q 529 128 476 76 q 582 289 582 179 l 582 719 q 529 879 582 828 q 383 931 476 931 q 239 879 290 931 q 188 719 188 828 l 188 289 q 239 128 188 179 q 383 76 290 76 z "},"Ộ":{"ha":768,"x_min":96,"x_max":674,"o":"m 383 -8 q 238 21 303 -8 q 134 115 172 50 q 96 289 96 181 l 96 719 q 134 892 96 826 q 237 986 172 957 q 383 1015 301 1015 q 531 986 465 1015 q 635 892 596 957 q 674 719 674 826 l 674 289 q 635 115 674 181 q 531 21 596 50 q 383 -8 465 -8 m 383 76 q 529 128 476 76 q 582 289 582 179 l 582 719 q 529 879 582 828 q 383 931 476 931 q 239 879 290 931 q 188 719 188 828 l 188 289 q 239 128 188 179 q 383 76 290 76 m 228 1175 q 208 1186 217 1175 q 199 1211 199 1197 q 203 1228 199 1219 q 217 1242 208 1236 l 361 1319 q 385 1326 374 1326 q 408 1319 397 1326 l 553 1242 q 567 1228 563 1238 q 571 1210 571 1219 q 563 1186 571 1196 q 543 1176 554 1176 q 536 1178 540 1176 q 529 1181 532 1179 l 385 1257 l 240 1179 q 234 1176 238 1178 q 228 1175 231 1175 z "},"Ồ":{"ha":768,"x_min":96,"x_max":674,"o":"m 383 -8 q 238 21 303 -8 q 134 115 172 50 q 96 289 96 181 l 96 719 q 134 892 96 826 q 237 986 172 957 q 383 1015 301 1015 q 531 986 465 1015 q 635 892 596 957 q 674 719 674 826 l 674 289 q 635 115 674 181 q 531 21 596 50 q 383 -8 465 -8 m 383 76 q 529 128 476 76 q 582 289 582 179 l 582 719 q 529 879 582 828 q 383 931 476 931 q 239 879 290 931 q 188 719 188 828 l 188 289 q 239 128 188 179 q 383 76 290 76 z "},"Ổ":{"ha":768,"x_min":96,"x_max":674,"o":"m 383 -8 q 238 21 303 -8 q 134 115 172 50 q 96 289 96 181 l 96 719 q 134 892 96 826 q 237 986 172 957 q 383 1015 301 1015 q 531 986 465 1015 q 635 892 596 957 q 674 719 674 826 l 674 289 q 635 115 674 181 q 531 21 596 50 q 383 -8 465 -8 m 383 76 q 529 128 476 76 q 582 289 582 179 l 582 719 q 529 879 582 828 q 383 931 476 931 q 239 879 290 931 q 188 719 188 828 l 188 289 q 239 128 188 179 q 383 76 290 76 z "},"Ỗ":{"ha":768,"x_min":96,"x_max":674,"o":"m 383 -8 q 238 21 303 -8 q 134 115 172 50 q 96 289 96 181 l 96 719 q 134 892 96 826 q 237 986 172 957 q 383 1015 301 1015 q 531 986 465 1015 q 635 892 596 957 q 674 719 674 826 l 674 289 q 635 115 674 181 q 531 21 596 50 q 383 -8 465 -8 m 383 76 q 529 128 476 76 q 582 289 582 179 l 582 719 q 529 879 582 828 q 383 931 476 931 q 239 879 290 931 q 188 719 188 828 l 188 289 q 239 128 188 179 q 383 76 290 76 z "},"Ọ":{"ha":768,"x_min":96,"x_max":674,"o":"m 383 -8 q 238 21 303 -8 q 134 115 172 50 q 96 289 96 181 l 96 719 q 134 892 96 826 q 237 986 172 957 q 383 1015 301 1015 q 531 986 465 1015 q 635 892 596 957 q 674 719 674 826 l 674 289 q 635 115 674 181 q 531 21 596 50 q 383 -8 465 -8 m 383 76 q 529 128 476 76 q 582 289 582 179 l 582 719 q 529 879 582 828 q 383 931 476 931 q 239 879 290 931 q 188 719 188 828 l 188 289 q 239 128 188 179 q 383 76 290 76 z "},"Ỏ":{"ha":768,"x_min":96,"x_max":674,"o":"m 383 -8 q 238 21 303 -8 q 134 115 172 50 q 96 289 96 181 l 96 719 q 134 892 96 826 q 237 986 172 957 q 383 1015 301 1015 q 531 986 465 1015 q 635 892 596 957 q 674 719 674 826 l 674 289 q 635 115 674 181 q 531 21 596 50 q 383 -8 465 -8 m 383 76 q 529 128 476 76 q 582 289 582 179 l 582 719 q 529 879 582 828 q 383 931 476 931 q 239 879 290 931 q 188 719 188 828 l 188 289 q 239 128 188 179 q 383 76 290 76 m 288 1301 q 330 1331 307 1321 q 382 1342 353 1342 q 443 1326 421 1342 q 474 1290 465 1311 q 483 1249 483 1268 q 472 1210 483 1228 q 442 1172 461 1192 q 431 1157 435 1165 q 425 1138 426 1149 q 417 1122 425 1128 q 399 1117 410 1117 q 380 1124 388 1117 q 372 1140 372 1131 q 376 1164 372 1150 q 392 1190 381 1178 q 417 1220 407 1208 q 428 1246 428 1232 q 414 1275 428 1264 q 382 1286 400 1286 q 350 1278 364 1286 q 325 1261 336 1269 q 303 1252 315 1254 q 282 1263 292 1250 q 275 1281 274 1271 q 288 1301 276 1292 z "},"Ơ":{"ha":768,"x_min":96,"x_max":674,"o":"m 383 -8 q 238 21 303 -8 q 134 115 172 50 q 96 289 96 181 l 96 719 q 134 892 96 826 q 237 986 172 957 q 383 1015 301 1015 q 531 986 465 1015 q 635 892 596 957 q 674 719 674 826 l 674 289 q 635 115 674 181 q 531 21 596 50 q 383 -8 465 -8 m 383 76 q 529 128 476 76 q 582 289 582 179 l 582 719 q 529 879 582 828 q 383 931 476 931 q 239 879 290 931 q 188 719 188 828 l 188 289 q 239 128 188 179 q 383 76 290 76 m 419 947 l 419 1015 q 519 1040 485 1015 q 553 1110 553 1065 q 560 1143 553 1128 q 586 1158 568 1158 q 615 1142 608 1158 q 622 1110 622 1125 q 603 1026 622 1063 q 540 968 585 989 q 419 947 496 947 z "},"Ớ":{"ha":768,"x_min":96,"x_max":674,"o":"m 383 -8 q 238 21 303 -8 q 134 115 172 50 q 96 289 96 181 l 96 719 q 134 892 96 826 q 237 986 172 957 q 383 1015 301 1015 q 531 986 465 1015 q 635 892 596 957 q 674 719 674 826 l 674 289 q 635 115 674 181 q 531 21 596 50 q 383 -8 465 -8 m 383 76 q 529 128 476 76 q 582 289 582 179 l 582 719 q 529 879 582 828 q 383 931 476 931 q 239 879 290 931 q 188 719 188 828 l 188 289 q 239 128 188 179 q 383 76 290 76 m 419 947 l 419 1015 q 519 1040 485 1015 q 553 1110 553 1065 q 560 1143 553 1128 q 586 1158 568 1158 q 615 1142 608 1158 q 622 1110 622 1125 q 603 1026 622 1063 q 540 968 585 989 q 419 947 496 947 m 325 1174 q 300 1186 311 1174 q 289 1213 289 1199 q 304 1238 289 1231 l 460 1322 q 471 1326 467 1326 q 495 1314 486 1326 q 504 1288 504 1301 q 488 1257 504 1267 l 339 1178 q 332 1175 336 1176 q 325 1174 328 1174 z "},"Ợ":{"ha":768,"x_min":96,"x_max":674,"o":"m 383 -8 q 238 21 303 -8 q 134 115 172 50 q 96 289 96 181 l 96 719 q 134 892 96 826 q 237 986 172 957 q 383 1015 301 1015 q 531 986 465 1015 q 635 892 596 957 q 674 719 674 826 l 674 289 q 635 115 674 181 q 531 21 596 50 q 383 -8 465 -8 m 383 76 q 529 128 476 76 q 582 289 582 179 l 582 719 q 529 879 582 828 q 383 931 476 931 q 239 879 290 931 q 188 719 188 828 l 188 289 q 239 128 188 179 q 383 76 290 76 m 419 947 l 419 1015 q 519 1040 485 1015 q 553 1110 553 1065 q 560 1143 553 1128 q 586 1158 568 1158 q 615 1142 608 1158 q 622 1110 622 1125 q 603 1026 622 1063 q 540 968 585 989 q 419 947 496 947 z "},"Ờ":{"ha":768,"x_min":96,"x_max":674,"o":"m 383 -8 q 238 21 303 -8 q 134 115 172 50 q 96 289 96 181 l 96 719 q 134 892 96 826 q 237 986 172 957 q 383 1015 301 1015 q 531 986 465 1015 q 635 892 596 957 q 674 719 674 826 l 674 289 q 635 115 674 181 q 531 21 596 50 q 383 -8 465 -8 m 383 76 q 529 128 476 76 q 582 289 582 179 l 582 719 q 529 879 582 828 q 383 931 476 931 q 239 879 290 931 q 188 719 188 828 l 188 289 q 239 128 188 179 q 383 76 290 76 m 419 947 l 419 1015 q 519 1040 485 1015 q 553 1110 553 1065 q 560 1143 553 1128 q 586 1158 568 1158 q 615 1142 608 1158 q 622 1110 622 1125 q 603 1026 622 1063 q 540 968 585 989 q 419 947 496 947 m 447 1174 q 440 1175 444 1174 q 433 1178 436 1176 l 286 1257 q 268 1288 268 1267 q 278 1314 268 1301 q 301 1326 288 1326 q 314 1322 307 1326 l 468 1238 q 483 1213 483 1231 q 473 1186 483 1199 q 447 1174 463 1174 z "},"Ở":{"ha":768,"x_min":96,"x_max":674,"o":"m 383 -8 q 238 21 303 -8 q 134 115 172 50 q 96 289 96 181 l 96 719 q 134 892 96 826 q 237 986 172 957 q 383 1015 301 1015 q 531 986 465 1015 q 635 892 596 957 q 674 719 674 826 l 674 289 q 635 115 674 181 q 531 21 596 50 q 383 -8 465 -8 m 383 76 q 529 128 476 76 q 582 289 582 179 l 582 719 q 529 879 582 828 q 383 931 476 931 q 239 879 290 931 q 188 719 188 828 l 188 289 q 239 128 188 179 q 383 76 290 76 m 419 947 l 419 1015 q 519 1040 485 1015 q 553 1110 553 1065 q 560 1143 553 1128 q 586 1158 568 1158 q 615 1142 608 1158 q 622 1110 622 1125 q 603 1026 622 1063 q 540 968 585 989 q 419 947 496 947 m 288 1301 q 330 1331 307 1321 q 382 1342 353 1342 q 443 1326 421 1342 q 474 1290 465 1311 q 483 1249 483 1268 q 472 1210 483 1228 q 442 1172 461 1192 q 431 1157 435 1165 q 425 1138 426 1149 q 417 1122 425 1128 q 399 1117 410 1117 q 380 1124 388 1117 q 372 1140 372 1131 q 376 1164 372 1150 q 392 1190 381 1178 q 417 1220 407 1208 q 428 1246 428 1232 q 414 1275 428 1264 q 382 1286 400 1286 q 350 1278 364 1286 q 325 1261 336 1269 q 303 1252 315 1254 q 282 1263 292 1250 q 275 1281 274 1271 q 288 1301 276 1292 z "},"Ỡ":{"ha":768,"x_min":96,"x_max":674,"o":"m 383 -8 q 238 21 303 -8 q 134 115 172 50 q 96 289 96 181 l 96 719 q 134 892 96 826 q 237 986 172 957 q 383 1015 301 1015 q 531 986 465 1015 q 635 892 596 957 q 674 719 674 826 l 674 289 q 635 115 674 181 q 531 21 596 50 q 383 -8 465 -8 m 383 76 q 529 128 476 76 q 582 289 582 179 l 582 719 q 529 879 582 828 q 383 931 476 931 q 239 879 290 931 q 188 719 188 828 l 188 289 q 239 128 188 179 q 383 76 290 76 m 419 947 l 419 1015 q 519 1040 485 1015 q 553 1110 553 1065 q 560 1143 553 1128 q 586 1158 568 1158 q 615 1142 608 1158 q 622 1110 622 1125 q 603 1026 622 1063 q 540 968 585 989 q 419 947 496 947 m 483 1199 q 418 1211 446 1199 q 363 1235 390 1224 q 299 1247 336 1247 q 251 1236 269 1247 q 220 1214 232 1225 q 196 1203 208 1203 q 182 1208 188 1203 q 173 1222 176 1214 q 169 1238 169 1231 q 182 1272 169 1257 q 214 1297 194 1286 q 255 1312 233 1307 q 292 1317 276 1317 q 356 1306 329 1317 q 411 1282 383 1294 q 475 1269 439 1269 q 522 1280 506 1269 q 549 1300 539 1290 q 572 1310 560 1310 q 588 1304 582 1310 q 597 1292 594 1299 q 600 1278 600 1285 q 588 1241 600 1256 q 556 1217 575 1226 q 518 1203 538 1207 q 483 1199 499 1199 z "},"Ụ":{"ha":782,"x_min":100,"x_max":682,"o":"m 390 -8 q 243 21 308 -8 q 139 115 178 50 q 100 289 100 181 l 100 982 q 114 1007 100 999 q 146 1015 128 1015 q 178 1007 164 1015 q 192 982 192 999 l 192 289 q 244 128 192 179 q 390 76 297 76 q 538 128 485 76 q 590 289 590 179 l 590 982 q 604 1007 590 999 q 636 1015 618 1015 q 668 1007 654 1015 q 682 982 682 999 l 682 289 q 644 115 682 181 q 539 21 606 50 q 390 -8 472 -8 z "},"Ủ":{"ha":782,"x_min":100,"x_max":682,"o":"m 390 -8 q 243 21 308 -8 q 139 115 178 50 q 100 289 100 181 l 100 982 q 114 1007 100 999 q 146 1015 128 1015 q 178 1007 164 1015 q 192 982 192 999 l 192 289 q 244 128 192 179 q 390 76 297 76 q 538 128 485 76 q 590 289 590 179 l 590 982 q 604 1007 590 999 q 636 1015 618 1015 q 668 1007 654 1015 q 682 982 682 999 l 682 289 q 644 115 682 181 q 539 21 606 50 q 390 -8 472 -8 m 294 1301 q 337 1331 314 1321 q 389 1342 360 1342 q 450 1326 428 1342 q 481 1290 472 1311 q 490 1249 490 1268 q 479 1210 490 1228 q 449 1172 468 1192 q 438 1157 442 1165 q 432 1138 433 1149 q 424 1122 432 1128 q 406 1117 417 1117 q 387 1124 394 1117 q 379 1140 379 1131 q 383 1164 379 1150 q 399 1190 388 1178 q 424 1220 414 1208 q 435 1246 435 1232 q 421 1275 435 1264 q 389 1286 407 1286 q 357 1278 371 1286 q 332 1261 343 1269 q 310 1252 322 1254 q 289 1263 299 1250 q 282 1281 281 1271 q 294 1301 283 1292 z "},"Ư":{"ha":782,"x_min":100,"x_max":838,"o":"m 390 -8 q 243 21 308 -8 q 139 115 178 50 q 100 289 100 181 l 100 982 q 114 1007 100 999 q 146 1015 128 1015 q 178 1007 164 1015 q 192 982 192 999 l 192 289 q 244 128 192 179 q 390 76 297 76 q 538 128 485 76 q 590 289 590 179 l 590 982 q 604 1007 590 999 q 636 1015 618 1015 q 668 1007 654 1015 q 682 982 682 999 l 682 289 q 644 115 682 181 q 539 21 606 50 q 390 -8 472 -8 m 635 947 l 635 1015 q 734 1040 700 1015 q 768 1110 768 1065 q 776 1143 768 1128 q 801 1158 783 1158 q 831 1142 824 1158 q 838 1110 838 1125 q 819 1026 838 1063 q 756 968 800 989 q 635 947 711 947 z "},"Ứ":{"ha":782,"x_min":100,"x_max":838,"o":"m 390 -8 q 243 21 308 -8 q 139 115 178 50 q 100 289 100 181 l 100 982 q 114 1007 100 999 q 146 1015 128 1015 q 178 1007 164 1015 q 192 982 192 999 l 192 289 q 244 128 192 179 q 390 76 297 76 q 538 128 485 76 q 590 289 590 179 l 590 982 q 604 1007 590 999 q 636 1015 618 1015 q 668 1007 654 1015 q 682 982 682 999 l 682 289 q 644 115 682 181 q 539 21 606 50 q 390 -8 472 -8 m 635 947 l 635 1015 q 734 1040 700 1015 q 768 1110 768 1065 q 776 1143 768 1128 q 801 1158 783 1158 q 831 1142 824 1158 q 838 1110 838 1125 q 819 1026 838 1063 q 756 968 800 989 q 635 947 711 947 m 332 1174 q 307 1186 318 1174 q 296 1213 296 1199 q 311 1238 296 1231 l 467 1322 q 478 1326 474 1326 q 502 1314 493 1326 q 511 1288 511 1301 q 494 1257 511 1267 l 346 1178 q 339 1175 343 1176 q 332 1174 335 1174 z "},"Ự":{"ha":782,"x_min":100,"x_max":838,"o":"m 390 -8 q 243 21 308 -8 q 139 115 178 50 q 100 289 100 181 l 100 982 q 114 1007 100 999 q 146 1015 128 1015 q 178 1007 164 1015 q 192 982 192 999 l 192 289 q 244 128 192 179 q 390 76 297 76 q 538 128 485 76 q 590 289 590 179 l 590 982 q 604 1007 590 999 q 636 1015 618 1015 q 668 1007 654 1015 q 682 982 682 999 l 682 289 q 644 115 682 181 q 539 21 606 50 q 390 -8 472 -8 m 635 947 l 635 1015 q 734 1040 700 1015 q 768 1110 768 1065 q 776 1143 768 1128 q 801 1158 783 1158 q 831 1142 824 1158 q 838 1110 838 1125 q 819 1026 838 1063 q 756 968 800 989 q 635 947 711 947 z "},"Ừ":{"ha":782,"x_min":100,"x_max":838,"o":"m 390 -8 q 243 21 308 -8 q 139 115 178 50 q 100 289 100 181 l 100 982 q 114 1007 100 999 q 146 1015 128 1015 q 178 1007 164 1015 q 192 982 192 999 l 192 289 q 244 128 192 179 q 390 76 297 76 q 538 128 485 76 q 590 289 590 179 l 590 982 q 604 1007 590 999 q 636 1015 618 1015 q 668 1007 654 1015 q 682 982 682 999 l 682 289 q 644 115 682 181 q 539 21 606 50 q 390 -8 472 -8 m 635 947 l 635 1015 q 734 1040 700 1015 q 768 1110 768 1065 q 776 1143 768 1128 q 801 1158 783 1158 q 831 1142 824 1158 q 838 1110 838 1125 q 819 1026 838 1063 q 756 968 800 989 q 635 947 711 947 m 454 1174 q 447 1175 451 1174 q 440 1178 443 1176 l 293 1257 q 275 1288 275 1267 q 285 1314 275 1301 q 308 1326 294 1326 q 321 1322 314 1326 l 475 1238 q 490 1213 490 1231 q 480 1186 490 1199 q 454 1174 469 1174 z "},"Ử":{"ha":782,"x_min":100,"x_max":838,"o":"m 390 -8 q 243 21 308 -8 q 139 115 178 50 q 100 289 100 181 l 100 982 q 114 1007 100 999 q 146 1015 128 1015 q 178 1007 164 1015 q 192 982 192 999 l 192 289 q 244 128 192 179 q 390 76 297 76 q 538 128 485 76 q 590 289 590 179 l 590 982 q 604 1007 590 999 q 636 1015 618 1015 q 668 1007 654 1015 q 682 982 682 999 l 682 289 q 644 115 682 181 q 539 21 606 50 q 390 -8 472 -8 m 635 947 l 635 1015 q 734 1040 700 1015 q 768 1110 768 1065 q 776 1143 768 1128 q 801 1158 783 1158 q 831 1142 824 1158 q 838 1110 838 1125 q 819 1026 838 1063 q 756 968 800 989 q 635 947 711 947 m 294 1301 q 337 1331 314 1321 q 389 1342 360 1342 q 450 1326 428 1342 q 481 1290 472 1311 q 490 1249 490 1268 q 479 1210 490 1228 q 449 1172 468 1192 q 438 1157 442 1165 q 432 1138 433 1149 q 424 1122 432 1128 q 406 1117 417 1117 q 387 1124 394 1117 q 379 1140 379 1131 q 383 1164 379 1150 q 399 1190 388 1178 q 424 1220 414 1208 q 435 1246 435 1232 q 421 1275 435 1264 q 389 1286 407 1286 q 357 1278 371 1286 q 332 1261 343 1269 q 310 1252 322 1254 q 289 1263 299 1250 q 282 1281 281 1271 q 294 1301 283 1292 z "},"Ữ":{"ha":782,"x_min":100,"x_max":838,"o":"m 390 -8 q 243 21 308 -8 q 139 115 178 50 q 100 289 100 181 l 100 982 q 114 1007 100 999 q 146 1015 128 1015 q 178 1007 164 1015 q 192 982 192 999 l 192 289 q 244 128 192 179 q 390 76 297 76 q 538 128 485 76 q 590 289 590 179 l 590 982 q 604 1007 590 999 q 636 1015 618 1015 q 668 1007 654 1015 q 682 982 682 999 l 682 289 q 644 115 682 181 q 539 21 606 50 q 390 -8 472 -8 m 635 947 l 635 1015 q 734 1040 700 1015 q 768 1110 768 1065 q 776 1143 768 1128 q 801 1158 783 1158 q 831 1142 824 1158 q 838 1110 838 1125 q 819 1026 838 1063 q 756 968 800 989 q 635 947 711 947 m 490 1199 q 425 1211 453 1199 q 370 1235 397 1224 q 306 1247 343 1247 q 258 1236 276 1247 q 227 1214 239 1225 q 203 1203 215 1203 q 189 1208 194 1203 q 180 1222 183 1214 q 176 1238 176 1231 q 189 1272 176 1257 q 221 1297 201 1286 q 262 1312 240 1307 q 299 1317 283 1317 q 363 1306 336 1317 q 418 1282 390 1294 q 482 1269 446 1269 q 529 1280 513 1269 q 556 1300 546 1290 q 579 1310 567 1310 q 595 1304 589 1310 q 604 1292 601 1299 q 607 1278 607 1285 q 594 1241 607 1256 q 563 1217 582 1226 q 525 1203 544 1207 q 490 1199 506 1199 z "},"Ỵ":{"ha":735,"x_min":25,"x_max":710,"o":"m 367 0 q 335 9 350 0 q 321 36 321 18 l 321 389 q 319 400 321 396 l 32 951 q 26 966 28 960 q 25 976 25 972 q 33 997 25 989 q 52 1010 40 1006 q 75 1015 64 1015 q 95 1008 86 1015 q 111 988 104 1001 l 367 481 l 624 988 q 641 1008 632 1001 q 660 1015 650 1015 q 683 1010 672 1015 q 702 997 694 1006 q 710 976 710 989 q 708 966 710 972 q 704 951 707 960 l 415 400 q 413 389 413 396 l 413 36 q 399 9 413 18 q 367 0 385 0 z "},"Ỷ":{"ha":735,"x_min":25,"x_max":710,"o":"m 367 0 q 335 9 350 0 q 321 36 321 18 l 321 389 q 319 400 321 396 l 32 951 q 26 966 28 960 q 25 976 25 972 q 33 997 25 989 q 52 1010 40 1006 q 75 1015 64 1015 q 95 1008 86 1015 q 111 988 104 1001 l 367 481 l 624 988 q 641 1008 632 1001 q 660 1015 650 1015 q 683 1010 672 1015 q 702 997 694 1006 q 710 976 710 989 q 708 966 710 972 q 704 951 707 960 l 415 400 q 413 389 413 396 l 413 36 q 399 9 413 18 q 367 0 385 0 m 271 1301 q 313 1331 290 1321 q 365 1342 336 1342 q 426 1326 404 1342 q 458 1290 449 1311 q 467 1249 467 1268 q 456 1210 467 1228 q 425 1172 444 1192 q 414 1157 418 1165 q 408 1138 410 1149 q 401 1122 408 1128 q 382 1117 393 1117 q 363 1124 371 1117 q 356 1140 356 1131 q 360 1164 356 1150 q 375 1190 364 1178 q 401 1220 390 1208 q 411 1246 411 1232 q 397 1275 411 1264 q 365 1286 383 1286 q 333 1278 347 1286 q 308 1261 319 1269 q 287 1252 299 1254 q 265 1263 275 1250 q 258 1281 257 1271 q 271 1301 260 1292 z "},"Ỹ":{"ha":735,"x_min":25,"x_max":710,"o":"m 367 0 q 335 9 350 0 q 321 36 321 18 l 321 389 q 319 400 321 396 l 32 951 q 26 966 28 960 q 25 976 25 972 q 33 997 25 989 q 52 1010 40 1006 q 75 1015 64 1015 q 95 1008 86 1015 q 111 988 104 1001 l 367 481 l 624 988 q 641 1008 632 1001 q 660 1015 650 1015 q 683 1010 672 1015 q 702 997 694 1006 q 710 976 710 989 q 708 966 710 972 q 704 951 707 960 l 415 400 q 413 389 413 396 l 413 36 q 399 9 413 18 q 367 0 385 0 m 467 1199 q 401 1211 429 1199 q 347 1235 374 1224 q 282 1247 319 1247 q 234 1236 253 1247 q 203 1214 215 1225 q 179 1203 192 1203 q 165 1208 171 1203 q 156 1222 160 1214 q 153 1238 153 1231 q 165 1272 153 1257 q 197 1297 178 1286 q 238 1312 217 1307 q 275 1317 260 1317 q 340 1306 313 1317 q 394 1282 367 1294 q 458 1269 422 1269 q 506 1280 489 1269 q 533 1300 522 1290 q 556 1310 543 1310 q 572 1304 565 1310 q 581 1292 578 1299 q 583 1278 583 1285 q 571 1241 583 1256 q 540 1217 558 1226 q 501 1203 521 1207 q 467 1199 482 1199 z "},"a":{"ha":608,"x_min":43,"x_max":528,"o":"m 232 -10 q 99 35 154 -10 q 43 174 43 81 q 84 291 43 250 q 198 348 125 332 q 367 364 271 364 l 438 364 l 438 397 q 422 485 438 442 q 370 558 406 529 q 274 586 335 586 q 199 576 228 586 q 153 556 169 567 q 125 546 136 546 q 99 563 108 546 q 89 594 89 579 q 117 628 89 613 q 190 655 146 644 q 276 665 233 665 q 424 627 369 665 q 503 528 479 589 q 528 397 528 467 l 528 36 q 516 10 528 21 q 483 0 504 0 q 454 10 467 0 q 442 36 442 21 l 442 97 q 354 24 406 57 q 232 -10 303 -10 m 254 67 q 342 90 300 67 q 410 148 383 114 q 438 213 438 182 l 438 301 l 379 301 q 260 294 317 301 q 169 261 204 286 q 133 182 133 236 q 169 94 133 122 q 254 67 204 67 z "},"á":{"ha":608,"x_min":43,"x_max":528,"o":"m 232 -10 q 99 35 154 -10 q 43 174 43 81 q 84 291 43 250 q 198 348 125 332 q 367 364 271 364 l 438 364 l 438 397 q 422 485 438 442 q 370 558 406 529 q 274 586 335 586 q 199 576 228 586 q 153 556 169 567 q 125 546 136 546 q 99 563 108 546 q 89 594 89 579 q 117 628 89 613 q 190 655 146 644 q 276 665 233 665 q 424 627 369 665 q 503 528 479 589 q 528 397 528 467 l 528 36 q 516 10 528 21 q 483 0 504 0 q 454 10 467 0 q 442 36 442 21 l 442 97 q 354 24 406 57 q 232 -10 303 -10 m 254 67 q 342 90 300 67 q 410 148 383 114 q 438 213 438 182 l 438 301 l 379 301 q 260 294 317 301 q 169 261 204 286 q 133 182 133 236 q 169 94 133 122 q 254 67 204 67 m 239 819 q 214 832 225 819 q 203 858 203 844 q 218 883 203 876 l 374 968 q 385 972 381 972 q 409 960 400 972 q 418 933 418 947 q 401 903 418 913 l 253 824 q 246 821 250 822 q 239 819 242 819 z "},"ă":{"ha":608,"x_min":43,"x_max":528,"o":"m 232 -10 q 99 35 154 -10 q 43 174 43 81 q 84 291 43 250 q 198 348 125 332 q 367 364 271 364 l 438 364 l 438 397 q 422 485 438 442 q 370 558 406 529 q 274 586 335 586 q 199 576 228 586 q 153 556 169 567 q 125 546 136 546 q 99 563 108 546 q 89 594 89 579 q 117 628 89 613 q 190 655 146 644 q 276 665 233 665 q 424 627 369 665 q 503 528 479 589 q 528 397 528 467 l 528 36 q 516 10 528 21 q 483 0 504 0 q 454 10 467 0 q 442 36 442 21 l 442 97 q 354 24 406 57 q 232 -10 303 -10 m 254 67 q 342 90 300 67 q 410 148 383 114 q 438 213 438 182 l 438 301 l 379 301 q 260 294 317 301 q 169 261 204 286 q 133 182 133 236 q 169 94 133 122 q 254 67 204 67 m 299 828 q 196 867 242 828 q 139 961 150 906 q 144 983 136 975 q 164 990 151 990 l 174 990 q 191 983 185 990 q 200 965 197 976 q 236 903 208 928 q 299 878 264 878 q 361 903 333 878 q 396 965 389 928 q 405 983 399 976 q 422 990 411 990 l 432 990 q 452 982 444 990 q 458 961 460 974 q 400 867 446 906 q 299 828 354 828 z "},"â":{"ha":608,"x_min":43,"x_max":528,"o":"m 232 -10 q 99 35 154 -10 q 43 174 43 81 q 84 291 43 250 q 198 348 125 332 q 367 364 271 364 l 438 364 l 438 397 q 422 485 438 442 q 370 558 406 529 q 274 586 335 586 q 199 576 228 586 q 153 556 169 567 q 125 546 136 546 q 99 563 108 546 q 89 594 89 579 q 117 628 89 613 q 190 655 146 644 q 276 665 233 665 q 424 627 369 665 q 503 528 479 589 q 528 397 528 467 l 528 36 q 516 10 528 21 q 483 0 504 0 q 454 10 467 0 q 442 36 442 21 l 442 97 q 354 24 406 57 q 232 -10 303 -10 m 254 67 q 342 90 300 67 q 410 148 383 114 q 438 213 438 182 l 438 301 l 379 301 q 260 294 317 301 q 169 261 204 286 q 133 182 133 236 q 169 94 133 122 q 254 67 204 67 m 142 821 q 122 832 131 821 q 113 857 113 843 q 117 874 113 865 q 131 888 122 882 l 275 965 q 299 972 288 972 q 322 965 311 972 l 467 888 q 481 874 476 883 q 485 856 485 865 q 476 832 485 842 q 457 822 468 822 q 450 824 454 822 q 443 826 446 825 l 299 903 l 154 825 q 148 822 151 824 q 142 821 144 821 z "},"ä":{"ha":608,"x_min":43,"x_max":528,"o":"m 232 -10 q 99 35 154 -10 q 43 174 43 81 q 84 291 43 250 q 198 348 125 332 q 367 364 271 364 l 438 364 l 438 397 q 422 485 438 442 q 370 558 406 529 q 274 586 335 586 q 199 576 228 586 q 153 556 169 567 q 125 546 136 546 q 99 563 108 546 q 89 594 89 579 q 117 628 89 613 q 190 655 146 644 q 276 665 233 665 q 424 627 369 665 q 503 528 479 589 q 528 397 528 467 l 528 36 q 516 10 528 21 q 483 0 504 0 q 454 10 467 0 q 442 36 442 21 l 442 97 q 354 24 406 57 q 232 -10 303 -10 m 254 67 q 342 90 300 67 q 410 148 383 114 q 438 213 438 182 l 438 301 l 379 301 q 260 294 317 301 q 169 261 204 286 q 133 182 133 236 q 169 94 133 122 q 254 67 204 67 m 385 822 q 349 838 364 822 q 333 874 333 853 q 349 910 333 896 q 385 924 364 924 q 421 910 407 924 q 435 874 435 896 q 421 838 435 853 q 385 822 407 822 m 214 822 q 177 838 192 822 q 163 874 163 853 q 177 910 163 896 q 214 924 192 924 q 249 910 235 924 q 264 874 264 896 q 249 838 264 853 q 214 822 235 822 z "},"à":{"ha":608,"x_min":43,"x_max":528,"o":"m 232 -10 q 99 35 154 -10 q 43 174 43 81 q 84 291 43 250 q 198 348 125 332 q 367 364 271 364 l 438 364 l 438 397 q 422 485 438 442 q 370 558 406 529 q 274 586 335 586 q 199 576 228 586 q 153 556 169 567 q 125 546 136 546 q 99 563 108 546 q 89 594 89 579 q 117 628 89 613 q 190 655 146 644 q 276 665 233 665 q 424 627 369 665 q 503 528 479 589 q 528 397 528 467 l 528 36 q 516 10 528 21 q 483 0 504 0 q 454 10 467 0 q 442 36 442 21 l 442 97 q 354 24 406 57 q 232 -10 303 -10 m 254 67 q 342 90 300 67 q 410 148 383 114 q 438 213 438 182 l 438 301 l 379 301 q 260 294 317 301 q 169 261 204 286 q 133 182 133 236 q 169 94 133 122 q 254 67 204 67 m 360 819 q 353 821 357 819 q 346 824 349 822 l 199 903 q 181 933 181 913 q 190 960 181 947 q 214 972 200 972 q 226 968 219 972 l 381 883 q 396 858 396 876 q 385 832 396 844 q 360 819 375 819 z "},"ā":{"ha":608,"x_min":43,"x_max":528,"o":"m 232 -10 q 99 35 154 -10 q 43 174 43 81 q 84 291 43 250 q 198 348 125 332 q 367 364 271 364 l 438 364 l 438 397 q 422 485 438 442 q 370 558 406 529 q 274 586 335 586 q 199 576 228 586 q 153 556 169 567 q 125 546 136 546 q 99 563 108 546 q 89 594 89 579 q 117 628 89 613 q 190 655 146 644 q 276 665 233 665 q 424 627 369 665 q 503 528 479 589 q 528 397 528 467 l 528 36 q 516 10 528 21 q 483 0 504 0 q 454 10 467 0 q 442 36 442 21 l 442 97 q 354 24 406 57 q 232 -10 303 -10 m 254 67 q 342 90 300 67 q 410 148 383 114 q 438 213 438 182 l 438 301 l 379 301 q 260 294 317 301 q 169 261 204 286 q 133 182 133 236 q 169 94 133 122 q 254 67 204 67 z "},"ą":{"ha":608,"x_min":43,"x_max":528,"o":"m 232 -10 q 99 35 154 -10 q 43 174 43 81 q 84 291 43 250 q 198 348 125 332 q 367 364 271 364 l 438 364 l 438 397 q 422 485 438 442 q 370 558 406 529 q 274 586 335 586 q 199 576 228 586 q 153 556 169 567 q 125 546 136 546 q 99 563 108 546 q 89 594 89 579 q 117 628 89 613 q 190 655 146 644 q 276 665 233 665 q 424 627 369 665 q 503 528 479 589 q 528 397 528 467 l 528 36 q 516 10 528 21 q 483 0 504 0 q 454 10 467 0 q 442 36 442 21 l 442 97 q 354 24 406 57 q 232 -10 303 -10 m 254 67 q 342 90 300 67 q 410 148 383 114 q 438 213 438 182 l 438 301 l 379 301 q 260 294 317 301 q 169 261 204 286 q 133 182 133 236 q 169 94 133 122 q 254 67 204 67 m 485 -276 q 419 -266 450 -276 q 369 -233 389 -256 q 350 -172 350 -210 q 381 -61 350 -112 q 463 32 413 -10 l 508 8 q 435 -72 465 -29 q 406 -165 406 -115 q 428 -212 406 -199 q 492 -226 451 -226 q 512 -233 504 -226 q 519 -253 519 -240 q 512 -270 519 -264 q 485 -276 504 -276 z "},"å":{"ha":608,"x_min":43,"x_max":528,"o":"m 232 -10 q 99 35 154 -10 q 43 174 43 81 q 84 291 43 250 q 198 348 125 332 q 367 364 271 364 l 438 364 l 438 397 q 422 485 438 442 q 370 558 406 529 q 274 586 335 586 q 199 576 228 586 q 153 556 169 567 q 125 546 136 546 q 99 563 108 546 q 89 594 89 579 q 117 628 89 613 q 190 655 146 644 q 276 665 233 665 q 424 627 369 665 q 503 528 479 589 q 528 397 528 467 l 528 36 q 516 10 528 21 q 483 0 504 0 q 454 10 467 0 q 442 36 442 21 l 442 97 q 354 24 406 57 q 232 -10 303 -10 m 254 67 q 342 90 300 67 q 410 148 383 114 q 438 213 438 182 l 438 301 l 379 301 q 260 294 317 301 q 169 261 204 286 q 133 182 133 236 q 169 94 133 122 q 254 67 204 67 z "},"ã":{"ha":608,"x_min":43,"x_max":528,"o":"m 232 -10 q 99 35 154 -10 q 43 174 43 81 q 84 291 43 250 q 198 348 125 332 q 367 364 271 364 l 438 364 l 438 397 q 422 485 438 442 q 370 558 406 529 q 274 586 335 586 q 199 576 228 586 q 153 556 169 567 q 125 546 136 546 q 99 563 108 546 q 89 594 89 579 q 117 628 89 613 q 190 655 146 644 q 276 665 233 665 q 424 627 369 665 q 503 528 479 589 q 528 397 528 467 l 528 36 q 516 10 528 21 q 483 0 504 0 q 454 10 467 0 q 442 36 442 21 l 442 97 q 354 24 406 57 q 232 -10 303 -10 m 254 67 q 342 90 300 67 q 410 148 383 114 q 438 213 438 182 l 438 301 l 379 301 q 260 294 317 301 q 169 261 204 286 q 133 182 133 236 q 169 94 133 122 q 254 67 204 67 m 396 844 q 331 857 358 844 q 276 881 303 869 q 211 893 249 893 q 163 882 182 893 q 133 860 144 871 q 108 849 121 849 q 94 854 100 849 q 85 868 89 860 q 82 883 82 876 q 94 917 82 903 q 126 942 107 932 q 167 958 146 953 q 204 963 189 963 q 269 951 242 963 q 324 928 296 940 q 388 915 351 915 q 435 926 418 915 q 462 946 451 936 q 485 956 472 956 q 501 950 494 956 q 510 938 507 944 q 513 924 513 931 q 500 887 513 901 q 469 863 488 872 q 431 849 450 853 q 396 844 411 844 z "},"æ":{"ha":1011,"x_min":43,"x_max":961,"o":"m 239 -10 q 142 10 188 -10 q 70 70 97 29 q 43 174 43 111 q 83 291 43 250 q 196 348 124 332 q 364 364 268 364 l 435 364 l 435 397 q 419 487 435 443 q 367 559 403 531 q 268 588 331 588 q 197 578 225 588 q 151 558 168 568 q 122 547 133 547 q 96 564 106 547 q 86 594 86 581 q 115 630 86 614 q 187 656 143 646 q 275 667 231 667 q 410 630 358 667 q 486 536 461 593 q 576 629 519 593 q 701 665 633 665 q 792 650 746 665 q 876 602 838 635 q 938 519 914 569 q 961 397 961 468 q 950 335 961 356 q 913 308 939 314 q 842 301 886 301 l 529 301 l 529 250 q 589 118 529 167 q 738 69 649 69 q 822 83 790 69 q 872 111 853 97 q 906 125 890 125 q 924 119 915 125 q 939 103 933 113 q 944 82 944 93 q 911 40 944 61 q 828 4 878 18 q 724 -10 778 -10 q 579 27 646 -10 q 478 132 513 64 q 367 24 432 57 q 239 -10 301 -10 m 253 67 q 344 90 303 67 q 410 149 385 114 q 435 213 435 183 l 435 301 l 376 301 q 256 294 311 301 q 167 260 200 286 q 133 179 133 235 q 168 95 133 124 q 253 67 203 67 m 529 368 l 806 368 q 863 378 850 368 q 875 413 875 388 q 853 500 875 460 q 792 565 831 540 q 701 590 753 590 q 615 567 654 590 q 552 507 575 544 q 529 422 529 469 l 529 368 z "},"ǽ":{"ha":1011,"x_min":43,"x_max":961,"o":"m 239 -10 q 142 10 188 -10 q 70 70 97 29 q 43 174 43 111 q 83 291 43 250 q 196 348 124 332 q 364 364 268 364 l 435 364 l 435 397 q 419 487 435 443 q 367 559 403 531 q 268 588 331 588 q 197 578 225 588 q 151 558 168 568 q 122 547 133 547 q 96 564 106 547 q 86 594 86 581 q 115 630 86 614 q 187 656 143 646 q 275 667 231 667 q 410 630 358 667 q 486 536 461 593 q 576 629 519 593 q 701 665 633 665 q 792 650 746 665 q 876 602 838 635 q 938 519 914 569 q 961 397 961 468 q 950 335 961 356 q 913 308 939 314 q 842 301 886 301 l 529 301 l 529 250 q 589 118 529 167 q 738 69 649 69 q 822 83 790 69 q 872 111 853 97 q 906 125 890 125 q 924 119 915 125 q 939 103 933 113 q 944 82 944 93 q 911 40 944 61 q 828 4 878 18 q 724 -10 778 -10 q 579 27 646 -10 q 478 132 513 64 q 367 24 432 57 q 239 -10 301 -10 m 253 67 q 344 90 303 67 q 410 149 385 114 q 435 213 435 183 l 435 301 l 376 301 q 256 294 311 301 q 167 260 200 286 q 133 179 133 235 q 168 95 133 124 q 253 67 203 67 m 529 368 l 806 368 q 863 378 850 368 q 875 413 875 388 q 853 500 875 460 q 792 565 831 540 q 701 590 753 590 q 615 567 654 590 q 552 507 575 544 q 529 422 529 469 l 529 368 m 439 821 q 414 833 425 821 q 403 860 403 846 q 418 885 403 878 l 574 969 q 585 974 581 974 q 609 961 600 974 q 618 935 618 949 q 601 904 618 914 l 453 825 q 446 822 450 824 q 439 821 442 821 z "},"b":{"ha":672,"x_min":88,"x_max":611,"o":"m 365 -10 q 249 22 300 -10 q 175 97 197 54 l 175 36 q 163 11 175 22 q 132 0 150 0 q 101 11 114 0 q 88 36 88 22 l 88 1026 q 101 1051 88 1042 q 132 1060 114 1060 q 165 1051 151 1060 q 178 1026 178 1042 l 178 560 q 248 633 201 600 q 363 665 294 665 q 487 630 431 665 q 577 536 543 594 q 611 406 611 478 l 611 254 q 577 125 611 186 q 488 27 543 64 q 365 -10 432 -10 m 349 74 q 435 99 396 74 q 497 167 474 125 q 521 254 521 208 l 521 406 q 497 490 521 450 q 435 556 474 531 q 347 582 396 582 q 267 560 306 582 q 203 500 228 539 q 178 406 178 461 l 178 211 q 201 158 178 190 q 263 99 224 125 q 349 74 301 74 z "},"c":{"ha":572,"x_min":64,"x_max":536,"o":"m 333 -10 q 182 25 242 -10 q 93 119 122 60 q 64 254 64 179 l 64 403 q 92 536 64 476 q 181 631 121 596 q 333 665 242 665 q 435 651 392 665 q 503 615 479 636 q 528 575 528 594 q 523 556 528 567 q 509 538 518 546 q 489 531 500 531 q 460 544 476 531 q 417 569 444 557 q 338 582 389 582 q 201 534 247 582 q 154 403 154 486 l 154 254 q 201 122 154 169 q 339 74 247 74 q 421 87 392 74 q 466 113 450 100 q 496 126 482 126 q 517 119 508 126 q 531 103 526 113 q 536 82 536 93 q 511 42 536 64 q 441 6 486 21 q 333 -10 396 -10 z "},"ć":{"ha":572,"x_min":64,"x_max":536,"o":"m 333 -10 q 182 25 242 -10 q 93 119 122 60 q 64 254 64 179 l 64 403 q 92 536 64 476 q 181 631 121 596 q 333 665 242 665 q 435 651 392 665 q 503 615 479 636 q 528 575 528 594 q 523 556 528 567 q 509 538 518 546 q 489 531 500 531 q 460 544 476 531 q 417 569 444 557 q 338 582 389 582 q 201 534 247 582 q 154 403 154 486 l 154 254 q 201 122 154 169 q 339 74 247 74 q 421 87 392 74 q 466 113 450 100 q 496 126 482 126 q 517 119 508 126 q 531 103 526 113 q 536 82 536 93 q 511 42 536 64 q 441 6 486 21 q 333 -10 396 -10 m 226 821 q 201 833 213 821 q 190 860 190 846 q 206 885 190 878 l 361 969 q 372 974 368 974 q 397 961 388 974 q 406 935 406 949 q 389 904 406 914 l 240 825 q 233 822 238 824 q 226 821 229 821 z "},"č":{"ha":572,"x_min":64,"x_max":536,"o":"m 333 -10 q 182 25 242 -10 q 93 119 122 60 q 64 254 64 179 l 64 403 q 92 536 64 476 q 181 631 121 596 q 333 665 242 665 q 435 651 392 665 q 503 615 479 636 q 528 575 528 594 q 523 556 528 567 q 509 538 518 546 q 489 531 500 531 q 460 544 476 531 q 417 569 444 557 q 338 582 389 582 q 201 534 247 582 q 154 403 154 486 l 154 254 q 201 122 154 169 q 339 74 247 74 q 421 87 392 74 q 466 113 450 100 q 496 126 482 126 q 517 119 508 126 q 531 103 526 113 q 536 82 536 93 q 511 42 536 64 q 441 6 486 21 q 333 -10 396 -10 m 292 814 q 264 828 276 814 l 124 953 q 110 967 114 960 q 106 985 106 975 q 113 1006 106 996 q 132 1015 121 1015 q 153 1007 143 1015 l 292 879 l 429 1007 q 450 1015 439 1015 q 469 1006 463 1015 q 476 985 476 996 q 472 967 476 975 q 460 953 468 960 l 319 828 q 292 814 304 814 z "},"ç":{"ha":572,"x_min":64,"x_max":536,"o":"m 333 -10 q 182 25 242 -10 q 93 119 122 60 q 64 254 64 179 l 64 403 q 92 536 64 476 q 181 631 121 596 q 333 665 242 665 q 435 651 392 665 q 503 615 479 636 q 528 575 528 594 q 523 556 528 567 q 509 538 518 546 q 489 531 500 531 q 460 544 476 531 q 417 569 444 557 q 338 582 389 582 q 201 534 247 582 q 154 403 154 486 l 154 254 q 201 122 154 169 q 339 74 247 74 q 421 87 392 74 q 466 113 450 100 q 496 126 482 126 q 517 119 508 126 q 531 103 526 113 q 536 82 536 93 q 511 42 536 64 q 441 6 486 21 q 333 -10 396 -10 m 343 -292 q 299 -287 324 -292 q 254 -276 274 -283 q 235 -256 235 -268 q 238 -243 235 -251 q 245 -228 240 -235 q 257 -222 250 -222 q 283 -231 265 -222 q 335 -240 300 -240 q 392 -225 375 -240 q 408 -187 408 -210 q 385 -145 408 -158 q 321 -129 361 -132 l 268 -125 l 304 13 l 360 13 l 333 -83 q 435 -116 404 -86 q 467 -185 467 -146 q 453 -233 467 -208 q 413 -275 440 -258 q 343 -292 385 -292 z "},"ĉ":{"ha":572,"x_min":64,"x_max":536,"o":"m 333 -10 q 182 25 242 -10 q 93 119 122 60 q 64 254 64 179 l 64 403 q 92 536 64 476 q 181 631 121 596 q 333 665 242 665 q 435 651 392 665 q 503 615 479 636 q 528 575 528 594 q 523 556 528 567 q 509 538 518 546 q 489 531 500 531 q 460 544 476 531 q 417 569 444 557 q 338 582 389 582 q 201 534 247 582 q 154 403 154 486 l 154 254 q 201 122 154 169 q 339 74 247 74 q 421 87 392 74 q 466 113 450 100 q 496 126 482 126 q 517 119 508 126 q 531 103 526 113 q 536 82 536 93 q 511 42 536 64 q 441 6 486 21 q 333 -10 396 -10 m 129 822 q 109 833 118 822 q 100 858 100 844 q 105 875 100 867 q 118 889 110 883 l 263 967 q 286 974 275 974 q 310 967 299 974 l 454 889 q 468 876 464 885 q 472 857 472 867 q 464 833 472 843 q 444 824 456 824 q 438 825 442 824 q 431 828 433 826 l 286 904 l 142 826 q 135 824 139 825 q 129 822 132 822 z "},"ċ":{"ha":572,"x_min":64,"x_max":536,"o":"m 333 -10 q 182 25 242 -10 q 93 119 122 60 q 64 254 64 179 l 64 403 q 92 536 64 476 q 181 631 121 596 q 333 665 242 665 q 435 651 392 665 q 503 615 479 636 q 528 575 528 594 q 523 556 528 567 q 509 538 518 546 q 489 531 500 531 q 460 544 476 531 q 417 569 444 557 q 338 582 389 582 q 201 534 247 582 q 154 403 154 486 l 154 254 q 201 122 154 169 q 339 74 247 74 q 421 87 392 74 q 466 113 450 100 q 496 126 482 126 q 517 119 508 126 q 531 103 526 113 q 536 82 536 93 q 511 42 536 64 q 441 6 486 21 q 333 -10 396 -10 m 290 825 q 251 842 267 825 q 235 881 235 858 q 251 919 235 903 q 290 935 267 935 q 328 919 313 935 q 344 881 344 903 q 328 842 344 858 q 290 825 313 825 z "},"d":{"ha":672,"x_min":63,"x_max":585,"o":"m 308 -10 q 186 27 243 -10 q 96 125 129 64 q 63 254 63 186 l 63 406 q 96 536 63 478 q 186 630 129 594 q 311 665 243 665 q 426 633 379 665 q 494 560 472 600 l 494 1026 q 508 1051 494 1042 q 540 1060 522 1060 q 573 1051 561 1060 q 585 1026 585 1042 l 585 36 q 573 11 585 22 q 540 0 561 0 q 511 11 524 0 q 499 36 499 22 l 499 97 q 424 22 476 54 q 308 -10 372 -10 m 324 74 q 412 99 374 74 q 472 158 450 125 q 494 211 494 190 l 494 406 q 469 500 494 461 q 406 560 444 539 q 325 582 367 582 q 239 556 278 582 q 176 490 200 531 q 153 406 153 450 l 153 254 q 176 167 153 208 q 239 99 200 125 q 324 74 278 74 z "},"ð":{"ha":669,"x_min":61,"x_max":590,"o":"m 326 -10 q 225 12 272 -10 q 141 70 178 33 q 83 154 104 107 q 61 254 61 201 l 61 406 q 94 534 61 475 q 184 629 128 593 q 307 665 240 665 q 388 651 349 665 q 458 612 426 638 q 500 550 489 586 q 466 724 493 649 q 401 850 439 799 l 286 783 q 271 779 279 779 q 246 792 257 779 q 235 819 235 806 q 250 844 235 836 l 357 907 q 285 960 324 943 q 211 978 247 978 q 195 991 201 982 q 189 1014 189 1000 q 193 1034 189 1024 q 209 1052 197 1044 q 239 1060 221 1060 q 338 1033 286 1060 q 438 953 390 1007 l 538 1011 q 550 1015 544 1015 q 575 1003 564 1015 q 586 976 586 990 q 572 951 586 960 l 478 896 q 560 720 529 822 q 590 500 590 618 l 590 254 q 554 124 590 185 q 458 27 518 64 q 326 -10 397 -10 m 326 74 q 414 99 375 74 q 476 167 453 125 q 500 254 500 208 l 500 410 q 476 495 500 456 q 412 558 451 535 q 325 582 372 582 q 238 556 276 582 q 175 490 199 531 q 151 406 151 450 l 151 254 q 175 167 151 208 q 238 99 199 125 q 326 74 278 74 z "},"ď":{"ha":672,"x_min":63,"x_max":794,"o":"m 308 -10 q 186 27 243 -10 q 96 125 129 64 q 63 254 63 186 l 63 406 q 96 536 63 478 q 186 630 129 594 q 311 665 243 665 q 426 633 379 665 q 494 560 472 600 l 494 1026 q 508 1051 494 1042 q 540 1060 522 1060 q 573 1051 561 1060 q 585 1026 585 1042 l 585 36 q 573 11 585 22 q 540 0 561 0 q 511 11 524 0 q 499 36 499 22 l 499 97 q 424 22 476 54 q 308 -10 372 -10 m 324 74 q 412 99 374 74 q 472 158 450 125 q 494 211 494 190 l 494 406 q 469 500 494 461 q 406 560 444 539 q 325 582 367 582 q 239 556 278 582 q 176 490 200 531 q 153 406 153 450 l 153 254 q 176 167 153 208 q 239 99 200 125 q 324 74 278 74 m 713 792 q 690 799 701 792 q 679 821 679 807 q 682 833 679 828 l 708 906 q 678 928 690 913 q 667 965 667 944 q 685 1010 667 992 q 731 1029 703 1029 q 776 1010 757 1029 q 794 965 794 992 q 790 944 794 958 q 780 910 786 929 q 763 865 774 890 q 738 808 751 839 q 727 797 735 801 q 713 792 719 792 z "},"đ":{"ha":672,"x_min":63,"x_max":683,"o":"m 308 -10 q 186 27 243 -10 q 96 125 129 64 q 63 254 63 186 l 63 406 q 96 536 63 478 q 186 630 129 594 q 311 665 243 665 q 426 633 379 665 q 494 560 472 600 l 494 797 l 329 797 q 307 808 315 797 q 299 833 299 819 q 307 860 299 849 q 329 871 315 871 l 494 871 l 494 1026 q 508 1051 494 1042 q 540 1060 522 1060 q 573 1051 561 1060 q 585 1026 585 1042 l 585 871 l 651 871 q 674 860 665 871 q 683 833 683 849 q 674 808 683 818 q 651 797 665 797 l 585 797 l 585 36 q 573 11 585 22 q 540 0 561 0 q 511 11 524 0 q 499 36 499 22 l 499 97 q 424 22 476 54 q 308 -10 372 -10 m 324 74 q 412 99 374 74 q 472 158 450 125 q 494 211 494 190 l 494 406 q 469 500 494 461 q 406 560 444 539 q 325 582 367 582 q 239 556 278 582 q 176 490 200 531 q 153 406 153 450 l 153 254 q 176 167 153 208 q 239 99 200 125 q 324 74 278 74 z "},"e":{"ha":636,"x_min":63,"x_max":588,"o":"m 361 -10 q 206 24 274 -10 q 101 116 139 57 q 63 254 63 175 l 63 410 q 99 538 63 479 q 195 631 135 596 q 328 665 256 665 q 456 633 397 665 q 551 543 515 600 q 588 413 588 486 q 569 335 588 358 q 524 307 551 313 q 467 301 497 301 l 153 301 l 153 250 q 213 118 153 167 q 364 69 272 69 q 450 83 419 69 q 498 111 481 97 q 531 125 515 125 q 551 117 542 125 q 565 100 560 110 q 569 82 569 90 q 544 44 569 67 q 472 6 519 22 q 361 -10 425 -10 m 153 368 l 431 368 q 486 377 472 368 q 500 415 500 386 q 478 500 500 460 q 417 565 457 540 q 326 590 378 590 q 240 567 279 590 q 176 506 200 544 q 153 421 153 468 l 153 368 z "},"é":{"ha":636,"x_min":63,"x_max":588,"o":"m 361 -10 q 206 24 274 -10 q 101 116 139 57 q 63 254 63 175 l 63 410 q 99 538 63 479 q 195 631 135 596 q 328 665 256 665 q 456 633 397 665 q 551 543 515 600 q 588 413 588 486 q 569 335 588 358 q 524 307 551 313 q 467 301 497 301 l 153 301 l 153 250 q 213 118 153 167 q 364 69 272 69 q 450 83 419 69 q 498 111 481 97 q 531 125 515 125 q 551 117 542 125 q 565 100 560 110 q 569 82 569 90 q 544 44 569 67 q 472 6 519 22 q 361 -10 425 -10 m 153 368 l 431 368 q 486 377 472 368 q 500 415 500 386 q 478 500 500 460 q 417 565 457 540 q 326 590 378 590 q 240 567 279 590 q 176 506 200 544 q 153 421 153 468 l 153 368 m 254 821 q 229 833 240 821 q 218 860 218 846 q 233 885 218 878 l 389 969 q 400 974 396 974 q 424 961 415 974 q 433 935 433 949 q 417 904 433 914 l 268 825 q 261 822 265 824 q 254 821 257 821 z "},"ĕ":{"ha":636,"x_min":63,"x_max":588,"o":"m 361 -10 q 206 24 274 -10 q 101 116 139 57 q 63 254 63 175 l 63 410 q 99 538 63 479 q 195 631 135 596 q 328 665 256 665 q 456 633 397 665 q 551 543 515 600 q 588 413 588 486 q 569 335 588 358 q 524 307 551 313 q 467 301 497 301 l 153 301 l 153 250 q 213 118 153 167 q 364 69 272 69 q 450 83 419 69 q 498 111 481 97 q 531 125 515 125 q 551 117 542 125 q 565 100 560 110 q 569 82 569 90 q 544 44 569 67 q 472 6 519 22 q 361 -10 425 -10 m 153 368 l 431 368 q 486 377 472 368 q 500 415 500 386 q 478 500 500 460 q 417 565 457 540 q 326 590 378 590 q 240 567 279 590 q 176 506 200 544 q 153 421 153 468 l 153 368 m 314 829 q 211 868 257 829 q 154 963 165 907 q 159 984 151 976 q 179 992 167 992 l 189 992 q 206 985 200 992 q 215 967 213 978 q 251 904 224 929 q 314 879 279 879 q 376 904 349 879 q 411 967 404 929 q 420 985 414 978 q 438 992 426 992 l 447 992 q 467 983 460 992 q 474 963 475 975 q 415 868 461 907 q 314 829 369 829 z "},"ě":{"ha":636,"x_min":63,"x_max":588,"o":"m 361 -10 q 206 24 274 -10 q 101 116 139 57 q 63 254 63 175 l 63 410 q 99 538 63 479 q 195 631 135 596 q 328 665 256 665 q 456 633 397 665 q 551 543 515 600 q 588 413 588 486 q 569 335 588 358 q 524 307 551 313 q 467 301 497 301 l 153 301 l 153 250 q 213 118 153 167 q 364 69 272 69 q 450 83 419 69 q 498 111 481 97 q 531 125 515 125 q 551 117 542 125 q 565 100 560 110 q 569 82 569 90 q 544 44 569 67 q 472 6 519 22 q 361 -10 425 -10 m 153 368 l 431 368 q 486 377 472 368 q 500 415 500 386 q 478 500 500 460 q 417 565 457 540 q 326 590 378 590 q 240 567 279 590 q 176 506 200 544 q 153 421 153 468 l 153 368 m 322 814 q 294 828 307 814 l 154 953 q 140 967 144 960 q 136 985 136 975 q 144 1006 136 996 q 163 1015 151 1015 q 183 1007 174 1015 l 322 879 l 460 1007 q 481 1015 469 1015 q 500 1006 493 1015 q 507 985 507 996 q 503 967 507 975 q 490 953 499 960 l 350 828 q 322 814 335 814 z "},"ê":{"ha":636,"x_min":63,"x_max":588,"o":"m 361 -10 q 206 24 274 -10 q 101 116 139 57 q 63 254 63 175 l 63 410 q 99 538 63 479 q 195 631 135 596 q 328 665 256 665 q 456 633 397 665 q 551 543 515 600 q 588 413 588 486 q 569 335 588 358 q 524 307 551 313 q 467 301 497 301 l 153 301 l 153 250 q 213 118 153 167 q 364 69 272 69 q 450 83 419 69 q 498 111 481 97 q 531 125 515 125 q 551 117 542 125 q 565 100 560 110 q 569 82 569 90 q 544 44 569 67 q 472 6 519 22 q 361 -10 425 -10 m 153 368 l 431 368 q 486 377 472 368 q 500 415 500 386 q 478 500 500 460 q 417 565 457 540 q 326 590 378 590 q 240 567 279 590 q 176 506 200 544 q 153 421 153 468 l 153 368 m 164 822 q 144 833 153 822 q 135 858 135 844 q 140 875 135 867 q 153 889 144 883 l 297 967 q 321 974 310 974 q 344 967 333 974 l 489 889 q 503 876 499 885 q 507 857 507 867 q 499 833 507 843 q 479 824 490 824 q 472 825 476 824 q 465 828 468 826 l 321 904 l 176 826 q 170 824 174 825 q 164 822 167 822 z "},"ë":{"ha":636,"x_min":63,"x_max":588,"o":"m 361 -10 q 206 24 274 -10 q 101 116 139 57 q 63 254 63 175 l 63 410 q 99 538 63 479 q 195 631 135 596 q 328 665 256 665 q 456 633 397 665 q 551 543 515 600 q 588 413 588 486 q 569 335 588 358 q 524 307 551 313 q 467 301 497 301 l 153 301 l 153 250 q 213 118 153 167 q 364 69 272 69 q 450 83 419 69 q 498 111 481 97 q 531 125 515 125 q 551 117 542 125 q 565 100 560 110 q 569 82 569 90 q 544 44 569 67 q 472 6 519 22 q 361 -10 425 -10 m 153 368 l 431 368 q 486 377 472 368 q 500 415 500 386 q 478 500 500 460 q 417 565 457 540 q 326 590 378 590 q 240 567 279 590 q 176 506 200 544 q 153 421 153 468 l 153 368 m 407 824 q 371 839 386 824 q 356 875 356 854 q 371 911 356 897 q 407 925 386 925 q 443 911 429 925 q 457 875 457 897 q 443 839 457 854 q 407 824 429 824 m 236 824 q 199 839 214 824 q 185 875 185 854 q 199 911 185 897 q 236 925 214 925 q 272 911 257 925 q 286 875 286 897 q 272 839 286 854 q 236 824 257 824 z "},"ė":{"ha":636,"x_min":63,"x_max":588,"o":"m 361 -10 q 206 24 274 -10 q 101 116 139 57 q 63 254 63 175 l 63 410 q 99 538 63 479 q 195 631 135 596 q 328 665 256 665 q 456 633 397 665 q 551 543 515 600 q 588 413 588 486 q 569 335 588 358 q 524 307 551 313 q 467 301 497 301 l 153 301 l 153 250 q 213 118 153 167 q 364 69 272 69 q 450 83 419 69 q 498 111 481 97 q 531 125 515 125 q 551 117 542 125 q 565 100 560 110 q 569 82 569 90 q 544 44 569 67 q 472 6 519 22 q 361 -10 425 -10 m 153 368 l 431 368 q 486 377 472 368 q 500 415 500 386 q 478 500 500 460 q 417 565 457 540 q 326 590 378 590 q 240 567 279 590 q 176 506 200 544 q 153 421 153 468 l 153 368 m 322 825 q 283 842 299 825 q 267 881 267 858 q 283 919 267 903 q 322 935 299 935 q 360 919 344 935 q 376 881 376 903 q 360 842 376 858 q 322 825 344 825 z "},"è":{"ha":636,"x_min":63,"x_max":588,"o":"m 361 -10 q 206 24 274 -10 q 101 116 139 57 q 63 254 63 175 l 63 410 q 99 538 63 479 q 195 631 135 596 q 328 665 256 665 q 456 633 397 665 q 551 543 515 600 q 588 413 588 486 q 569 335 588 358 q 524 307 551 313 q 467 301 497 301 l 153 301 l 153 250 q 213 118 153 167 q 364 69 272 69 q 450 83 419 69 q 498 111 481 97 q 531 125 515 125 q 551 117 542 125 q 565 100 560 110 q 569 82 569 90 q 544 44 569 67 q 472 6 519 22 q 361 -10 425 -10 m 153 368 l 431 368 q 486 377 472 368 q 500 415 500 386 q 478 500 500 460 q 417 565 457 540 q 326 590 378 590 q 240 567 279 590 q 176 506 200 544 q 153 421 153 468 l 153 368 m 386 821 q 379 822 383 821 q 372 825 375 824 l 225 904 q 207 935 207 914 q 217 961 207 949 q 240 974 226 974 q 253 969 246 974 l 407 885 q 422 860 422 878 q 412 833 422 846 q 386 821 401 821 z "},"ē":{"ha":636,"x_min":63,"x_max":588,"o":"m 361 -10 q 206 24 274 -10 q 101 116 139 57 q 63 254 63 175 l 63 410 q 99 538 63 479 q 195 631 135 596 q 328 665 256 665 q 456 633 397 665 q 551 543 515 600 q 588 413 588 486 q 569 335 588 358 q 524 307 551 313 q 467 301 497 301 l 153 301 l 153 250 q 213 118 153 167 q 364 69 272 69 q 450 83 419 69 q 498 111 481 97 q 531 125 515 125 q 551 117 542 125 q 565 100 560 110 q 569 82 569 90 q 544 44 569 67 q 472 6 519 22 q 361 -10 425 -10 m 153 368 l 431 368 q 486 377 472 368 q 500 415 500 386 q 478 500 500 460 q 417 565 457 540 q 326 590 378 590 q 240 567 279 590 q 176 506 200 544 q 153 421 153 468 l 153 368 z "},"ę":{"ha":636,"x_min":63,"x_max":588,"o":"m 361 -10 q 206 24 274 -10 q 101 116 139 57 q 63 254 63 175 l 63 410 q 99 538 63 479 q 195 631 135 596 q 328 665 256 665 q 456 633 397 665 q 551 543 515 600 q 588 413 588 486 q 569 335 588 358 q 524 307 551 313 q 467 301 497 301 l 153 301 l 153 250 q 213 118 153 167 q 364 69 272 69 q 450 83 419 69 q 498 111 481 97 q 531 125 515 125 q 551 117 542 125 q 565 100 560 110 q 569 82 569 90 q 544 44 569 67 q 472 6 519 22 q 361 -10 425 -10 m 153 368 l 431 368 q 486 377 472 368 q 500 415 500 386 q 478 500 500 460 q 417 565 457 540 q 326 590 378 590 q 240 567 279 590 q 176 506 200 544 q 153 421 153 468 l 153 368 m 497 -250 q 432 -240 463 -250 q 382 -206 401 -229 q 363 -146 363 -183 q 394 -35 363 -86 q 475 58 425 17 l 521 35 q 448 -46 478 -3 q 418 -139 418 -89 q 441 -186 418 -172 q 504 -200 464 -200 q 524 -207 517 -200 q 532 -226 532 -214 q 524 -244 532 -237 q 497 -250 517 -250 z "},"ə":{"ha":636,"x_min":49,"x_max":574,"o":"m 308 -10 q 180 23 239 -10 q 85 113 121 56 q 49 244 49 171 q 67 322 49 299 q 112 349 85 344 q 169 354 139 354 l 483 354 l 483 406 q 424 538 483 489 q 272 588 365 588 q 186 574 217 588 q 139 546 156 560 q 106 532 122 532 q 85 539 94 532 q 72 556 76 546 q 67 574 67 565 q 92 612 67 590 q 164 649 117 633 q 275 665 211 665 q 430 632 363 665 q 535 540 497 599 q 574 403 574 482 l 574 247 q 538 119 574 178 q 442 26 501 61 q 308 -10 382 -10 m 310 65 q 397 89 358 65 q 460 151 436 113 q 483 235 483 189 l 483 288 l 206 288 q 150 278 164 288 q 136 240 136 269 q 158 156 136 196 q 219 91 179 117 q 310 65 258 65 z "},"f":{"ha":424,"x_min":88,"x_max":408,"o":"m 131 0 q 100 10 113 0 q 88 35 88 19 l 88 804 q 122 933 88 875 q 212 1025 156 990 q 335 1060 268 1060 l 369 1060 q 399 1047 389 1060 q 408 1018 408 1035 q 399 990 408 1003 q 369 978 389 978 l 346 978 q 260 955 299 978 q 201 894 222 932 q 178 811 179 856 l 178 657 l 376 657 q 400 646 392 657 q 408 621 408 635 q 400 594 408 606 q 376 582 392 582 l 178 582 l 178 35 q 164 10 178 19 q 131 0 150 0 z "},"g":{"ha":631,"x_min":38,"x_max":614,"o":"m 319 -322 q 174 -299 238 -322 q 74 -235 111 -276 q 38 -137 38 -194 q 74 -40 38 -76 q 156 14 110 -4 q 101 48 122 26 q 79 110 79 69 q 99 172 79 149 q 149 210 118 194 q 92 285 111 240 q 72 385 72 331 l 72 438 q 101 556 72 504 q 185 636 131 607 q 311 665 239 665 q 401 650 360 665 q 474 607 443 635 q 521 672 494 650 q 572 694 547 694 q 603 683 593 694 q 614 658 614 671 q 607 638 614 646 q 590 628 600 631 q 552 613 574 625 q 513 568 531 600 q 542 508 532 542 q 551 438 551 475 l 551 385 q 521 267 551 319 q 435 184 490 214 q 310 154 381 154 q 203 178 250 154 q 174 158 188 169 q 160 124 160 146 q 192 79 160 93 q 272 60 224 65 q 376 48 321 54 q 480 25 431 42 q 560 -26 529 8 q 592 -125 592 -61 q 556 -234 592 -190 q 460 -300 521 -278 q 319 -322 399 -322 m 318 -254 q 455 -219 406 -254 q 504 -128 504 -185 q 477 -60 504 -83 q 409 -28 450 -37 q 324 -14 368 -18 q 249 -6 281 -10 q 163 -50 200 -21 q 125 -129 125 -79 q 176 -219 125 -185 q 318 -254 228 -254 m 313 222 q 423 269 383 222 q 463 385 463 315 l 463 438 q 423 551 463 506 q 311 597 383 597 q 199 551 239 597 q 160 438 160 506 l 160 386 q 200 269 160 317 q 313 222 240 222 z "},"ğ":{"ha":631,"x_min":38,"x_max":614,"o":"m 319 -322 q 174 -299 238 -322 q 74 -235 111 -276 q 38 -137 38 -194 q 74 -40 38 -76 q 156 14 110 -4 q 101 48 122 26 q 79 110 79 69 q 99 172 79 149 q 149 210 118 194 q 92 285 111 240 q 72 385 72 331 l 72 438 q 101 556 72 504 q 185 636 131 607 q 311 665 239 665 q 401 650 360 665 q 474 607 443 635 q 521 672 494 650 q 572 694 547 694 q 603 683 593 694 q 614 658 614 671 q 607 638 614 646 q 590 628 600 631 q 552 613 574 625 q 513 568 531 600 q 542 508 532 542 q 551 438 551 475 l 551 385 q 521 267 551 319 q 435 184 490 214 q 310 154 381 154 q 203 178 250 154 q 174 158 188 169 q 160 124 160 146 q 192 79 160 93 q 272 60 224 65 q 376 48 321 54 q 480 25 431 42 q 560 -26 529 8 q 592 -125 592 -61 q 556 -234 592 -190 q 460 -300 521 -278 q 319 -322 399 -322 m 318 -254 q 455 -219 406 -254 q 504 -128 504 -185 q 477 -60 504 -83 q 409 -28 450 -37 q 324 -14 368 -18 q 249 -6 281 -10 q 163 -50 200 -21 q 125 -129 125 -79 q 176 -219 125 -185 q 318 -254 228 -254 m 313 222 q 423 269 383 222 q 463 385 463 315 l 463 438 q 423 551 463 506 q 311 597 383 597 q 199 551 239 597 q 160 438 160 506 l 160 386 q 200 269 160 317 q 313 222 240 222 m 307 829 q 204 868 250 829 q 147 963 158 907 q 152 984 144 976 q 172 992 160 992 l 182 992 q 199 985 193 992 q 208 967 206 978 q 244 904 217 929 q 307 879 272 879 q 369 904 342 879 q 404 967 397 929 q 413 985 407 978 q 431 992 419 992 l 440 992 q 460 983 453 992 q 467 963 468 975 q 408 868 454 907 q 307 829 363 829 z "},"ĝ":{"ha":631,"x_min":38,"x_max":614,"o":"m 319 -322 q 174 -299 238 -322 q 74 -235 111 -276 q 38 -137 38 -194 q 74 -40 38 -76 q 156 14 110 -4 q 101 48 122 26 q 79 110 79 69 q 99 172 79 149 q 149 210 118 194 q 92 285 111 240 q 72 385 72 331 l 72 438 q 101 556 72 504 q 185 636 131 607 q 311 665 239 665 q 401 650 360 665 q 474 607 443 635 q 521 672 494 650 q 572 694 547 694 q 603 683 593 694 q 614 658 614 671 q 607 638 614 646 q 590 628 600 631 q 552 613 574 625 q 513 568 531 600 q 542 508 532 542 q 551 438 551 475 l 551 385 q 521 267 551 319 q 435 184 490 214 q 310 154 381 154 q 203 178 250 154 q 174 158 188 169 q 160 124 160 146 q 192 79 160 93 q 272 60 224 65 q 376 48 321 54 q 480 25 431 42 q 560 -26 529 8 q 592 -125 592 -61 q 556 -234 592 -190 q 460 -300 521 -278 q 319 -322 399 -322 m 318 -254 q 455 -219 406 -254 q 504 -128 504 -185 q 477 -60 504 -83 q 409 -28 450 -37 q 324 -14 368 -18 q 249 -6 281 -10 q 163 -50 200 -21 q 125 -129 125 -79 q 176 -219 125 -185 q 318 -254 228 -254 m 313 222 q 423 269 383 222 q 463 385 463 315 l 463 438 q 423 551 463 506 q 311 597 383 597 q 199 551 239 597 q 160 438 160 506 l 160 386 q 200 269 160 317 q 313 222 240 222 m 150 822 q 130 833 139 822 q 121 858 121 844 q 126 875 121 867 q 139 889 131 883 l 283 967 q 307 974 296 974 q 331 967 319 974 l 475 889 q 489 876 485 885 q 493 857 493 867 q 485 833 493 843 q 465 824 476 824 q 458 825 463 824 q 451 828 454 826 l 307 904 l 163 826 q 156 824 160 825 q 150 822 153 822 z "},"ģ":{"ha":631,"x_min":38,"x_max":614,"o":"m 319 -322 q 174 -299 238 -322 q 74 -235 111 -276 q 38 -137 38 -194 q 74 -40 38 -76 q 156 14 110 -4 q 101 48 122 26 q 79 110 79 69 q 99 172 79 149 q 149 210 118 194 q 92 285 111 240 q 72 385 72 331 l 72 438 q 101 556 72 504 q 185 636 131 607 q 311 665 239 665 q 401 650 360 665 q 474 607 443 635 q 521 672 494 650 q 572 694 547 694 q 603 683 593 694 q 614 658 614 671 q 607 638 614 646 q 590 628 600 631 q 552 613 574 625 q 513 568 531 600 q 542 508 532 542 q 551 438 551 475 l 551 385 q 521 267 551 319 q 435 184 490 214 q 310 154 381 154 q 203 178 250 154 q 174 158 188 169 q 160 124 160 146 q 192 79 160 93 q 272 60 224 65 q 376 48 321 54 q 480 25 431 42 q 560 -26 529 8 q 592 -125 592 -61 q 556 -234 592 -190 q 460 -300 521 -278 q 319 -322 399 -322 m 318 -254 q 455 -219 406 -254 q 504 -128 504 -185 q 477 -60 504 -83 q 409 -28 450 -37 q 324 -14 368 -18 q 249 -6 281 -10 q 163 -50 200 -21 q 125 -129 125 -79 q 176 -219 125 -185 q 318 -254 228 -254 m 313 222 q 423 269 383 222 q 463 385 463 315 l 463 438 q 423 551 463 506 q 311 597 383 597 q 199 551 239 597 q 160 438 160 506 l 160 386 q 200 269 160 317 q 313 222 240 222 m 250 821 q 226 833 236 821 q 215 860 215 846 q 231 885 215 878 l 385 969 q 397 974 392 974 q 422 961 413 974 q 431 935 431 949 q 413 904 431 914 l 265 825 q 258 822 261 824 q 250 821 254 821 z "},"ġ":{"ha":631,"x_min":38,"x_max":614,"o":"m 319 -322 q 174 -299 238 -322 q 74 -235 111 -276 q 38 -137 38 -194 q 74 -40 38 -76 q 156 14 110 -4 q 101 48 122 26 q 79 110 79 69 q 99 172 79 149 q 149 210 118 194 q 92 285 111 240 q 72 385 72 331 l 72 438 q 101 556 72 504 q 185 636 131 607 q 311 665 239 665 q 401 650 360 665 q 474 607 443 635 q 521 672 494 650 q 572 694 547 694 q 603 683 593 694 q 614 658 614 671 q 607 638 614 646 q 590 628 600 631 q 552 613 574 625 q 513 568 531 600 q 542 508 532 542 q 551 438 551 475 l 551 385 q 521 267 551 319 q 435 184 490 214 q 310 154 381 154 q 203 178 250 154 q 174 158 188 169 q 160 124 160 146 q 192 79 160 93 q 272 60 224 65 q 376 48 321 54 q 480 25 431 42 q 560 -26 529 8 q 592 -125 592 -61 q 556 -234 592 -190 q 460 -300 521 -278 q 319 -322 399 -322 m 318 -254 q 455 -219 406 -254 q 504 -128 504 -185 q 477 -60 504 -83 q 409 -28 450 -37 q 324 -14 368 -18 q 249 -6 281 -10 q 163 -50 200 -21 q 125 -129 125 -79 q 176 -219 125 -185 q 318 -254 228 -254 m 313 222 q 423 269 383 222 q 463 385 463 315 l 463 438 q 423 551 463 506 q 311 597 383 597 q 199 551 239 597 q 160 438 160 506 l 160 386 q 200 269 160 317 q 313 222 240 222 m 311 825 q 272 842 288 825 q 256 881 256 858 q 272 919 256 903 q 311 935 288 935 q 349 919 333 935 q 365 881 365 903 q 349 842 365 858 q 311 825 333 825 z "},"h":{"ha":688,"x_min":88,"x_max":607,"o":"m 132 0 q 101 11 114 0 q 88 36 88 22 l 88 1026 q 101 1051 88 1042 q 132 1060 114 1060 q 165 1051 151 1060 q 178 1026 178 1042 l 178 560 q 247 633 201 600 q 361 665 293 665 q 484 630 428 665 q 574 536 540 594 q 607 406 607 478 l 607 36 q 593 9 607 18 q 561 0 579 0 q 531 9 546 0 q 517 36 517 18 l 517 406 q 493 490 517 450 q 431 556 469 531 q 344 582 392 582 q 265 560 303 582 q 202 500 226 539 q 178 406 178 461 l 178 36 q 165 11 178 22 q 132 0 151 0 z "},"ħ":{"ha":688,"x_min":13,"x_max":607,"o":"m 132 0 q 101 11 114 0 q 88 36 88 22 l 88 806 l 47 806 q 22 816 32 806 q 13 840 13 826 q 22 867 13 857 q 47 876 32 876 l 88 876 l 88 1026 q 101 1051 88 1042 q 132 1060 114 1060 q 165 1051 151 1060 q 178 1026 178 1042 l 178 876 l 346 876 q 369 867 358 876 q 381 840 381 857 q 369 816 381 826 q 346 806 358 806 l 178 806 l 178 560 q 247 633 201 600 q 361 665 293 665 q 484 630 428 665 q 574 536 540 594 q 607 406 607 478 l 607 36 q 593 9 607 18 q 561 0 579 0 q 531 9 546 0 q 517 36 517 18 l 517 406 q 493 490 517 450 q 431 556 469 531 q 344 582 392 582 q 265 560 303 582 q 202 500 226 539 q 178 406 178 461 l 178 36 q 165 11 178 22 q 132 0 151 0 z "},"ĥ":{"ha":688,"x_min":-58,"x_max":607,"o":"m 132 0 q 101 11 114 0 q 88 36 88 22 l 88 1026 q 101 1051 88 1042 q 132 1060 114 1060 q 165 1051 151 1060 q 178 1026 178 1042 l 178 560 q 247 633 201 600 q 361 665 293 665 q 484 630 428 665 q 574 536 540 594 q 607 406 607 478 l 607 36 q 593 9 607 18 q 561 0 579 0 q 531 9 546 0 q 517 36 517 18 l 517 406 q 493 490 517 450 q 431 556 469 531 q 344 582 392 582 q 265 560 303 582 q 202 500 226 539 q 178 406 178 461 l 178 36 q 165 11 178 22 q 132 0 151 0 m -29 1208 q -49 1219 -40 1208 q -58 1244 -58 1231 q -53 1261 -58 1253 q -40 1275 -49 1269 l 104 1353 q 128 1360 117 1360 q 151 1353 140 1360 l 296 1275 q 310 1262 306 1271 q 314 1243 314 1253 q 306 1219 314 1229 q 286 1210 297 1210 q 279 1211 283 1210 q 272 1214 275 1213 l 128 1290 l -17 1213 q -23 1210 -19 1211 q -29 1208 -26 1208 z "},"i":{"ha":263,"x_min":69,"x_max":192,"o":"m 131 0 q 99 11 113 0 q 86 36 86 22 l 86 624 q 99 648 86 639 q 131 657 113 657 q 163 648 150 657 q 176 624 176 639 l 176 36 q 163 11 176 22 q 131 0 150 0 m 131 851 q 88 869 106 851 q 69 910 69 886 q 88 950 69 933 q 131 967 106 967 q 174 950 157 967 q 192 910 192 933 q 174 869 192 886 q 131 851 157 851 z "},"ı":{"ha":263,"x_min":86,"x_max":176,"o":"m 131 0 q 99 11 113 0 q 86 36 86 22 l 86 624 q 99 648 86 639 q 131 657 113 657 q 163 648 150 657 q 176 624 176 639 l 176 36 q 163 11 176 22 q 131 0 150 0 z "},"í":{"ha":263,"x_min":32,"x_max":247,"o":"m 131 0 q 99 11 113 0 q 86 36 86 22 l 86 624 q 99 648 86 639 q 131 657 113 657 q 163 648 150 657 q 176 624 176 639 l 176 36 q 163 11 176 22 q 131 0 150 0 m 68 821 q 43 833 54 821 q 32 860 32 846 q 47 885 32 878 l 203 969 q 214 974 210 974 q 238 961 229 974 q 247 935 247 949 q 231 904 247 914 l 82 825 q 75 822 79 824 q 68 821 71 821 z "},"ĭ":{"ha":263,"x_min":-33,"x_max":290,"o":"m 131 0 q 99 11 113 0 q 86 36 86 22 l 86 624 q 99 648 86 639 q 131 657 113 657 q 163 648 150 657 q 176 624 176 639 l 176 36 q 163 11 176 22 q 131 0 150 0 m 129 829 q 26 868 72 829 q -31 963 -19 907 q -26 984 -33 976 q -6 992 -18 992 l 4 992 q 22 985 15 992 q 31 967 28 978 q 67 904 39 929 q 129 879 94 879 q 192 904 164 879 q 226 967 219 929 q 235 985 229 978 q 253 992 242 992 l 263 992 q 283 983 275 992 q 289 963 290 975 q 231 868 276 907 q 129 829 185 829 z "},"î":{"ha":263,"x_min":-57,"x_max":315,"o":"m 131 0 q 99 11 113 0 q 86 36 86 22 l 86 624 q 99 648 86 639 q 131 657 113 657 q 163 648 150 657 q 176 624 176 639 l 176 36 q 163 11 176 22 q 131 0 150 0 m -28 821 q -48 832 -39 821 q -57 857 -57 843 q -52 874 -57 865 q -39 888 -47 882 l 106 965 q 129 972 118 972 q 153 965 142 972 l 297 888 q 311 874 307 883 q 315 856 315 865 q 307 832 315 842 q 288 822 299 822 q 281 824 285 822 q 274 826 276 825 l 129 903 l -15 825 q -22 822 -18 824 q -28 821 -25 821 z "},"ï":{"ha":263,"x_min":-3,"x_max":269,"o":"m 131 0 q 99 11 113 0 q 86 36 86 22 l 86 624 q 99 648 86 639 q 131 657 113 657 q 163 648 150 657 q 176 624 176 639 l 176 36 q 163 11 176 22 q 131 0 150 0 m 219 824 q 183 839 199 824 q 168 875 168 854 q 183 911 168 897 q 219 925 199 925 q 256 911 242 925 q 269 875 269 897 q 256 839 269 854 q 219 824 242 824 m 49 824 q 12 839 26 824 q -3 875 -3 854 q 12 911 -3 897 q 49 925 26 925 q 84 911 69 925 q 99 875 99 897 q 84 839 99 854 q 49 824 69 824 z "},"ì":{"ha":263,"x_min":18,"x_max":233,"o":"m 131 0 q 99 11 113 0 q 86 36 86 22 l 86 624 q 99 648 86 639 q 131 657 113 657 q 163 648 150 657 q 176 624 176 639 l 176 36 q 163 11 176 22 q 131 0 150 0 m 197 819 q 190 821 194 819 q 183 824 186 822 l 36 903 q 18 933 18 913 q 28 960 18 947 q 51 972 38 972 q 64 968 57 972 l 218 883 q 233 858 233 876 q 223 832 233 844 q 197 819 213 819 z "},"ĳ":{"ha":519,"x_min":69,"x_max":446,"o":"m 131 0 q 99 11 113 0 q 86 36 86 22 l 86 624 q 99 648 86 639 q 131 657 113 657 q 163 648 150 657 q 176 624 176 639 l 176 36 q 163 11 176 22 q 131 0 150 0 m 131 851 q 88 869 106 851 q 69 910 69 886 q 88 950 69 933 q 131 967 106 967 q 174 950 157 967 q 192 910 192 933 q 174 869 192 886 q 131 851 157 851 m 250 -322 q 214 -310 225 -322 q 203 -282 203 -297 q 215 -251 203 -262 q 242 -240 226 -240 q 308 -217 286 -240 q 335 -152 329 -193 q 342 -60 342 -111 l 342 624 q 354 648 342 639 q 386 657 367 657 q 419 648 406 657 q 432 624 432 639 l 432 -60 q 414 -196 432 -136 q 356 -289 396 -256 q 250 -322 315 -322 m 386 851 q 343 869 361 851 q 325 910 325 886 q 343 950 325 933 q 386 967 361 967 q 429 950 411 967 q 447 910 447 933 q 429 869 447 886 q 386 851 411 851 z "},"ī":{"ha":263,"x_min":-51,"x_max":317,"o":"m 131 0 q 99 11 113 0 q 86 36 86 22 l 86 624 q 99 648 86 639 q 131 657 113 657 q 163 648 150 657 q 176 624 176 639 l 176 36 q 163 11 176 22 q 131 0 150 0 z "},"į":{"ha":263,"x_min":1,"x_max":186,"o":"m 131 0 q 99 11 113 0 q 86 36 86 22 l 86 624 q 99 648 86 639 q 131 657 113 657 q 163 648 150 657 q 176 624 176 639 l 176 36 q 163 11 176 22 q 131 0 150 0 m 133 824 q 94 840 110 824 q 78 879 78 857 q 94 917 78 901 q 133 933 110 933 q 172 917 156 933 q 188 879 188 901 q 172 840 188 857 q 133 824 156 824 m 136 -272 q 71 -262 101 -272 q 21 -228 40 -251 q 1 -168 1 -206 q 33 -57 1 -108 q 114 36 64 -6 l 160 13 q 87 -68 117 -25 q 57 -161 57 -111 q 80 -208 57 -194 q 143 -222 103 -222 q 163 -229 156 -222 q 171 -249 171 -236 q 163 -266 171 -260 q 136 -272 156 -272 z "},"ĩ":{"ha":263,"x_min":-87,"x_max":343,"o":"m 131 0 q 99 11 113 0 q 86 36 86 22 l 86 624 q 99 648 86 639 q 131 657 113 657 q 163 648 150 657 q 176 624 176 639 l 176 36 q 163 11 176 22 q 131 0 150 0 m 226 844 q 161 857 189 844 q 106 881 133 869 q 42 893 79 893 q -6 882 13 893 q -37 860 -25 871 q -61 849 -49 849 q -75 854 -69 849 q -84 868 -81 860 q -87 883 -87 876 q -75 917 -87 903 q -43 942 -62 932 q -2 958 -24 953 q 35 963 19 963 q 99 951 72 963 q 154 928 126 940 q 218 915 182 915 q 265 926 249 915 q 292 946 282 936 q 315 956 303 956 q 331 950 325 956 q 340 938 338 944 q 343 924 343 931 q 331 887 343 901 q 299 863 318 872 q 261 849 281 853 q 226 844 242 844 z "},"j":{"ha":265,"x_min":-51,"x_max":193,"o":"m -4 -322 q -40 -310 -29 -322 q -51 -282 -51 -297 q -40 -251 -51 -262 q -12 -240 -28 -240 q 53 -217 32 -240 q 81 -152 75 -193 q 88 -60 88 -111 l 88 624 q 100 648 88 639 q 132 657 113 657 q 165 648 151 657 q 178 624 178 639 l 178 -60 q 160 -196 178 -136 q 101 -289 142 -256 q -4 -322 61 -322 m 132 851 q 89 869 107 851 q 71 910 71 886 q 89 950 71 933 q 132 967 107 967 q 175 950 157 967 q 193 910 193 933 q 175 869 193 886 q 132 851 157 851 z "},"ȷ":{"ha":265,"x_min":-51,"x_max":178,"o":"m -4 -322 q -40 -310 -29 -322 q -51 -282 -51 -297 q -40 -251 -51 -262 q -12 -240 -28 -240 q 53 -217 32 -240 q 81 -152 75 -193 q 88 -60 88 -111 l 88 624 q 100 648 88 639 q 132 657 113 657 q 165 648 151 657 q 178 624 178 639 l 178 -60 q 160 -196 178 -136 q 101 -289 142 -256 q -4 -322 61 -322 z "},"ĵ":{"ha":265,"x_min":-56,"x_max":317,"o":"m -4 -322 q -40 -310 -29 -322 q -51 -282 -51 -297 q -40 -251 -51 -262 q -12 -240 -28 -240 q 53 -217 32 -240 q 81 -152 75 -193 q 88 -60 88 -111 l 88 624 q 100 648 88 639 q 132 657 113 657 q 165 648 151 657 q 178 624 178 639 l 178 -60 q 160 -196 178 -136 q 101 -289 142 -256 q -4 -322 61 -322 m -26 822 q -47 833 -37 822 q -56 858 -56 844 q -51 875 -56 867 q -37 889 -46 883 l 107 967 q 131 974 119 974 q 154 967 143 974 l 299 889 q 313 876 308 885 q 317 857 317 867 q 308 833 317 843 q 289 824 300 824 q 282 825 286 824 q 275 828 278 826 l 131 904 l -14 826 q -20 824 -17 825 q -26 822 -24 822 z "},"k":{"ha":632,"x_min":88,"x_max":615,"o":"m 132 0 q 101 11 114 0 q 88 36 88 22 l 88 1026 q 101 1051 88 1042 q 132 1060 114 1060 q 165 1051 151 1060 q 178 1026 178 1042 l 178 350 l 517 651 q 538 660 528 660 q 559 654 549 660 q 576 639 569 649 q 583 617 583 629 q 581 603 583 610 q 574 592 579 597 l 369 413 l 610 61 q 615 42 615 53 q 608 21 615 32 q 590 3 601 10 q 567 -3 578 -3 q 539 13 550 -3 l 306 356 l 178 243 l 178 36 q 165 11 178 22 q 132 0 151 0 z "},"ķ":{"ha":632,"x_min":88,"x_max":615,"o":"m 132 0 q 101 11 114 0 q 88 36 88 22 l 88 1026 q 101 1051 88 1042 q 132 1060 114 1060 q 165 1051 151 1060 q 178 1026 178 1042 l 178 350 l 517 651 q 538 660 528 660 q 559 654 549 660 q 576 639 569 649 q 583 617 583 629 q 581 603 583 610 q 574 592 579 597 l 369 413 l 610 61 q 615 42 615 53 q 608 21 615 32 q 590 3 601 10 q 567 -3 578 -3 q 539 13 550 -3 l 306 356 l 178 243 l 178 36 q 165 11 178 22 q 132 0 151 0 m 244 -219 q 220 -207 231 -219 q 210 -181 210 -194 q 225 -154 210 -162 l 379 -69 q 392 -67 386 -67 q 416 -79 407 -67 q 425 -106 425 -92 q 407 -136 425 -126 l 260 -215 q 252 -218 256 -217 q 244 -219 249 -219 z "},"ĸ":{"ha":631,"x_min":86,"x_max":614,"o":"m 131 0 q 99 11 113 0 q 86 36 86 22 l 86 624 q 99 648 86 639 q 131 657 113 657 q 163 648 150 657 q 176 624 176 639 l 176 350 l 515 651 q 536 660 526 660 q 558 654 547 660 q 575 639 568 649 q 582 617 582 629 q 580 603 582 610 q 572 592 578 597 l 368 413 l 608 61 q 614 42 614 53 q 607 21 614 32 q 588 3 600 10 q 565 -3 576 -3 q 538 13 549 -3 l 304 356 l 176 243 l 176 36 q 163 11 176 22 q 131 0 150 0 z "},"l":{"ha":289,"x_min":99,"x_max":189,"o":"m 143 0 q 112 11 125 0 q 99 36 99 22 l 99 1026 q 112 1051 99 1042 q 143 1060 125 1060 q 176 1051 163 1060 q 189 1026 189 1042 l 189 36 q 176 11 189 22 q 143 0 163 0 z "},"ĺ":{"ha":289,"x_min":47,"x_max":263,"o":"m 143 0 q 112 11 125 0 q 99 36 99 22 l 99 1026 q 112 1051 99 1042 q 143 1060 125 1060 q 176 1051 163 1060 q 189 1026 189 1042 l 189 36 q 176 11 189 22 q 143 0 163 0 m 83 1118 q 58 1131 69 1118 q 47 1157 47 1143 q 63 1182 47 1175 l 218 1267 q 229 1271 225 1271 q 253 1258 244 1271 q 263 1232 263 1246 q 246 1201 263 1211 l 97 1122 q 90 1119 94 1121 q 83 1118 86 1118 z "},"ľ":{"ha":289,"x_min":99,"x_max":406,"o":"m 143 0 q 112 11 125 0 q 99 36 99 22 l 99 1026 q 112 1051 99 1042 q 143 1060 125 1060 q 176 1051 163 1060 q 189 1026 189 1042 l 189 36 q 176 11 189 22 q 143 0 163 0 m 324 792 q 301 799 313 792 q 290 821 290 807 q 293 833 290 828 l 319 906 q 290 928 301 913 q 278 965 278 944 q 296 1010 278 992 q 342 1029 314 1029 q 387 1010 368 1029 q 406 965 406 992 q 401 944 406 958 q 391 910 397 929 q 374 865 385 890 q 349 808 363 839 q 338 797 346 801 q 324 792 331 792 z "},"ļ":{"ha":289,"x_min":36,"x_max":251,"o":"m 143 0 q 112 11 125 0 q 99 36 99 22 l 99 1026 q 112 1051 99 1042 q 143 1060 125 1060 q 176 1051 163 1060 q 189 1026 189 1042 l 189 36 q 176 11 189 22 q 143 0 163 0 m 72 -219 q 48 -207 58 -219 q 38 -181 38 -194 q 53 -154 38 -162 l 207 -69 q 219 -67 214 -67 q 244 -79 235 -67 q 253 -106 253 -92 q 235 -136 253 -126 l 88 -215 q 80 -218 83 -217 q 72 -219 76 -219 z "},"ŀ":{"ha":435,"x_min":99,"x_max":422,"o":"m 143 0 q 112 11 125 0 q 99 36 99 22 l 99 1026 q 112 1051 99 1042 q 143 1060 125 1060 q 176 1051 163 1060 q 189 1026 189 1042 l 189 36 q 176 11 189 22 q 143 0 163 0 m 358 354 q 310 374 329 354 q 292 417 292 393 q 310 461 292 443 q 358 479 329 479 q 403 461 385 479 q 422 417 422 443 q 403 374 422 393 q 358 354 385 354 z "},"ł":{"ha":426,"x_min":25,"x_max":404,"o":"m 206 0 q 174 11 188 0 q 161 36 161 22 l 161 417 l 75 368 q 61 364 69 364 q 36 378 47 364 q 25 408 25 393 q 29 424 25 417 q 42 435 33 431 l 161 501 l 161 1026 q 174 1051 161 1042 q 206 1060 188 1060 q 238 1051 225 1060 q 251 1026 251 1042 l 251 547 l 354 607 q 368 610 360 610 q 386 604 378 610 q 399 589 394 599 q 404 569 404 579 q 389 540 404 549 l 251 464 l 251 36 q 238 11 251 22 q 206 0 225 0 z "},"m":{"ha":1082,"x_min":86,"x_max":1000,"o":"m 131 0 q 99 11 113 0 q 86 36 86 22 l 86 624 q 99 648 86 639 q 131 657 113 657 q 161 648 149 657 q 174 624 174 639 l 174 560 q 244 633 197 600 q 358 665 290 665 q 479 626 428 665 q 556 526 531 588 q 649 631 592 597 q 767 665 707 665 q 880 635 826 665 q 967 547 933 604 q 1000 406 1000 489 l 1000 36 q 987 11 1000 22 q 954 0 974 0 q 923 11 936 0 q 910 36 910 22 l 910 406 q 886 503 910 464 q 826 562 863 542 q 751 582 790 582 q 674 561 711 582 q 613 502 638 540 q 589 411 589 464 l 589 35 q 574 8 589 17 q 543 0 560 0 q 513 8 528 0 q 499 35 499 17 l 499 410 q 477 499 499 460 q 419 560 456 538 q 340 582 383 582 q 263 561 300 582 q 201 501 225 540 q 176 406 176 463 l 176 36 q 163 11 176 22 q 131 0 150 0 z "},"n":{"ha":686,"x_min":86,"x_max":606,"o":"m 131 0 q 99 11 113 0 q 86 36 86 22 l 86 624 q 99 648 86 639 q 131 657 113 657 q 161 648 149 657 q 174 624 174 639 l 174 560 q 243 633 196 600 q 360 665 290 665 q 483 630 426 665 q 572 536 539 594 q 606 406 606 478 l 606 36 q 592 9 606 18 q 560 0 578 0 q 530 9 544 0 q 515 36 515 18 l 515 406 q 492 490 515 450 q 429 556 468 531 q 343 582 390 582 q 263 560 301 582 q 201 500 225 539 q 176 406 176 461 l 176 36 q 163 11 176 22 q 131 0 150 0 z "},"ń":{"ha":686,"x_min":86,"x_max":606,"o":"m 131 0 q 99 11 113 0 q 86 36 86 22 l 86 624 q 99 648 86 639 q 131 657 113 657 q 161 648 149 657 q 174 624 174 639 l 174 560 q 243 633 196 600 q 360 665 290 665 q 483 630 426 665 q 572 536 539 594 q 606 406 606 478 l 606 36 q 592 9 606 18 q 560 0 578 0 q 530 9 544 0 q 515 36 515 18 l 515 406 q 492 490 515 450 q 429 556 468 531 q 343 582 390 582 q 263 560 301 582 q 201 500 225 539 q 176 406 176 461 l 176 36 q 163 11 176 22 q 131 0 150 0 m 283 815 q 258 828 269 815 q 247 854 247 840 q 263 879 247 872 l 418 964 q 429 968 425 968 q 453 956 444 968 q 463 929 463 943 q 446 899 463 908 l 297 819 q 290 817 294 818 q 283 815 286 815 z "},"ň":{"ha":686,"x_min":86,"x_max":606,"o":"m 131 0 q 99 11 113 0 q 86 36 86 22 l 86 624 q 99 648 86 639 q 131 657 113 657 q 161 648 149 657 q 174 624 174 639 l 174 560 q 243 633 196 600 q 360 665 290 665 q 483 630 426 665 q 572 536 539 594 q 606 406 606 478 l 606 36 q 592 9 606 18 q 560 0 578 0 q 530 9 544 0 q 515 36 515 18 l 515 406 q 492 490 515 450 q 429 556 468 531 q 343 582 390 582 q 263 560 301 582 q 201 500 225 539 q 176 406 176 461 l 176 36 q 163 11 176 22 q 131 0 150 0 m 344 808 q 317 822 329 808 l 176 947 q 163 962 167 954 q 158 979 158 969 q 166 1000 158 990 q 185 1010 174 1010 q 206 1001 196 1010 l 344 874 l 482 1001 q 503 1010 492 1010 q 522 1000 515 1010 q 529 979 529 990 q 525 962 529 969 q 513 947 521 954 l 372 822 q 344 808 357 808 z "},"ņ":{"ha":686,"x_min":86,"x_max":606,"o":"m 131 0 q 99 11 113 0 q 86 36 86 22 l 86 624 q 99 648 86 639 q 131 657 113 657 q 161 648 149 657 q 174 624 174 639 l 174 560 q 243 633 196 600 q 360 665 290 665 q 483 630 426 665 q 572 536 539 594 q 606 406 606 478 l 606 36 q 592 9 606 18 q 560 0 578 0 q 530 9 544 0 q 515 36 515 18 l 515 406 q 492 490 515 450 q 429 556 468 531 q 343 582 390 582 q 263 560 301 582 q 201 500 225 539 q 176 406 176 461 l 176 36 q 163 11 176 22 q 131 0 150 0 m 271 -219 q 247 -207 257 -219 q 236 -181 236 -194 q 251 -154 236 -162 l 406 -69 q 418 -67 413 -67 q 442 -79 433 -67 q 451 -106 451 -92 q 433 -136 451 -126 l 286 -215 q 278 -218 282 -217 q 271 -219 275 -219 z "},"ŋ":{"ha":688,"x_min":86,"x_max":606,"o":"m 424 -322 q 388 -310 400 -322 q 376 -282 376 -297 q 388 -251 376 -262 q 415 -240 400 -240 q 482 -217 461 -240 q 509 -152 503 -193 q 515 -60 515 -111 l 515 406 q 492 490 515 450 q 429 556 468 531 q 343 582 390 582 q 263 560 301 582 q 201 500 225 539 q 176 406 176 461 l 176 36 q 163 11 176 22 q 131 0 150 0 q 99 11 113 0 q 86 36 86 22 l 86 624 q 99 648 86 639 q 131 657 113 657 q 161 648 149 657 q 174 624 174 639 l 174 560 q 243 633 196 600 q 360 665 290 665 q 483 630 426 665 q 572 536 539 594 q 606 406 606 478 l 606 -60 q 588 -196 606 -136 q 529 -289 569 -256 q 424 -322 489 -322 z "},"ñ":{"ha":686,"x_min":86,"x_max":606,"o":"m 131 0 q 99 11 113 0 q 86 36 86 22 l 86 624 q 99 648 86 639 q 131 657 113 657 q 161 648 149 657 q 174 624 174 639 l 174 560 q 243 633 196 600 q 360 665 290 665 q 483 630 426 665 q 572 536 539 594 q 606 406 606 478 l 606 36 q 592 9 606 18 q 560 0 578 0 q 530 9 544 0 q 515 36 515 18 l 515 406 q 492 490 515 450 q 429 556 468 531 q 343 582 390 582 q 263 560 301 582 q 201 500 225 539 q 176 406 176 461 l 176 36 q 163 11 176 22 q 131 0 150 0 m 442 840 q 376 853 404 840 q 322 877 349 865 q 257 889 294 889 q 209 878 228 889 q 178 856 190 867 q 154 844 167 844 q 140 850 146 844 q 131 864 135 856 q 128 879 128 872 q 140 913 128 899 q 172 938 153 928 q 213 953 192 949 q 250 958 235 958 q 315 947 288 958 q 369 924 342 936 q 433 911 397 911 q 481 922 464 911 q 508 942 497 932 q 531 951 518 951 q 547 946 540 951 q 556 933 553 940 q 558 919 558 926 q 546 883 558 897 q 515 858 533 868 q 476 844 496 849 q 442 840 457 840 z "},"o":{"ha":651,"x_min":61,"x_max":589,"o":"m 325 -10 q 194 27 254 -10 q 98 124 135 64 q 61 254 61 185 l 61 406 q 97 534 61 475 q 193 629 133 593 q 325 665 253 665 q 456 630 396 665 q 553 536 517 594 q 589 406 589 478 l 589 254 q 553 125 589 186 q 456 27 517 64 q 325 -10 396 -10 m 325 74 q 413 99 374 74 q 475 167 451 125 q 499 254 499 208 l 499 406 q 476 490 499 450 q 413 556 453 531 q 325 582 374 582 q 238 556 276 582 q 175 490 199 531 q 151 406 151 450 l 151 254 q 175 167 151 208 q 238 99 199 125 q 325 74 278 74 z "},"ó":{"ha":651,"x_min":61,"x_max":589,"o":"m 325 -10 q 194 27 254 -10 q 98 124 135 64 q 61 254 61 185 l 61 406 q 97 534 61 475 q 193 629 133 593 q 325 665 253 665 q 456 630 396 665 q 553 536 517 594 q 589 406 589 478 l 589 254 q 553 125 589 186 q 456 27 517 64 q 325 -10 396 -10 m 325 74 q 413 99 374 74 q 475 167 451 125 q 499 254 499 208 l 499 406 q 476 490 499 450 q 413 556 453 531 q 325 582 374 582 q 238 556 276 582 q 175 490 199 531 q 151 406 151 450 l 151 254 q 175 167 151 208 q 238 99 199 125 q 325 74 278 74 m 256 821 q 231 833 242 821 q 219 860 219 846 q 235 885 219 878 l 390 969 q 401 974 397 974 q 426 961 417 974 q 435 935 435 949 q 418 904 435 914 l 269 825 q 263 822 267 824 q 256 821 258 821 z "},"ŏ":{"ha":651,"x_min":61,"x_max":589,"o":"m 325 -10 q 194 27 254 -10 q 98 124 135 64 q 61 254 61 185 l 61 406 q 97 534 61 475 q 193 629 133 593 q 325 665 253 665 q 456 630 396 665 q 553 536 517 594 q 589 406 589 478 l 589 254 q 553 125 589 186 q 456 27 517 64 q 325 -10 396 -10 m 325 74 q 413 99 374 74 q 475 167 451 125 q 499 254 499 208 l 499 406 q 476 490 499 450 q 413 556 453 531 q 325 582 374 582 q 238 556 276 582 q 175 490 199 531 q 151 406 151 450 l 151 254 q 175 167 151 208 q 238 99 199 125 q 325 74 278 74 m 328 829 q 225 868 271 829 q 168 963 179 907 q 173 984 165 976 q 193 992 181 992 l 203 992 q 220 985 214 992 q 229 967 226 978 q 265 904 238 929 q 328 879 293 879 q 390 904 363 879 q 425 967 418 929 q 434 985 428 978 q 451 992 440 992 l 461 992 q 481 983 474 992 q 488 963 489 975 q 429 868 475 907 q 328 829 383 829 z "},"ô":{"ha":651,"x_min":61,"x_max":589,"o":"m 325 -10 q 194 27 254 -10 q 98 124 135 64 q 61 254 61 185 l 61 406 q 97 534 61 475 q 193 629 133 593 q 325 665 253 665 q 456 630 396 665 q 553 536 517 594 q 589 406 589 478 l 589 254 q 553 125 589 186 q 456 27 517 64 q 325 -10 396 -10 m 325 74 q 413 99 374 74 q 475 167 451 125 q 499 254 499 208 l 499 406 q 476 490 499 450 q 413 556 453 531 q 325 582 374 582 q 238 556 276 582 q 175 490 199 531 q 151 406 151 450 l 151 254 q 175 167 151 208 q 238 99 199 125 q 325 74 278 74 m 169 822 q 149 833 158 822 q 140 858 140 844 q 145 875 140 867 q 158 889 150 883 l 303 967 q 326 974 315 974 q 350 967 339 974 l 494 889 q 508 876 504 885 q 513 857 513 867 q 504 833 513 843 q 485 824 496 824 q 478 825 482 824 q 471 828 474 826 l 326 904 l 182 826 q 176 824 179 825 q 169 822 172 822 z "},"ö":{"ha":651,"x_min":61,"x_max":589,"o":"m 325 -10 q 194 27 254 -10 q 98 124 135 64 q 61 254 61 185 l 61 406 q 97 534 61 475 q 193 629 133 593 q 325 665 253 665 q 456 630 396 665 q 553 536 517 594 q 589 406 589 478 l 589 254 q 553 125 589 186 q 456 27 517 64 q 325 -10 396 -10 m 325 74 q 413 99 374 74 q 475 167 451 125 q 499 254 499 208 l 499 406 q 476 490 499 450 q 413 556 453 531 q 325 582 374 582 q 238 556 276 582 q 175 490 199 531 q 151 406 151 450 l 151 254 q 175 167 151 208 q 238 99 199 125 q 325 74 278 74 m 413 824 q 376 839 392 824 q 361 875 361 854 q 376 911 361 897 q 413 925 392 925 q 449 911 435 925 q 463 875 463 897 q 449 839 463 854 q 413 824 435 824 m 242 824 q 205 839 219 824 q 190 875 190 854 q 205 911 190 897 q 242 925 219 925 q 277 911 263 925 q 292 875 292 897 q 277 839 292 854 q 242 824 263 824 z "},"ò":{"ha":651,"x_min":61,"x_max":589,"o":"m 325 -10 q 194 27 254 -10 q 98 124 135 64 q 61 254 61 185 l 61 406 q 97 534 61 475 q 193 629 133 593 q 325 665 253 665 q 456 630 396 665 q 553 536 517 594 q 589 406 589 478 l 589 254 q 553 125 589 186 q 456 27 517 64 q 325 -10 396 -10 m 325 74 q 413 99 374 74 q 475 167 451 125 q 499 254 499 208 l 499 406 q 476 490 499 450 q 413 556 453 531 q 325 582 374 582 q 238 556 276 582 q 175 490 199 531 q 151 406 151 450 l 151 254 q 175 167 151 208 q 238 99 199 125 q 325 74 278 74 m 392 821 q 385 822 389 821 q 378 825 381 824 l 231 904 q 213 935 213 914 q 222 961 213 949 q 246 974 232 974 q 258 969 251 974 l 413 885 q 428 860 428 878 q 417 833 428 846 q 392 821 407 821 z "},"ő":{"ha":651,"x_min":61,"x_max":589,"o":"m 325 -10 q 194 27 254 -10 q 98 124 135 64 q 61 254 61 185 l 61 406 q 97 534 61 475 q 193 629 133 593 q 325 665 253 665 q 456 630 396 665 q 553 536 517 594 q 589 406 589 478 l 589 254 q 553 125 589 186 q 456 27 517 64 q 325 -10 396 -10 m 325 74 q 413 99 374 74 q 475 167 451 125 q 499 254 499 208 l 499 406 q 476 490 499 450 q 413 556 453 531 q 325 582 374 582 q 238 556 276 582 q 175 490 199 531 q 151 406 151 450 l 151 254 q 175 167 151 208 q 238 99 199 125 q 325 74 278 74 z "},"ō":{"ha":651,"x_min":61,"x_max":589,"o":"m 325 -10 q 194 27 254 -10 q 98 124 135 64 q 61 254 61 185 l 61 406 q 97 534 61 475 q 193 629 133 593 q 325 665 253 665 q 456 630 396 665 q 553 536 517 594 q 589 406 589 478 l 589 254 q 553 125 589 186 q 456 27 517 64 q 325 -10 396 -10 m 325 74 q 413 99 374 74 q 475 167 451 125 q 499 254 499 208 l 499 406 q 476 490 499 450 q 413 556 453 531 q 325 582 374 582 q 238 556 276 582 q 175 490 199 531 q 151 406 151 450 l 151 254 q 175 167 151 208 q 238 99 199 125 q 325 74 278 74 z "},"ø":{"ha":651,"x_min":61,"x_max":589,"o":"m 325 -10 q 194 27 254 -10 q 98 124 135 64 q 61 254 61 185 l 61 406 q 97 534 61 475 q 193 629 133 593 q 325 665 253 665 q 456 630 396 665 q 553 536 517 594 q 589 406 589 478 l 589 254 q 553 125 589 186 q 456 27 517 64 q 325 -10 396 -10 m 325 74 q 413 99 374 74 q 475 167 451 125 q 499 254 499 208 l 499 406 q 476 490 499 450 q 413 556 453 531 q 325 582 374 582 q 238 556 276 582 q 175 490 199 531 q 151 406 151 450 l 151 254 q 175 167 151 208 q 238 99 199 125 q 325 74 278 74 m 124 -44 q 104 -37 113 -44 q 96 -18 96 -29 q 100 -3 96 -8 l 140 69 l 460 628 l 499 694 q 519 707 506 707 q 540 698 531 707 q 550 676 550 689 q 543 658 550 668 l 506 593 l 185 33 l 147 -31 q 124 -44 139 -44 z "},"ǿ":{"ha":651,"x_min":61,"x_max":589,"o":"m 325 -10 q 194 27 254 -10 q 98 124 135 64 q 61 254 61 185 l 61 406 q 97 534 61 475 q 193 629 133 593 q 325 665 253 665 q 456 630 396 665 q 553 536 517 594 q 589 406 589 478 l 589 254 q 553 125 589 186 q 456 27 517 64 q 325 -10 396 -10 m 325 74 q 413 99 374 74 q 475 167 451 125 q 499 254 499 208 l 499 406 q 476 490 499 450 q 413 556 453 531 q 325 582 374 582 q 238 556 276 582 q 175 490 199 531 q 151 406 151 450 l 151 254 q 175 167 151 208 q 238 99 199 125 q 325 74 278 74 m 124 -44 q 104 -37 113 -44 q 96 -18 96 -29 q 100 -3 96 -8 l 140 69 l 460 628 l 499 694 q 519 707 506 707 q 540 698 531 707 q 550 676 550 689 q 543 658 550 668 l 506 593 l 185 33 l 147 -31 q 124 -44 139 -44 m 267 815 q 242 828 253 815 q 231 854 231 840 q 246 879 231 872 l 401 964 q 413 968 408 968 q 437 956 428 968 q 446 929 446 943 q 429 899 446 908 l 281 819 q 274 817 278 818 q 267 815 269 815 z "},"õ":{"ha":651,"x_min":61,"x_max":589,"o":"m 325 -10 q 194 27 254 -10 q 98 124 135 64 q 61 254 61 185 l 61 406 q 97 534 61 475 q 193 629 133 593 q 325 665 253 665 q 456 630 396 665 q 553 536 517 594 q 589 406 589 478 l 589 254 q 553 125 589 186 q 456 27 517 64 q 325 -10 396 -10 m 325 74 q 413 99 374 74 q 475 167 451 125 q 499 254 499 208 l 499 406 q 476 490 499 450 q 413 556 453 531 q 325 582 374 582 q 238 556 276 582 q 175 490 199 531 q 151 406 151 450 l 151 254 q 175 167 151 208 q 238 99 199 125 q 325 74 278 74 m 425 846 q 360 858 388 846 q 305 883 332 871 q 240 894 278 894 q 192 883 211 894 q 162 861 174 872 q 138 850 150 850 q 124 856 129 850 q 115 869 118 861 q 111 885 111 878 q 124 919 111 904 q 156 944 136 933 q 197 959 175 954 q 233 964 218 964 q 298 953 271 964 q 353 929 325 942 q 417 917 381 917 q 464 927 447 917 q 491 947 481 938 q 514 957 501 957 q 530 951 524 957 q 539 939 536 946 q 542 925 542 932 q 529 888 542 903 q 498 864 517 874 q 460 850 479 854 q 425 846 440 846 z "},"œ":{"ha":1072,"x_min":61,"x_max":1024,"o":"m 325 -10 q 194 27 254 -10 q 98 124 135 64 q 61 254 61 185 l 61 406 q 97 534 61 475 q 193 629 133 593 q 325 665 253 665 q 454 629 394 665 q 546 533 514 593 q 636 628 578 592 q 764 665 694 665 q 892 633 833 665 q 988 544 951 600 q 1024 414 1024 488 q 1006 336 1024 360 q 962 307 989 313 q 903 301 935 301 l 589 301 l 589 250 q 649 118 589 167 q 804 69 708 69 q 886 83 857 69 q 933 111 915 97 q 967 125 950 125 q 986 119 978 125 q 1000 102 994 113 q 1006 81 1006 92 q 979 42 1006 64 q 906 6 953 21 q 796 -10 858 -10 q 646 26 711 -10 q 546 124 581 63 q 453 28 511 65 q 325 -10 394 -10 m 325 74 q 413 99 374 74 q 475 167 451 125 q 499 254 499 208 l 499 406 q 476 490 499 450 q 413 556 453 531 q 325 582 374 582 q 238 556 276 582 q 175 490 199 531 q 151 406 151 450 l 151 254 q 175 167 151 208 q 238 99 199 125 q 325 74 278 74 m 589 368 l 867 368 q 923 377 910 368 q 936 415 936 386 q 915 500 936 460 q 854 565 893 540 q 764 590 815 590 q 676 567 715 590 q 613 508 636 544 q 589 425 589 471 l 589 368 z "},"p":{"ha":672,"x_min":88,"x_max":611,"o":"m 132 -322 q 101 -311 114 -322 q 88 -286 88 -300 l 88 624 q 101 648 88 639 q 132 657 114 657 q 163 648 150 657 q 175 624 175 639 l 175 560 q 246 633 199 600 q 361 665 293 665 q 487 630 431 665 q 577 536 543 594 q 611 406 611 478 l 611 254 q 577 125 611 186 q 488 27 543 64 q 365 -10 432 -10 q 251 22 301 -10 q 178 97 201 54 l 178 -286 q 165 -311 178 -300 q 132 -322 151 -322 m 349 74 q 433 99 394 74 q 497 167 472 125 q 521 254 521 208 l 521 406 q 497 490 521 450 q 434 556 474 531 q 346 582 394 582 q 266 560 304 582 q 203 500 228 539 q 178 406 178 461 l 178 211 q 200 158 178 190 q 261 99 222 125 q 349 74 300 74 z "},"þ":{"ha":672,"x_min":88,"x_max":611,"o":"m 132 -322 q 101 -311 114 -322 q 88 -286 88 -300 l 88 1026 q 101 1051 88 1042 q 132 1060 114 1060 q 165 1051 151 1060 q 178 1026 178 1042 l 178 560 q 248 633 201 600 q 361 665 294 665 q 487 630 431 665 q 577 536 543 594 q 611 406 611 478 l 611 254 q 577 125 611 186 q 488 27 543 64 q 365 -10 432 -10 q 251 22 301 -10 q 178 97 201 54 l 178 -286 q 165 -311 178 -300 q 132 -322 151 -322 m 349 74 q 433 99 394 74 q 497 167 472 125 q 521 254 521 208 l 521 406 q 497 490 521 450 q 434 556 474 531 q 346 582 394 582 q 266 560 304 582 q 203 500 228 539 q 178 406 178 461 l 178 211 q 200 158 178 190 q 261 99 222 125 q 349 74 300 74 z "},"q":{"ha":672,"x_min":63,"x_max":585,"o":"m 540 -322 q 508 -311 522 -322 q 494 -286 494 -300 l 494 97 q 422 22 474 54 q 308 -10 371 -10 q 186 27 243 -10 q 96 125 129 64 q 63 254 63 186 l 63 406 q 96 536 63 478 q 186 630 129 594 q 311 665 243 665 q 428 633 381 665 q 499 560 475 600 l 499 624 q 511 648 499 639 q 542 657 524 657 q 573 648 561 657 q 585 624 585 639 l 585 -286 q 573 -311 585 -300 q 540 -322 561 -322 m 325 74 q 412 99 374 74 q 472 158 450 125 q 494 211 494 190 l 494 406 q 470 500 494 461 q 407 560 446 539 q 326 582 368 582 q 240 556 279 582 q 176 490 200 531 q 153 406 153 450 l 153 254 q 176 167 153 208 q 240 99 200 125 q 325 74 279 74 z "},"r":{"ha":458,"x_min":86,"x_max":444,"o":"m 131 0 q 99 11 113 0 q 86 36 86 22 l 86 624 q 99 648 86 639 q 131 657 113 657 q 161 648 149 657 q 174 624 174 639 l 174 556 q 215 608 189 583 q 278 649 242 633 q 360 665 314 665 l 408 665 q 434 653 424 665 q 444 624 444 642 q 434 594 444 607 q 408 582 424 582 l 360 582 q 272 558 314 582 q 203 488 229 533 q 176 379 176 443 l 176 36 q 163 11 176 22 q 131 0 150 0 z "},"ŕ":{"ha":458,"x_min":86,"x_max":444,"o":"m 131 0 q 99 11 113 0 q 86 36 86 22 l 86 624 q 99 648 86 639 q 131 657 113 657 q 161 648 149 657 q 174 624 174 639 l 174 556 q 215 608 189 583 q 278 649 242 633 q 360 665 314 665 l 408 665 q 434 653 424 665 q 444 624 444 642 q 434 594 444 607 q 408 582 424 582 l 360 582 q 272 558 314 582 q 203 488 229 533 q 176 379 176 443 l 176 36 q 163 11 176 22 q 131 0 150 0 m 168 821 q 143 833 154 821 q 132 860 132 846 q 147 885 132 878 l 303 969 q 314 974 310 974 q 338 961 329 974 q 347 935 347 949 q 331 904 347 914 l 182 825 q 175 822 179 824 q 168 821 171 821 z "},"ř":{"ha":458,"x_min":54,"x_max":444,"o":"m 131 0 q 99 11 113 0 q 86 36 86 22 l 86 624 q 99 648 86 639 q 131 657 113 657 q 161 648 149 657 q 174 624 174 639 l 174 556 q 215 608 189 583 q 278 649 242 633 q 360 665 314 665 l 408 665 q 434 653 424 665 q 444 624 444 642 q 434 594 444 607 q 408 582 424 582 l 360 582 q 272 558 314 582 q 203 488 229 533 q 176 379 176 443 l 176 36 q 163 11 176 22 q 131 0 150 0 m 240 814 q 213 828 225 814 l 72 953 q 58 967 63 960 q 54 985 54 975 q 62 1006 54 996 q 81 1015 69 1015 q 101 1007 92 1015 l 240 879 l 378 1007 q 399 1015 388 1015 q 418 1006 411 1015 q 425 985 425 996 q 421 967 425 975 q 408 953 417 960 l 268 828 q 240 814 253 814 z "},"ŗ":{"ha":458,"x_min":-3,"x_max":444,"o":"m 131 0 q 99 11 113 0 q 86 36 86 22 l 86 624 q 99 648 86 639 q 131 657 113 657 q 161 648 149 657 q 174 624 174 639 l 174 556 q 215 608 189 583 q 278 649 242 633 q 360 665 314 665 l 408 665 q 434 653 424 665 q 444 624 444 642 q 434 594 444 607 q 408 582 424 582 l 360 582 q 272 558 314 582 q 203 488 229 533 q 176 379 176 443 l 176 36 q 163 11 176 22 q 131 0 150 0 m 32 -219 q 8 -207 18 -219 q -3 -181 -3 -194 q 13 -154 -3 -162 l 167 -69 q 179 -67 174 -67 q 203 -79 194 -67 q 213 -106 213 -92 q 194 -136 213 -126 l 47 -215 q 40 -218 43 -217 q 32 -219 36 -219 z "},"s":{"ha":538,"x_min":47,"x_max":489,"o":"m 265 -10 q 151 7 200 -10 q 75 47 103 24 q 47 90 47 69 q 51 109 47 100 q 63 125 56 118 q 79 132 71 132 q 113 116 94 132 q 166 83 132 100 q 263 67 200 67 q 374 97 342 67 q 406 165 406 126 q 381 237 406 211 q 317 277 357 263 q 234 303 278 292 q 151 334 190 315 q 87 386 111 353 q 63 476 63 419 q 85 565 63 521 q 155 637 107 608 q 282 665 203 665 q 371 656 328 665 q 441 630 414 646 q 468 597 468 614 q 463 579 468 590 q 450 559 458 568 q 431 550 442 550 q 401 560 419 550 q 353 580 382 571 q 283 589 324 589 q 203 571 233 589 q 158 528 172 553 q 144 481 144 504 q 169 419 144 440 q 234 385 194 399 q 317 360 274 372 q 401 328 361 349 q 465 269 440 307 q 489 169 489 232 q 431 39 489 88 q 265 -10 372 -10 z "},"ś":{"ha":538,"x_min":47,"x_max":489,"o":"m 265 -10 q 151 7 200 -10 q 75 47 103 24 q 47 90 47 69 q 51 109 47 100 q 63 125 56 118 q 79 132 71 132 q 113 116 94 132 q 166 83 132 100 q 263 67 200 67 q 374 97 342 67 q 406 165 406 126 q 381 237 406 211 q 317 277 357 263 q 234 303 278 292 q 151 334 190 315 q 87 386 111 353 q 63 476 63 419 q 85 565 63 521 q 155 637 107 608 q 282 665 203 665 q 371 656 328 665 q 441 630 414 646 q 468 597 468 614 q 463 579 468 590 q 450 559 458 568 q 431 550 442 550 q 401 560 419 550 q 353 580 382 571 q 283 589 324 589 q 203 571 233 589 q 158 528 172 553 q 144 481 144 504 q 169 419 144 440 q 234 385 194 399 q 317 360 274 372 q 401 328 361 349 q 465 269 440 307 q 489 169 489 232 q 431 39 489 88 q 265 -10 372 -10 m 210 815 q 185 828 196 815 q 174 854 174 840 q 189 879 174 872 l 344 964 q 356 968 351 968 q 380 956 371 968 q 389 929 389 943 q 372 899 389 908 l 224 819 q 217 817 221 818 q 210 815 213 815 z "},"š":{"ha":538,"x_min":47,"x_max":489,"o":"m 265 -10 q 151 7 200 -10 q 75 47 103 24 q 47 90 47 69 q 51 109 47 100 q 63 125 56 118 q 79 132 71 132 q 113 116 94 132 q 166 83 132 100 q 263 67 200 67 q 374 97 342 67 q 406 165 406 126 q 381 237 406 211 q 317 277 357 263 q 234 303 278 292 q 151 334 190 315 q 87 386 111 353 q 63 476 63 419 q 85 565 63 521 q 155 637 107 608 q 282 665 203 665 q 371 656 328 665 q 441 630 414 646 q 468 597 468 614 q 463 579 468 590 q 450 559 458 568 q 431 550 442 550 q 401 560 419 550 q 353 580 382 571 q 283 589 324 589 q 203 571 233 589 q 158 528 172 553 q 144 481 144 504 q 169 419 144 440 q 234 385 194 399 q 317 360 274 372 q 401 328 361 349 q 465 269 440 307 q 489 169 489 232 q 431 39 489 88 q 265 -10 372 -10 m 271 808 q 243 822 256 808 l 103 947 q 89 962 93 954 q 85 979 85 969 q 92 1000 85 990 q 111 1010 100 1010 q 132 1001 122 1010 l 271 874 l 408 1001 q 429 1010 418 1010 q 449 1000 442 1010 q 456 979 456 990 q 451 962 456 969 q 439 947 447 954 l 299 822 q 271 808 283 808 z "},"ş":{"ha":538,"x_min":47,"x_max":489,"o":"m 265 -10 q 151 7 200 -10 q 75 47 103 24 q 47 90 47 69 q 51 109 47 100 q 63 125 56 118 q 79 132 71 132 q 113 116 94 132 q 166 83 132 100 q 263 67 200 67 q 374 97 342 67 q 406 165 406 126 q 381 237 406 211 q 317 277 357 263 q 234 303 278 292 q 151 334 190 315 q 87 386 111 353 q 63 476 63 419 q 85 565 63 521 q 155 637 107 608 q 282 665 203 665 q 371 656 328 665 q 441 630 414 646 q 468 597 468 614 q 463 579 468 590 q 450 559 458 568 q 431 550 442 550 q 401 560 419 550 q 353 580 382 571 q 283 589 324 589 q 203 571 233 589 q 158 528 172 553 q 144 481 144 504 q 169 419 144 440 q 234 385 194 399 q 317 360 274 372 q 401 328 361 349 q 465 269 440 307 q 489 169 489 232 q 431 39 489 88 q 265 -10 372 -10 m 292 -292 q 247 -287 272 -292 q 203 -276 222 -283 q 183 -256 183 -268 q 186 -243 183 -251 q 194 -228 189 -235 q 206 -222 199 -222 q 231 -231 214 -222 q 283 -240 249 -240 q 340 -225 324 -240 q 357 -187 357 -210 q 333 -145 357 -158 q 269 -129 310 -132 l 217 -125 l 253 13 l 308 13 l 282 -83 q 384 -116 353 -86 q 415 -185 415 -146 q 402 -233 415 -208 q 361 -275 389 -258 q 292 -292 333 -292 z "},"ŝ":{"ha":538,"x_min":47,"x_max":489,"o":"m 265 -10 q 151 7 200 -10 q 75 47 103 24 q 47 90 47 69 q 51 109 47 100 q 63 125 56 118 q 79 132 71 132 q 113 116 94 132 q 166 83 132 100 q 263 67 200 67 q 374 97 342 67 q 406 165 406 126 q 381 237 406 211 q 317 277 357 263 q 234 303 278 292 q 151 334 190 315 q 87 386 111 353 q 63 476 63 419 q 85 565 63 521 q 155 637 107 608 q 282 665 203 665 q 371 656 328 665 q 441 630 414 646 q 468 597 468 614 q 463 579 468 590 q 450 559 458 568 q 431 550 442 550 q 401 560 419 550 q 353 580 382 571 q 283 589 324 589 q 203 571 233 589 q 158 528 172 553 q 144 481 144 504 q 169 419 144 440 q 234 385 194 399 q 317 360 274 372 q 401 328 361 349 q 465 269 440 307 q 489 169 489 232 q 431 39 489 88 q 265 -10 372 -10 m 113 817 q 92 828 101 817 q 83 853 83 839 q 88 869 83 861 q 101 883 93 878 l 246 961 q 269 968 258 968 q 293 961 282 968 l 438 883 q 451 870 447 879 q 456 851 456 861 q 447 828 456 838 q 428 818 439 818 q 421 819 425 818 q 414 822 417 821 l 269 899 l 125 821 q 119 818 122 819 q 113 817 115 817 z "},"ș":{"ha":538,"x_min":47,"x_max":489,"o":"m 265 -10 q 151 7 200 -10 q 75 47 103 24 q 47 90 47 69 q 51 109 47 100 q 63 125 56 118 q 79 132 71 132 q 113 116 94 132 q 166 83 132 100 q 263 67 200 67 q 374 97 342 67 q 406 165 406 126 q 381 237 406 211 q 317 277 357 263 q 234 303 278 292 q 151 334 190 315 q 87 386 111 353 q 63 476 63 419 q 85 565 63 521 q 155 637 107 608 q 282 665 203 665 q 371 656 328 665 q 441 630 414 646 q 468 597 468 614 q 463 579 468 590 q 450 559 458 568 q 431 550 442 550 q 401 560 419 550 q 353 580 382 571 q 283 589 324 589 q 203 571 233 589 q 158 528 172 553 q 144 481 144 504 q 169 419 144 440 q 234 385 194 399 q 317 360 274 372 q 401 328 361 349 q 465 269 440 307 q 489 169 489 232 q 431 39 489 88 q 265 -10 372 -10 m 201 -219 q 177 -207 188 -219 q 167 -181 167 -194 q 182 -154 167 -162 l 336 -69 q 349 -67 343 -67 q 373 -79 364 -67 q 382 -106 382 -92 q 364 -136 382 -126 l 217 -215 q 209 -218 213 -217 q 201 -219 206 -219 z "},"ß":{"ha":764,"x_min":8,"x_max":711,"o":"m 457 -28 q 417 -26 442 -28 q 367 -17 392 -24 q 326 1 343 -11 q 310 33 310 14 q 313 53 310 43 q 323 69 317 63 q 338 76 329 76 q 376 63 353 76 q 447 50 400 50 q 576 107 528 50 q 625 274 625 164 l 625 297 q 603 402 625 351 q 535 488 582 453 q 413 531 489 522 q 378 540 390 533 q 365 568 365 546 q 379 598 365 592 q 414 608 393 604 q 474 631 451 611 q 508 678 496 650 q 524 735 519 706 q 528 792 528 765 q 491 931 528 879 q 376 983 454 983 q 289 958 321 983 q 244 894 257 933 q 231 810 231 854 l 231 35 q 217 10 231 19 q 183 0 203 0 q 153 10 165 0 q 140 35 140 19 l 140 582 l 39 582 q 17 593 25 582 q 8 619 8 604 q 17 646 8 635 q 39 657 25 657 l 140 657 l 140 810 q 163 938 140 879 q 238 1031 186 996 q 372 1067 289 1067 q 492 1040 439 1067 q 577 958 546 1014 q 608 815 608 903 q 597 718 608 767 q 565 633 586 669 q 510 581 543 596 q 603 533 557 572 q 680 435 649 494 q 711 303 711 375 l 711 279 q 674 107 711 175 q 580 6 638 39 q 457 -28 522 -28 z "},"t":{"ha":410,"x_min":83,"x_max":385,"o":"m 304 0 q 140 49 197 0 q 83 204 83 97 l 83 936 q 98 960 83 951 q 128 969 113 969 q 160 960 146 969 q 174 936 174 951 l 174 657 l 354 657 q 376 646 368 657 q 385 619 385 635 q 376 593 385 604 q 354 582 368 582 l 174 582 l 174 204 q 203 109 174 136 q 304 82 232 82 l 343 82 q 373 70 363 82 q 383 42 383 58 q 373 13 383 25 q 343 0 363 0 l 304 0 z "},"ŧ":{"ha":415,"x_min":83,"x_max":385,"o":"m 304 0 q 140 49 197 0 q 83 204 83 97 l 83 936 q 98 960 83 951 q 128 969 113 969 q 160 960 146 969 q 174 936 174 951 l 174 657 l 354 657 q 376 646 368 657 q 385 619 385 635 q 376 593 385 604 q 354 582 368 582 l 174 582 l 174 442 l 354 442 q 376 430 368 442 q 385 403 385 418 q 376 378 385 389 q 354 367 368 367 l 174 367 l 174 204 q 203 109 174 136 q 304 82 232 82 l 343 82 q 373 70 363 82 q 383 42 383 58 q 373 13 383 25 q 343 0 363 0 l 304 0 z "},"ť":{"ha":410,"x_min":83,"x_max":390,"o":"m 304 0 q 140 49 197 0 q 83 204 83 97 l 83 936 q 98 960 83 951 q 128 969 113 969 q 160 960 146 969 q 174 936 174 951 l 174 657 l 354 657 q 376 646 368 657 q 385 619 385 635 q 376 593 385 604 q 354 582 368 582 l 174 582 l 174 204 q 203 109 174 136 q 304 82 232 82 l 343 82 q 373 70 363 82 q 383 42 383 58 q 373 13 383 25 q 343 0 363 0 l 304 0 m 310 801 q 288 809 299 801 q 276 831 276 817 q 279 843 276 838 l 306 915 q 276 938 288 922 q 264 975 264 954 q 282 1020 264 1001 q 328 1039 300 1039 q 373 1020 354 1039 q 392 975 392 1001 q 388 953 392 968 q 377 919 383 939 q 360 874 371 900 q 335 818 349 849 q 324 806 332 811 q 310 801 317 801 z "},"ţ":{"ha":410,"x_min":83,"x_max":385,"o":"m 304 0 q 140 49 197 0 q 83 204 83 97 l 83 936 q 98 960 83 951 q 128 969 113 969 q 160 960 146 969 q 174 936 174 951 l 174 657 l 354 657 q 376 646 368 657 q 385 619 385 635 q 376 593 385 604 q 354 582 368 582 l 174 582 l 174 204 q 203 109 174 136 q 304 82 232 82 l 343 82 q 373 70 363 82 q 383 42 383 58 q 373 13 383 25 q 343 0 363 0 l 304 0 m 132 -219 q 108 -207 118 -219 q 97 -181 97 -194 q 113 -154 97 -162 l 267 -69 q 279 -67 274 -67 q 303 -79 294 -67 q 313 -106 313 -92 q 294 -136 313 -126 l 147 -215 q 140 -218 143 -217 q 132 -219 136 -219 z "},"u":{"ha":689,"x_min":81,"x_max":608,"o":"m 346 -10 q 213 26 272 -10 q 117 123 153 63 q 81 251 81 183 l 81 622 q 94 646 81 635 q 126 657 108 657 q 158 646 144 657 q 171 622 171 635 l 171 251 q 194 165 171 206 q 257 99 218 125 q 344 74 296 74 q 433 99 394 74 q 495 165 472 124 q 518 251 518 206 l 518 624 q 532 647 518 638 q 564 657 546 657 q 597 647 585 657 q 608 624 608 638 l 608 251 q 573 122 608 181 q 477 26 538 63 q 346 -10 417 -10 z "},"ú":{"ha":689,"x_min":81,"x_max":608,"o":"m 346 -10 q 213 26 272 -10 q 117 123 153 63 q 81 251 81 183 l 81 622 q 94 646 81 635 q 126 657 108 657 q 158 646 144 657 q 171 622 171 635 l 171 251 q 194 165 171 206 q 257 99 218 125 q 344 74 296 74 q 433 99 394 74 q 495 165 472 124 q 518 251 518 206 l 518 624 q 532 647 518 638 q 564 657 546 657 q 597 647 585 657 q 608 624 608 638 l 608 251 q 573 122 608 181 q 477 26 538 63 q 346 -10 417 -10 m 285 815 q 260 828 271 815 q 249 854 249 840 q 264 879 249 872 l 419 964 q 431 968 426 968 q 455 956 446 968 q 464 929 464 943 q 447 899 464 908 l 299 819 q 292 817 296 818 q 285 815 288 815 z "},"ŭ":{"ha":689,"x_min":81,"x_max":608,"o":"m 346 -10 q 213 26 272 -10 q 117 123 153 63 q 81 251 81 183 l 81 622 q 94 646 81 635 q 126 657 108 657 q 158 646 144 657 q 171 622 171 635 l 171 251 q 194 165 171 206 q 257 99 218 125 q 344 74 296 74 q 433 99 394 74 q 495 165 472 124 q 518 251 518 206 l 518 624 q 532 647 518 638 q 564 657 546 657 q 597 647 585 657 q 608 624 608 638 l 608 251 q 573 122 608 181 q 477 26 538 63 q 346 -10 417 -10 m 346 824 q 243 863 289 824 q 186 957 197 901 q 191 978 183 971 q 211 986 199 986 l 221 986 q 238 979 232 986 q 247 961 244 972 q 283 899 256 924 q 346 874 311 874 q 408 899 381 874 q 443 961 436 924 q 452 979 446 972 q 469 986 458 986 l 479 986 q 499 978 492 986 q 506 957 507 969 q 447 863 493 901 q 346 824 401 824 z "},"û":{"ha":689,"x_min":81,"x_max":608,"o":"m 346 -10 q 213 26 272 -10 q 117 123 153 63 q 81 251 81 183 l 81 622 q 94 646 81 635 q 126 657 108 657 q 158 646 144 657 q 171 622 171 635 l 171 251 q 194 165 171 206 q 257 99 218 125 q 344 74 296 74 q 433 99 394 74 q 495 165 472 124 q 518 251 518 206 l 518 624 q 532 647 518 638 q 564 657 546 657 q 597 647 585 657 q 608 624 608 638 l 608 251 q 573 122 608 181 q 477 26 538 63 q 346 -10 417 -10 m 189 817 q 169 828 178 817 q 160 853 160 839 q 165 869 160 861 q 178 883 169 878 l 322 961 q 346 968 335 968 q 369 961 358 968 l 514 883 q 528 870 524 879 q 532 851 532 861 q 524 828 532 838 q 504 818 515 818 q 497 819 501 818 q 490 822 493 821 l 346 899 l 201 821 q 195 818 199 819 q 189 817 192 817 z "},"ü":{"ha":689,"x_min":81,"x_max":608,"o":"m 346 -10 q 213 26 272 -10 q 117 123 153 63 q 81 251 81 183 l 81 622 q 94 646 81 635 q 126 657 108 657 q 158 646 144 657 q 171 622 171 635 l 171 251 q 194 165 171 206 q 257 99 218 125 q 344 74 296 74 q 433 99 394 74 q 495 165 472 124 q 518 251 518 206 l 518 624 q 532 647 518 638 q 564 657 546 657 q 597 647 585 657 q 608 624 608 638 l 608 251 q 573 122 608 181 q 477 26 538 63 q 346 -10 417 -10 m 431 818 q 394 833 410 818 q 379 869 379 849 q 394 906 379 892 q 431 919 410 919 q 467 906 453 919 q 481 869 481 892 q 467 833 481 849 q 431 818 453 818 m 260 818 q 223 833 238 818 q 208 869 208 849 q 223 906 208 892 q 260 919 238 919 q 295 906 281 919 q 310 869 310 892 q 295 833 310 849 q 260 818 281 818 z "},"ù":{"ha":689,"x_min":81,"x_max":608,"o":"m 346 -10 q 213 26 272 -10 q 117 123 153 63 q 81 251 81 183 l 81 622 q 94 646 81 635 q 126 657 108 657 q 158 646 144 657 q 171 622 171 635 l 171 251 q 194 165 171 206 q 257 99 218 125 q 344 74 296 74 q 433 99 394 74 q 495 165 472 124 q 518 251 518 206 l 518 624 q 532 647 518 638 q 564 657 546 657 q 597 647 585 657 q 608 624 608 638 l 608 251 q 573 122 608 181 q 477 26 538 63 q 346 -10 417 -10 m 407 815 q 400 817 404 815 q 393 819 396 818 l 246 899 q 228 929 228 908 q 238 956 228 943 q 261 968 247 968 q 274 964 267 968 l 428 879 q 443 854 443 872 q 433 828 443 840 q 407 815 422 815 z "},"ű":{"ha":689,"x_min":81,"x_max":608,"o":"m 346 -10 q 213 26 272 -10 q 117 123 153 63 q 81 251 81 183 l 81 622 q 94 646 81 635 q 126 657 108 657 q 158 646 144 657 q 171 622 171 635 l 171 251 q 194 165 171 206 q 257 99 218 125 q 344 74 296 74 q 433 99 394 74 q 495 165 472 124 q 518 251 518 206 l 518 624 q 532 647 518 638 q 564 657 546 657 q 597 647 585 657 q 608 624 608 638 l 608 251 q 573 122 608 181 q 477 26 538 63 q 346 -10 417 -10 z "},"ū":{"ha":689,"x_min":81,"x_max":608,"o":"m 346 -10 q 213 26 272 -10 q 117 123 153 63 q 81 251 81 183 l 81 622 q 94 646 81 635 q 126 657 108 657 q 158 646 144 657 q 171 622 171 635 l 171 251 q 194 165 171 206 q 257 99 218 125 q 344 74 296 74 q 433 99 394 74 q 495 165 472 124 q 518 251 518 206 l 518 624 q 532 647 518 638 q 564 657 546 657 q 597 647 585 657 q 608 624 608 638 l 608 251 q 573 122 608 181 q 477 26 538 63 q 346 -10 417 -10 z "}}}
